<svg width="1356" height="544" viewBox="0 0 1356 544" fill="none" xmlns="http://www.w3.org/2000/svg">
<rect y="70" width="1312" height="474" fill="#242C93"/>
<g clip-path="url(#clip0_48_2)">
<path opacity="0.8" d="M1334.61 40.8C1345.88 40.8 1355.01 31.6666 1355.01 20.4C1355.01 9.13339 1345.88 0 1334.61 0C1323.34 0 1314.21 9.13339 1314.21 20.4C1314.21 31.6666 1323.34 40.8 1334.61 40.8Z" fill="#242C93"/>
<path opacity="0.8" d="M1138.4 237.01C1149.67 237.01 1158.8 227.877 1158.8 216.61C1158.8 205.343 1149.67 196.21 1138.4 196.21C1127.13 196.21 1118 205.343 1118 216.61C1118 227.877 1127.13 237.01 1138.4 237.01Z" fill="#FFA600"/>
<path opacity="0.8" d="M1273.28 51.6392L1169.57 155.351C1161.61 163.317 1161.61 176.234 1169.57 184.2L1169.58 184.208C1177.55 192.174 1190.46 192.174 1198.43 184.208L1302.14 80.4962C1310.11 72.5295 1310.11 59.6129 1302.14 51.6462L1302.13 51.6392C1294.17 43.6725 1281.25 43.6725 1273.28 51.6392Z" fill="white" fill-opacity="0.29"/>
<g clip-path="url(#clip1_48_2)">
<path opacity="0.8" d="M1381.69 42.9744L1277.98 146.686C1270.02 154.652 1270.02 167.569 1277.98 175.536L1277.99 175.543C1285.96 183.509 1298.87 183.509 1306.84 175.543L1410.55 71.8314C1418.52 63.8647 1418.52 50.9481 1410.55 42.9814L1410.54 42.9743C1402.58 35.0076 1389.66 35.0077 1381.69 42.9744Z" fill="white"/>
</g>
</g>
<defs>
<clipPath id="clip0_48_2">
<rect width="237.01" height="237.01" fill="white" transform="translate(1118)"/>
</clipPath>
<clipPath id="clip1_48_2">
<rect width="144.51" height="144.51" fill="white" transform="translate(1272 37)"/>
</clipPath>
</defs>
</svg>
