<svg width="321" height="797" viewBox="0 0 321 797" fill="none" xmlns="http://www.w3.org/2000/svg">
<rect y="45" width="321" height="752" fill="#242C93"/>
<g clip-path="url(#clip0_81_3)">
<path opacity="0.8" d="M310.565 17.301C315.224 17.301 319 13.5752 319 8.97923C319 4.38325 315.224 0.657471 310.565 0.657471C305.906 0.657471 302.13 4.38325 302.13 8.97923C302.13 13.5752 305.906 17.301 310.565 17.301Z" fill="#242C93"/>
<path opacity="0.8" d="M229.435 97.3409C234.094 97.3409 237.87 93.6151 237.87 89.0191C237.87 84.4232 234.094 80.6974 229.435 80.6974C224.777 80.6974 221 84.4232 221 89.0191C221 93.6151 224.777 97.3409 229.435 97.3409Z" fill="#FFA600"/>
<path opacity="0.8" d="M285.208 21.7225L242.324 64.0294C239.03 67.2793 239.03 72.5483 242.324 75.7982L242.327 75.8011C245.622 79.0509 250.962 79.0509 254.256 75.8011L297.139 33.4942C300.434 30.2443 300.434 24.9753 297.139 21.7254L297.137 21.7225C293.842 18.4727 288.502 18.4727 285.208 21.7225Z" fill="white" fill-opacity="0.29"/>
<g clip-path="url(#clip1_81_3)">
<path opacity="0.8" d="M330.033 18.188L287.15 60.4949C283.856 63.7448 283.856 69.0138 287.15 72.2636L287.153 72.2665C290.447 75.5164 295.788 75.5164 299.082 72.2665L341.965 29.9596C345.259 26.7098 345.259 21.4407 341.965 18.1909L341.962 18.188C338.668 14.9381 333.327 14.9381 330.033 18.188Z" fill="white"/>
</g>
</g>
<defs>
<clipPath id="clip0_81_3">
<rect width="98" height="96.6833" fill="white" transform="translate(221 0.657471)"/>
</clipPath>
<clipPath id="clip1_81_3">
<rect width="59.7527" height="58.9499" fill="white" transform="translate(284.677 15.7509)"/>
</clipPath>
</defs>
</svg>
