<svg width="600" height="347" viewBox="0 0 600 347" fill="none" xmlns="http://www.w3.org/2000/svg">
<g clip-path="url(#clip0_1_82)">
<path d="M393.119 79.7853C393.257 84.1116 393.429 88.438 393.5 92.7643C393.5 93.8693 393.865 94.1953 394.944 94.0903C395.996 93.966 397.06 93.966 398.112 94.0903C398.909 94.1758 399.667 94.476 400.307 94.9589C400.946 95.4417 401.442 96.0891 401.742 96.8318C402.042 97.5745 402.134 98.3847 402.009 99.1757C401.884 99.9667 401.546 100.709 401.031 101.323C400.478 102.025 400.534 102.279 401.203 102.837C404.175 105.266 406.62 108.273 408.391 111.677C413.008 120.733 418.344 129.358 423.165 138.337C424.155 140.182 425.239 140.724 427.285 140.707C438.896 140.591 450.508 140.635 462.12 140.652C466.482 140.652 469.833 142.442 471.884 146.415C472.224 147.217 472.401 148.08 472.404 148.951C472.741 152.968 471.801 156.791 470.817 160.632C464.182 186.597 457.578 212.566 451.006 238.538C450.556 240.664 449.516 242.619 448.003 244.18C451.459 245.036 452.427 247.76 453.156 250.606C453.598 252.49 453.799 254.423 453.754 256.357C453.754 285.133 453.743 313.905 453.72 342.674C453.72 343.895 453.975 344.259 455.263 344.259C466.272 344.259 477.286 344.348 488.295 344.397C488.783 344.487 489.286 344.427 489.739 344.226C488.572 343.038 487.234 342.077 486.288 340.729C483.253 336.386 482.246 331.595 483.717 326.556C488.102 311.505 492.326 296.394 497.275 281.52C500.924 270.541 509.091 263.916 520.443 261.408C521.433 261.192 521.516 260.601 521.698 259.916C523.152 254.556 525.773 249.97 530.49 246.81C537.75 241.964 550.279 242.08 556.837 251.23C558.659 253.779 560.039 256.616 560.918 259.623C561.005 260.115 561.247 260.567 561.607 260.913C561.968 261.26 562.429 261.483 562.925 261.551C574.536 264.452 582.493 271.569 586.076 283.017C590.5 297.184 594.597 311.467 598.838 325.705C599.535 334.176 600.165 338.469 592.877 344.182C590.61 346.053 587.75 347.058 584.81 347.016C555.283 346.619 525.746 346.978 496.219 346.641C443.795 346.038 391.372 346.088 338.954 345.646C338.279 345.646 337.582 345.492 336.98 346C336.849 346.101 336.685 346.151 336.52 346.14C336.355 346.129 336.2 346.057 336.084 345.939C335.597 345.525 335.039 345.641 334.503 345.635L4.16343 343.933C3.84273 343.933 3.52202 343.933 3.19579 343.933C3.05716 343.945 2.91754 343.93 2.78508 343.887C2.65261 343.845 2.52996 343.776 2.42437 343.685C2.31879 343.595 2.23236 343.484 2.17018 343.36C2.108 343.235 2.0713 343.1 2.06225 342.961C1.99037 342.243 2.51565 341.95 3.0907 341.911C4.32927 341.834 5.57343 341.834 6.81753 341.834C9.11774 341.834 11.4235 341.834 13.7292 341.883C14.5088 341.883 14.7245 341.712 14.6194 340.867C13.8011 333.927 13.038 326.982 12.2639 320.036C11.2097 310.614 10.1517 301.197 9.09008 291.786C8.12245 283.188 7.17692 274.596 6.17611 266.005C5.1753 257.413 4.3293 248.81 3.19026 240.235C2.37192 234.09 1.81347 227.908 1.13336 221.747C0.768426 218.432 0.386902 215.172 0.0274953 211.884C-0.0720327 210.989 -0.121797 210.006 1.13336 209.945C2.38852 209.884 2.5212 210.934 2.62626 211.851C3.43722 219.016 4.23897 226.182 5.0315 233.35C5.79455 240.345 6.50234 247.34 7.27645 254.346C8.31596 263.811 9.39972 273.27 10.4669 282.735C11.429 291.285 12.3892 299.832 13.3476 308.378C14.3245 317.064 15.3032 325.75 16.2838 334.435C16.5215 336.535 16.7924 338.635 16.9472 340.74C17.0136 341.679 17.3454 341.95 18.2798 341.955C28.3211 341.955 38.3642 342.001 48.4092 342.093C49.2496 342.093 49.5704 341.928 49.6643 340.988C50.5159 332.982 51.4337 324.965 52.3239 316.987C52.5783 314.699 52.805 312.412 53.0428 310.13L53.0096 309.787L52.8216 309.931C50.1067 310.909 47.4969 312.174 44.6935 312.909C40.552 314.014 37.1293 312.356 35.7248 308.649C35.2742 307.362 35.2056 305.971 35.5274 304.646C35.8491 303.321 36.5476 302.116 37.5385 301.179C38.509 300.254 39.7329 299.639 41.0543 299.412C42.3756 299.185 43.7349 299.355 44.9589 299.902C47.3242 301.034 49.571 302.398 51.666 303.974C52.2576 304.394 52.8437 304.831 53.5957 305.378C53.9109 302.643 54.215 300.068 54.5025 297.493C54.7347 295.438 54.8287 293.36 55.1937 291.327C55.3983 290.183 54.967 290.029 54.0878 289.94C51.1573 289.653 48.2322 289.288 45.3017 288.995C40.8782 288.548 37.6878 285.216 37.5606 280.912C37.4866 278.891 38.1628 276.915 39.4591 275.362C40.7554 273.81 42.5803 272.791 44.5829 272.502C47.2148 272.127 49.8136 272.795 52.4124 273.055C58.0026 273.607 63.5706 274.309 69.1553 274.906C74.9832 275.53 78.4611 280.984 76.4153 286.299C75.8081 287.879 74.7212 289.229 73.3072 290.161C71.8931 291.092 70.2228 291.558 68.5304 291.493C65.4561 291.305 62.3873 290.94 59.3351 290.515C58.0689 290.332 57.6266 290.476 57.5104 291.879C57.14 296.3 56.5926 300.72 56.1115 305.179C55.9346 305.494 56.012 305.61 56.3659 305.494C59.4734 304.24 62.509 302.797 65.8432 302.179C67.231 301.931 68.6614 302.121 69.9365 302.722C71.2115 303.323 72.2679 304.305 72.9594 305.533C73.689 306.768 74.0204 308.198 73.9086 309.629C73.7969 311.059 73.2473 312.42 72.3346 313.528C71.4502 314.63 70.2415 315.427 68.8792 315.806C67.5169 316.185 66.0699 316.126 64.7428 315.638C61.9781 314.566 59.5895 312.815 57.1898 311.113C56.7032 310.771 56.2277 310.417 55.531 309.931C55.3209 311.715 55.1218 313.329 54.9393 314.948C53.9809 323.538 53.0243 332.131 52.0696 340.729C51.9701 341.607 51.9479 342.093 53.1755 342.099C100.728 342.32 148.28 342.569 195.832 342.845C195.832 343.95 196.64 343.723 197.287 343.723C210.07 343.723 222.856 343.723 235.644 343.723C236.592 343.747 237.52 343.442 238.27 342.861C238.701 343.281 239.232 343.071 239.713 343.071C249.876 343.127 260.041 343.169 270.207 343.198C270.423 344.022 271.098 343.69 271.579 343.696C278.583 343.696 285.586 343.696 292.59 343.696C293.066 343.696 293.619 343.9 293.978 343.364H302.515C302.908 343.955 303.516 343.712 304.03 343.718C313.983 343.718 323.936 343.718 333.856 343.762C335.254 343.762 335.514 343.326 335.487 342.049C335.442 326.23 335.487 310.411 335.454 294.592C335.552 294.098 335.47 293.584 335.221 293.145L316.869 301.676C316.532 301.808 316.184 301.919 315.852 302.068C313.828 302.985 313.64 302.908 312.811 300.902C308.609 290.404 304.403 279.906 300.193 269.408C300.081 268.895 299.831 268.423 299.469 268.043C299.352 268.226 299.275 268.292 299.27 268.364C298.694 274.917 298.125 281.47 297.561 288.023C297.246 291.642 296.958 295.261 296.616 298.88C296.433 300.797 296.289 300.891 294.404 300.825C294.221 300.825 294.039 300.825 293.851 300.825C289.796 300.427 285.728 300.029 281.648 299.632L262.295 297.764C256.948 297.25 251.601 296.709 246.26 296.211C241.643 295.78 237.02 295.388 232.398 294.985C232.272 294.928 232.14 294.886 232.005 294.858C229.041 294.399 228.975 294.394 229.241 291.349C230.098 282.05 231.01 272.756 231.895 263.457C232.669 255.302 233.441 247.149 234.211 238.997C234.211 238.859 234.211 238.721 234.211 238.582C234.427 235.676 234.427 235.676 231.557 235.676H84.4162C82.0828 235.676 82.0607 235.676 82.0607 233.256V2.1162C82.0607 0.10499 82.1657 0 84.1673 0H301.868C303.925 0 303.969 0.0497101 303.969 2.08855C303.969 42.9205 303.958 83.7543 303.936 124.59C303.936 126.032 304.268 126.629 305.695 127.203C315.349 131.071 324.931 135.116 334.541 139.099C336.664 139.983 338.821 140.807 340.905 141.774C341.868 142.221 342.21 142.011 342.614 141.094C346.175 133.116 349.802 125.181 353.352 117.181C355.68 111.898 358.732 107.158 363.034 103.202C361.464 101.986 360.568 100.494 360.938 98.5106C361.375 96.1513 363.05 94.8528 365.682 94.7368C367.562 94.6594 367.546 94.6594 367.402 92.7532C367.264 90.963 367.142 89.1728 367.07 87.3826C367.083 87.0923 367 86.8058 366.833 86.5678C366.666 86.3299 366.425 86.154 366.147 86.0676C356.587 81.7855 351.771 74.3042 351.256 63.9332C351.248 63.8876 351.248 63.8408 351.256 63.7951C352.086 61.1595 350.648 59.4909 348.801 57.977C348.498 57.6958 348.214 57.395 347.95 57.0763C346.91 55.9713 346.916 55.6011 348.044 54.6176C350.018 52.8937 351.959 51.1201 354.01 49.4846C354.95 48.756 355.605 47.7221 355.862 46.5617C356.415 44.3516 357.217 42.2685 358.859 40.5999L358.362 46.3407C357.933 47.0472 357.667 47.8397 357.582 48.6613C357.179 51.0103 356.418 53.2837 355.326 55.4022C354.421 57.2204 353.875 59.1957 353.717 61.2203C352.611 71.5084 358.091 80.5202 367.8 84.3161C368.724 84.6807 369.205 85.167 369.249 86.2057C369.343 88.6866 369.564 91.1785 369.669 93.6428C369.702 94.35 369.885 94.571 370.62 94.5545C377.152 94.4034 383.684 94.28 390.216 94.1842C390.99 94.1842 391.361 94.0295 391.322 93.1123C391.14 88.8855 391.029 84.6586 390.891 80.4042L393.119 79.7853ZM278.214 155.565L278.402 155.703C278.402 155.659 278.402 155.604 278.402 155.57C278.402 155.537 278.253 155.476 278.192 155.57C278.617 155.106 278.192 154.725 278.031 154.344C276.587 149.99 276.569 145.289 277.979 140.923C279.389 136.558 282.153 132.755 285.872 130.066C288.307 128.363 291.012 127.084 293.873 126.281C293.17 125.926 292.427 125.653 291.661 125.469C285.883 124.148 280.116 122.767 274.31 121.573C267.343 120.131 260.255 119.772 253.155 119.816C248.178 119.816 243.202 120.109 238.342 121.247C236.407 121.7 234.51 122.264 232.895 123.457C232.177 124.01 231.618 124.662 231.756 125.667C231.895 126.673 232.63 127.137 233.476 127.447C234.644 127.874 235.871 128.12 237.114 128.176C241.433 128.375 245.762 128.541 250.086 128.756C252.381 128.872 254.675 129.06 256.976 129.22C257.65 129.27 258.131 129.574 258.126 130.325C258.13 130.474 258.105 130.623 258.052 130.763C257.999 130.902 257.918 131.03 257.815 131.138C257.713 131.246 257.589 131.333 257.453 131.394C257.316 131.454 257.169 131.488 257.02 131.491C256.837 131.519 256.655 131.524 256.467 131.546C251.032 132.176 245.574 132.651 240.249 134.016C238.038 134.569 235.881 135.182 234.001 136.503C233.133 137.11 232.481 137.923 232.647 139.044C232.796 140.061 233.614 140.531 234.521 140.868C236.046 141.389 237.643 141.674 239.254 141.713C245.762 142.028 252.22 141.392 258.684 140.735C259.491 140.652 260.31 140.481 260.642 141.475C260.973 142.47 260.144 142.741 259.536 143.133C257.136 144.592 254.72 146.012 252.348 147.503C250.174 148.808 248.161 150.362 246.348 152.134C245.558 152.935 244.717 153.791 245.242 155.156C245.768 156.521 246.934 156.99 248.339 156.957C249.166 156.951 249.991 156.858 250.799 156.681C253.731 155.888 256.604 154.893 259.398 153.703C263.954 151.929 268.565 151.465 273.276 153.123C275.029 153.769 276.538 154.83 278.214 155.565ZM351.091 343.635C351.367 343.635 351.643 343.668 351.92 343.668C384.624 343.845 417.33 344.029 450.038 344.221C451.365 344.221 451.564 343.812 451.564 342.624C451.531 316.434 451.522 290.244 451.536 264.054C451.536 260.833 451.564 257.612 451.503 254.39C451.5 252.173 450.955 249.99 449.916 248.031C449.684 247.527 449.301 247.107 448.822 246.827C448.342 246.547 447.788 246.422 447.235 246.467C445.487 246.544 443.74 246.528 441.987 246.528L364.737 246.484C363.227 246.484 363.222 246.484 363.808 247.871C367.352 256.203 370.874 264.551 374.474 272.861C375.027 274.182 374.961 275.038 373.606 275.624C373.307 275.74 372.998 275.84 372.71 275.972C361.456 281.129 350.202 286.286 338.948 291.443C337.936 291.907 337.665 292.46 337.665 293.521C337.698 309.728 337.698 325.936 337.665 342.143C337.665 342.419 337.665 342.696 337.665 342.972C337.665 343.469 337.826 343.762 338.368 343.757C342.631 343.69 346.861 343.911 351.091 343.635ZM242.986 131.115V130.784L241.449 130.712C238.557 130.574 235.638 130.574 232.851 129.646C231.021 129.032 229.727 127.878 229.534 125.822C229.34 123.767 230.352 122.396 231.994 121.402C233.483 120.477 235.114 119.801 236.821 119.402C247.244 116.96 257.761 117.529 268.289 118.429C274.05 118.921 279.557 120.639 285.192 121.789C288.924 122.54 292.773 122.988 296.157 124.894C297.556 125.669 299.129 126.076 300.729 126.076C301.669 126.076 301.758 125.833 301.758 125.043C301.758 93.14 301.758 61.2369 301.758 29.3338C301.758 28.3779 301.432 28.2287 300.586 28.2287C297.544 28.2674 294.503 28.2287 291.462 28.2287C222.898 28.2287 154.335 28.2287 85.7709 28.2287C84.4604 28.2287 84.2337 28.6266 84.2337 29.8256C84.2632 97.1716 84.2632 164.523 84.2337 231.88C84.2337 233.317 84.6318 233.571 85.9755 233.565C130.896 233.532 175.816 233.523 220.736 233.538C224.977 233.538 229.218 233.538 233.454 233.538C234.366 233.538 234.792 233.449 234.88 232.344C235.356 226.521 235.926 220.703 236.539 214.89C236.639 213.973 236.39 213.829 235.555 213.84C232.011 213.879 228.461 213.84 224.917 213.84H221.184C220.349 213.84 219.525 213.763 219.525 212.663C219.525 211.564 220.327 211.558 221.112 211.597C221.433 211.597 221.754 211.597 222.08 211.597C226.642 211.597 231.203 211.597 235.765 211.597C236.556 211.597 236.943 211.442 236.971 210.569C237.015 209.238 237.142 207.9 237.308 206.58C237.413 205.773 237.136 205.558 236.351 205.569C233.493 205.613 230.639 205.569 227.781 205.569H220.731C220.04 205.569 219.559 205.287 219.514 204.547C219.47 203.806 219.918 203.442 220.593 203.353C220.866 203.318 221.141 203.305 221.417 203.314C225.658 203.314 229.893 203.353 234.134 203.314C235.273 203.314 236.722 203.812 237.452 203.082C238.038 202.53 237.789 201.082 237.911 200.032C237.971 199.53 237.982 199.021 238.087 198.524C238.286 197.574 237.866 197.419 236.982 197.419C232.79 197.458 228.599 197.419 224.408 197.419C223.164 197.419 221.92 197.463 220.676 197.419C219.957 197.386 219.437 197.016 219.503 196.192C219.57 195.369 220.056 195.203 220.747 195.198H221.715C226.785 195.198 231.856 195.143 236.921 195.231C238.154 195.231 238.458 194.85 238.546 193.739C238.862 189.871 239.204 186.037 239.652 182.197C239.785 181.059 239.486 180.849 238.408 180.854C228.135 180.893 217.861 180.854 207.588 180.854C205.796 180.854 205.686 180.744 205.686 178.992V142.757C205.686 141.006 205.769 140.923 207.599 140.923H230.662C229.976 137.32 230.733 135.646 233.858 133.955C235.456 133.135 237.144 132.504 238.889 132.077C240.277 131.723 241.637 131.43 242.986 131.115ZM374.153 195.574C382.033 195.574 389.906 195.574 397.786 195.601C398.82 195.601 399.179 195.292 399.445 194.303C400.805 188.777 402.353 183.252 403.63 177.727C405.842 168.163 409.326 158.886 409.458 148.874C409.558 141.105 410.785 133.359 410.144 125.568C409.431 116.866 405.925 109.545 399.085 104.019C398.484 103.465 397.691 103.165 396.873 103.179C387.016 103.445 377.159 103.671 367.303 103.859C366.247 103.862 365.234 104.279 364.483 105.019C360.858 108.378 357.973 112.453 356.012 116.987C352.027 125.717 348.071 134.478 344.146 143.271C343.372 144.995 343.117 145.1 341.315 144.376C329.2 139.365 317.118 134.27 304.954 129.375C296.848 126.109 286.646 129.756 282.14 137.265C275.786 147.835 279.928 160.737 291.379 165.56C309.233 173.075 327.137 180.478 345.014 187.866C349.458 189.801 354.477 189.954 359.031 188.291C364.333 186.39 368.049 182.766 370.498 177.743C377.502 163.4 384.506 149.062 391.51 134.729C391.732 134.227 392.008 133.751 392.334 133.309C392.477 133.121 392.688 132.997 392.921 132.962C393.155 132.928 393.393 132.987 393.583 133.127C393.822 133.225 394.012 133.412 394.115 133.648C394.219 133.884 394.226 134.15 394.136 134.392C393.998 134.735 393.843 135.07 393.672 135.397L372.412 178.904C371.394 181.177 369.977 183.248 368.226 185.02C361.154 191.728 352.987 193.535 343.93 189.822C325.96 182.462 308.067 174.931 290.135 167.477C287.719 166.549 285.533 165.108 283.727 163.256C281.813 161.148 279.639 159.292 277.257 157.731C273.149 155.073 268.803 153.697 263.898 154.769C261.012 155.399 258.319 156.62 255.555 157.626C253.039 158.543 250.501 159.361 247.775 159.239C247.571 159.233 247.37 159.28 247.191 159.377C247.012 159.474 246.863 159.618 246.757 159.792C245.184 161.667 244.091 163.897 243.573 166.289C242.898 169.682 242.776 173.141 242.439 176.572C241.444 186.783 240.463 196.995 239.497 207.21C238.532 217.424 237.579 227.591 236.639 237.709C235.765 246.915 234.858 256.114 233.974 265.336C233.15 273.9 232.365 282.464 231.502 291.018C231.38 292.244 231.541 292.753 232.951 292.88C253.033 294.721 273.112 296.6 293.187 298.515C294.216 298.615 294.404 298.322 294.481 297.41C295.218 288.515 295.98 279.619 296.765 270.723C298.343 252.619 299.931 234.512 301.531 216.404C301.597 216.119 301.551 215.819 301.403 215.567C301.255 215.314 301.016 215.127 300.735 215.045C299.629 214.575 298.523 214.094 297.478 213.558C297.335 213.507 297.205 213.425 297.098 213.317C296.991 213.208 296.909 213.078 296.859 212.934C296.809 212.79 296.792 212.637 296.809 212.486C296.827 212.335 296.877 212.19 296.958 212.061C297.014 211.92 297.101 211.794 297.211 211.69C297.322 211.587 297.454 211.509 297.598 211.463C297.743 211.416 297.895 211.402 298.046 211.422C298.196 211.441 298.34 211.493 298.468 211.575C298.755 211.713 299.054 211.84 299.347 211.973L334.049 227.653C335.525 228.322 335.531 228.311 335.531 226.631V212.337C335.462 210.356 335.739 208.378 336.349 206.492C338.76 199.822 344.494 195.651 351.588 195.579C359.13 195.518 366.645 195.574 374.153 195.574ZM394.407 244.251C410.072 244.251 425.736 244.196 441.407 244.29C445.205 244.29 447.942 241.798 448.805 238.384C455.919 210.227 463.08 182.083 470.286 153.951C470.673 152.771 470.829 151.527 470.745 150.288C470.137 145.636 467.041 142.868 462.335 142.862C450.171 142.84 438.006 142.84 425.842 142.862C418.797 142.862 413.804 146.791 412.051 153.648C408.457 167.726 404.873 181.804 401.297 195.883C400.949 197.264 400.324 197.734 398.919 197.723C388.414 197.679 377.908 197.723 367.402 197.723C362.055 197.723 356.708 197.59 351.367 197.784C343.51 198.071 337.826 203.917 337.709 211.774C337.599 219.415 337.621 227.057 337.709 234.698C337.77 240.456 341.486 244.218 347.27 244.24C362.99 244.301 378.698 244.251 394.407 244.251ZM541.405 344.779H542.234C555.825 344.779 569.416 344.779 583.007 344.779C592.706 344.779 599.319 336.226 596.643 327.098C592.33 312.362 588.122 297.582 583.45 282.956C580.226 272.873 572.944 266.668 562.726 263.955C561.742 263.695 561.36 263.888 561.36 265.06C561.36 270.905 561.305 276.751 561.255 282.597C561.255 284.36 560.979 284.625 559.27 284.625H523.329C521.671 284.625 521.427 284.398 521.427 282.696C521.427 276.895 521.427 271.095 521.427 265.297C521.427 263.706 521.427 263.678 519.818 264.109C509.135 267.01 502.075 273.757 498.856 284.299C494.538 298.416 490.43 312.588 486.222 326.739C485.449 329.21 485.352 331.842 485.94 334.364C487.416 340.563 493.001 344.823 499.791 344.828C513.67 344.81 527.541 344.793 541.405 344.779ZM193.057 25.9689C228.71 25.9689 264.365 25.9689 300.022 25.9689C301.343 25.9689 301.796 25.7645 301.774 24.3113C301.68 17.5042 301.691 10.6915 301.774 3.86771C301.774 2.51401 301.509 2.13829 300.082 2.13829C237.524 2.18249 174.965 2.19539 112.406 2.17697C103.52 2.17697 94.6289 2.17697 85.7377 2.14382C84.4715 2.14382 84.2503 2.50847 84.2614 3.6743C84.3167 10.5312 84.3277 17.3881 84.2614 24.245C84.2614 25.6042 84.5323 25.9855 85.9644 25.9855C121.673 25.9671 157.376 25.9689 193.073 25.991L193.057 25.9689ZM340.303 244.307C336.786 241.621 335.243 238.074 335.603 233.875C335.813 231.422 334.956 230.311 332.705 229.344C323.427 225.344 314.249 221.123 305.059 216.934C303.953 216.432 303.704 216.619 303.632 217.802C303.417 221.15 303.079 224.493 302.792 227.836C301.819 239.019 300.838 250.2 299.85 261.38C299.79 262.02 299.887 262.664 300.132 263.258C304.924 275.149 309.687 287.047 314.42 298.952C314.835 299.98 315.216 299.957 316.079 299.543C322.161 296.703 328.262 293.9 334.381 291.134C334.744 291.016 335.054 290.775 335.257 290.451C335.459 290.128 335.54 289.743 335.487 289.366C335.454 278.414 335.454 267.463 335.487 256.512C335.469 255.178 335.554 253.844 335.741 252.523C336.261 249.357 336.924 246.163 340.319 244.329L340.303 244.307ZM253.879 143.509L249.942 143.818C245.392 144.172 240.841 144.371 236.307 143.68C235.135 143.509 233.99 142.912 232.835 142.901C224.729 142.835 216.628 142.873 208.506 142.851C207.803 142.851 207.56 143.017 207.56 143.763C207.582 155.182 207.582 166.601 207.56 178.02C207.56 178.788 207.765 179.042 208.561 179.042C218.691 179.012 228.828 179.012 238.972 179.042C239.691 179.042 240.028 178.909 240.078 178.086C240.305 175.014 240.631 171.947 240.907 168.881C241.217 165.322 242.234 162.029 244.463 159.189C244.9 158.637 244.795 158.344 244.341 157.863C242.356 155.764 242.273 153.935 243.987 151.576C244.646 150.688 245.405 149.88 246.249 149.167C248.626 147.095 251.341 145.547 253.879 143.509ZM337.698 289.377C338.085 289.542 338.318 289.338 338.555 289.227C349.537 284.177 360.507 279.099 371.51 274.083C372.434 273.663 372.168 273.254 371.903 272.64C368.353 264.316 364.814 255.983 361.287 247.644C361.19 247.277 360.964 246.958 360.65 246.745C360.335 246.533 359.955 246.442 359.578 246.489C353.966 246.539 348.348 246.489 342.736 246.489C340.281 246.489 339.567 247.042 338.705 249.384C337.971 251.567 337.631 253.862 337.698 256.164V289.349V289.377ZM541.449 263.292C536.014 263.292 530.578 263.292 525.143 263.292C524.164 263.292 523.805 263.485 523.816 264.568C523.877 270.049 523.86 275.525 523.816 281C523.816 281.873 524.004 282.172 524.922 282.172C535.844 282.138 546.761 282.138 557.672 282.172C558.606 282.172 558.778 281.89 558.778 281.017C558.8 275.539 558.865 270.064 558.971 264.59C558.971 263.557 558.734 263.269 557.705 263.281C552.32 263.303 546.884 263.275 541.449 263.275V263.292ZM524.054 260.75H558.684C556.406 251.462 549.837 246.008 541.255 246.158C532.447 246.301 525.912 251.821 524.054 260.733V260.75ZM67.1592 289.029C70.7698 289.354 72.9483 288.161 74.0818 285.575C74.5879 284.406 74.7042 283.104 74.4135 281.864C74.1227 280.623 73.4404 279.509 72.4673 278.685C71.1735 277.58 69.5699 277.348 67.972 277.166C60.7838 276.359 53.5957 275.585 46.4462 274.773C45.5755 274.699 44.6991 274.815 43.8778 275.114C43.0565 275.412 42.3101 275.886 41.6903 276.501C41.0705 277.117 40.5922 277.86 40.2887 278.679C39.9852 279.498 39.8637 280.373 39.9327 281.243C40.2921 284.426 42.3048 286.255 46.1698 286.702C53.3413 287.52 60.524 288.283 67.1592 289.012V289.029ZM381.502 101.66V101.196C382.834 101.196 384.167 101.196 385.505 101.196C389.414 101.124 393.324 101.052 397.233 100.931C399.218 100.87 400.362 99.1239 399.483 97.5381C398.93 96.4994 397.885 96.2341 396.763 96.2618C394.374 96.3281 391.98 96.3999 389.575 96.4552C381.712 96.632 373.846 96.8033 365.975 96.969C365.069 96.969 364.217 97.0851 363.653 97.8973C363.38 98.2118 363.201 98.597 363.138 99.0086C363.074 99.4201 363.128 99.8412 363.294 100.223C363.847 101.384 364.842 101.671 366.031 101.671C371.195 101.632 376.349 101.643 381.502 101.643V101.66ZM411.697 148.515C414.07 144.79 417.072 142.437 420.976 141.332C422.187 141.006 422.01 140.624 421.529 139.79C418.919 135.248 416.348 130.684 413.788 126.126C413.367 125.391 412.942 124.656 412.521 123.916C413.135 132.055 411.963 140.077 411.697 148.498V148.515ZM52.3571 307.433C49.7307 305.472 47.2646 303.637 44.4944 302.278C42.4098 301.262 40.3529 301.593 38.965 303.129C38.3096 303.841 37.89 304.738 37.7633 305.697C37.6367 306.656 37.8092 307.631 38.2573 308.489C38.7136 309.402 39.4724 310.13 40.4047 310.548C41.3371 310.966 42.3856 311.049 43.372 310.782C46.4463 310.074 49.3381 308.809 52.3571 307.417V307.433ZM56.8967 307.925C59.6171 309.98 62.2159 311.947 65.1907 313.29C66.056 313.685 67.0257 313.791 67.956 313.592C68.8864 313.393 69.7276 312.9 70.3551 312.185C70.9954 311.455 71.3927 310.545 71.4918 309.58C71.5909 308.614 71.3868 307.642 70.908 306.798C70.4637 305.954 69.7586 305.277 68.8977 304.867C68.0368 304.457 67.0661 304.335 66.1307 304.521C62.9789 305.162 59.9986 306.472 56.8967 307.925ZM352.091 57.8554C352.55 56.0763 353.324 54.4187 353.905 52.6782C353.132 53.2074 352.393 53.785 351.693 54.4076C349.824 56.0652 349.824 56.0652 351.693 57.7228C351.822 57.7744 351.955 57.8133 352.091 57.8388V57.8554Z" fill="white"/>
<path d="M293.984 343.375C293.624 343.928 293.071 343.701 292.596 343.707C285.592 343.707 278.588 343.707 271.584 343.707C271.103 343.707 270.429 344.033 270.213 343.21V325.092L238.276 342.873C237.525 343.453 236.598 343.758 235.649 343.735C222.865 343.712 210.08 343.712 197.292 343.735C196.645 343.735 195.827 343.967 195.838 342.856C195.838 336.745 197.596 331.253 201.776 326.667C204.207 323.861 207.349 321.761 210.872 320.589C217.176 318.605 221.876 314.6 225.741 309.433C228.933 305.136 231.219 300.236 232.459 295.029C237.081 295.432 241.704 295.825 246.321 296.256C251.668 296.753 257.015 297.294 262.356 297.808L281.709 299.676C285.763 300.07 289.831 300.468 293.912 300.869C293.912 312.417 293.928 323.963 293.962 335.507C293.923 338.132 293.962 340.751 293.984 343.375Z" fill="#FFA600"/>
<path d="M358.356 46.3407L358.854 40.5999C360.775 37.8108 363.267 35.4612 366.164 33.7067C369.062 31.9522 372.3 30.8327 375.663 30.4223C377.575 30.1184 379.523 30.1184 381.436 30.4223C382.387 30.5881 382.663 30.3063 382.669 29.3172C382.63 24.6746 384.154 20.1536 386.994 16.4795C389.835 12.8054 393.828 10.1911 398.333 9.05598C409.757 6.01154 421.485 13.2552 424.072 24.9467C426.566 36.2404 418.936 47.7054 407.545 49.8106C406.051 50.0798 404.534 50.1928 403.017 50.1476C401.142 48.3851 401.126 48.374 399.301 50.2581C396.861 52.7021 394.575 55.2948 392.456 58.0212C389.934 61.3364 387.413 64.7234 386.451 68.9337C385.682 72.2986 387.004 74.8181 390.106 75.8016C391.08 76.1694 392.133 76.2823 393.163 76.1295C394.194 75.9767 395.169 75.5633 395.994 74.9286C396.221 74.7573 396.398 74.3761 396.796 74.6247C396.037 76.6379 394.768 78.4198 393.114 79.7964L390.874 80.4373C390.28 80.3952 389.69 80.3046 389.11 80.1666C383.01 78.23 377.258 75.3354 372.069 71.5913L373.269 70.9338C376.708 69.0939 378.632 66.2428 378.798 62.342C379.003 58.187 377.139 55.0431 373.645 52.949C369.608 50.5399 363.034 51.0759 359.567 56.9327C358.659 53.478 358.251 49.911 358.356 46.3407Z" fill="#FFA600"/>
<path d="M527.665 1.66313C553.099 1.72391 573.901 22.5101 573.768 47.827C573.76 53.8857 572.557 59.8834 570.229 65.4778C567.901 71.0721 564.494 76.1534 560.2 80.4317C555.907 84.7099 550.813 88.1013 545.208 90.4121C539.603 92.723 533.598 93.9081 527.535 93.8997C521.472 93.8914 515.469 92.6898 509.871 90.3635C504.273 88.0372 499.188 84.6319 494.906 80.3418C490.625 76.0518 487.231 70.961 484.918 65.3603C482.606 59.7596 481.42 53.7586 481.428 47.6999C481.401 22.267 502.285 1.60235 527.665 1.66313ZM527.576 3.92296C503.441 4.14397 483.728 23.2615 483.734 47.8049C483.734 72.5748 503.966 91.6206 527.62 91.6095C551.397 91.6095 571.501 72.4091 571.468 47.7662C571.435 23.1234 551.535 4.08872 527.576 3.92296Z" fill="white"/>
<path d="M396.802 74.6192C396.404 74.3651 396.249 74.7518 396 74.9231C395.174 75.5578 394.2 75.9712 393.169 76.124C392.138 76.2768 391.086 76.1639 390.111 75.7961C387.02 74.8126 385.688 72.2931 386.456 68.9282C387.418 64.7179 389.94 61.3585 392.461 58.0157C394.58 55.2893 396.867 52.6966 399.306 50.2526C401.131 48.3685 401.148 48.3796 403.022 50.1421C405.931 53.4573 408.95 56.662 411.36 60.3805C413.124 63.0879 414.678 65.8671 415.176 69.1381C415.318 70.0457 415.267 70.9731 415.027 71.8598C414.786 72.7464 414.361 73.5724 413.779 74.2836C413.197 74.9949 412.472 75.5755 411.65 75.9875C410.828 76.3995 409.929 76.6336 409.011 76.6746C406.583 76.752 405.101 75.2712 403.99 73.3594C402.431 70.7294 401.778 67.7678 401.098 64.6571C400.125 68.0165 399.323 71.2875 397.167 73.9562C396.94 74.1164 396.614 74.2048 396.802 74.6137V74.6192ZM400.042 52.7832C396.677 56.1542 393.685 59.8777 391.117 63.8891C389.959 65.5512 389.12 67.4134 388.64 69.3812C388.242 71.4035 388.64 72.5472 390.073 73.2821C391.958 74.249 393.877 74.0059 395.159 72.6909C396.818 70.9781 397.581 68.8232 398.19 66.6131C399.4 62.1818 399.832 57.6621 400.042 52.7832ZM402.613 52.9324C402.374 58.0323 402.922 63.1386 404.239 68.0717C404.731 69.9227 405.295 71.7903 406.638 73.2821C407.744 74.5198 408.811 74.7684 410.326 74.0888C412.754 73.0113 413.6 71.2212 412.737 68.2762C410.984 62.2647 406.76 57.8554 402.613 52.9324Z" fill="white"/>
<path d="M529.788 167.162C529.157 167.162 529.108 166.61 528.92 166.234C527.123 162.621 525.314 159.007 523.556 155.372C523.258 154.779 523.118 154.119 523.149 153.457C523.18 152.794 523.381 152.151 523.732 151.588C524.084 151.026 524.574 150.563 525.156 150.244C525.738 149.926 526.393 149.762 527.056 149.769H531.883C534.913 149.769 536.744 152.476 535.527 155.294C534.587 157.504 533.409 159.565 532.375 161.72C531.502 163.532 530.446 165.262 529.766 167.168L529.788 167.162Z" fill="white"/>
<path d="M529.766 167.179C533.172 165.781 536.362 163.941 539.68 162.361C540.465 161.991 541.245 161.587 542.057 161.256C542.556 161.074 543.088 161.001 543.618 161.042C544.147 161.083 544.661 161.237 545.126 161.494C545.448 161.628 545.719 161.861 545.9 162.159C546.082 162.456 546.165 162.804 546.138 163.151C546.105 165.958 546.094 168.765 546.138 171.566C546.138 172.494 545.806 172.671 544.938 172.738C541.792 172.959 538.856 172.533 536.091 170.793C534.388 169.715 532.486 168.958 530.684 168.03C530.302 167.837 529.755 167.781 529.76 167.162L529.766 167.179Z" fill="white"/>
<path d="M396.802 74.6358C396.586 74.2269 396.94 74.1385 397.167 73.9783C397.227 74.2987 397.172 74.5529 396.802 74.6358Z" fill="white"/>
<path d="M373.606 275.646L390.974 310.892C392.08 313.157 393.185 315.439 394.33 317.688C394.678 318.373 394.75 318.749 393.91 319.152C387.44 322.258 380.99 325.4 374.557 328.579C373.661 329.021 373.385 328.706 373.037 327.965C370.753 323.147 368.431 318.351 366.125 313.544C365.909 313.097 365.677 312.655 365.439 312.174C364.886 312.644 364.726 313.279 364.472 313.87C360.159 323.363 355.859 332.857 351.572 342.353C351.384 342.768 351.246 343.21 351.085 343.635C346.85 343.911 342.62 343.69 338.368 343.757C337.815 343.757 337.643 343.469 337.665 342.972C337.665 342.696 337.665 342.42 337.665 342.143C337.665 325.936 337.665 309.728 337.665 293.521C337.665 292.46 337.936 291.907 338.948 291.443C350.217 286.316 361.471 281.159 372.71 275.972C372.998 275.878 373.308 275.762 373.606 275.646Z" fill="#FFA600"/>
<path d="M302.521 343.397C302.521 340.58 302.676 337.806 303.693 335.11C305.274 330.934 308.35 327.494 312.324 325.457C314.141 324.461 316.06 323.665 318.047 323.081C320.099 322.484 321.122 320.606 320.646 318.484C319.385 312.885 318.129 307.288 316.875 301.693L335.227 293.161C335.476 293.601 335.558 294.114 335.459 294.609C335.459 310.428 335.459 326.247 335.492 342.066C335.492 343.342 335.26 343.79 333.861 343.779C323.908 343.712 313.956 343.746 304.036 343.735C303.522 343.746 302.914 343.989 302.521 343.397Z" fill="#FFA600"/>
<path d="M278.192 155.598C278.253 155.476 278.325 155.465 278.402 155.598C278.479 155.731 278.402 155.686 278.402 155.731L278.214 155.592L278.192 155.598Z" fill="white"/>
<path d="M56.3605 305.483C56.0066 305.599 55.9292 305.483 56.1061 305.168L56.3605 305.483Z" fill="white"/>
<path d="M52.8494 309.92L53.0374 309.776L53.0705 310.119L52.8494 309.92Z" fill="white"/>
<path d="M372.074 71.5858C371.913 71.6082 371.748 71.5968 371.591 71.5523C371.434 71.5078 371.288 71.4312 371.162 71.3273C371.036 71.2234 370.934 71.0945 370.86 70.9487C370.787 70.803 370.745 70.6437 370.736 70.4808C370.609 69.6022 371.323 69.3757 371.953 69.0497C374.85 67.6352 376.459 65.298 376.597 62.0934C376.696 60.66 376.384 59.2283 375.699 57.9652C375.013 56.7022 373.983 55.66 372.727 54.9602C369.039 52.7003 364.499 53.822 361.862 57.6123C361.48 58.1648 361.099 58.7174 360.33 58.4688C360.173 58.424 360.027 58.3457 359.903 58.2392C359.779 58.1328 359.679 58.0008 359.611 57.8522C359.542 57.7037 359.507 57.5421 359.507 57.3786C359.507 57.2151 359.543 57.0536 359.611 56.9051C363.078 51.0483 369.653 50.5123 373.689 52.9213C377.211 55.0154 379.047 58.1593 378.842 62.3144C378.649 66.2152 376.725 69.0663 373.313 70.9062L372.074 71.5858Z" fill="white"/>
<path d="M400.042 52.7832C399.832 57.662 399.4 62.1762 398.19 66.5965C397.581 68.8066 396.829 70.9891 395.159 72.6743C393.877 73.9893 391.958 74.2324 390.073 73.2655C388.64 72.5306 388.242 71.3869 388.64 69.3646C389.12 67.3968 389.959 65.5347 391.117 63.8725C393.686 59.8668 396.678 56.149 400.042 52.7832Z" fill="#FFA600"/>
<path d="M149.884 124.352C135.281 124.352 120.683 124.352 106.08 124.352C104.853 124.352 104.576 124.043 104.576 122.839C104.617 98.6745 104.617 74.5142 104.576 50.3576C104.576 49.0757 104.963 48.8768 106.125 48.8768C135.323 48.9026 164.522 48.9026 193.72 48.8768C194.981 48.8768 195.307 49.1918 195.307 50.4571C195.267 74.5695 195.267 98.6837 195.307 122.8C195.307 124.137 194.87 124.341 193.682 124.341C179.084 124.305 164.485 124.305 149.884 124.341V124.352Z" fill="#FFA600"/>
<path d="M151.012 181.495H116.47C114.595 181.495 114.501 181.407 114.501 179.567V143.271C114.501 141.613 114.606 141.492 116.326 141.492H185.824C187.555 141.492 187.688 141.63 187.688 143.404V179.572C187.688 181.368 187.538 181.512 185.692 181.512L151.012 181.495ZM151.012 143.42C139.912 143.42 128.813 143.42 117.714 143.42C116.719 143.42 116.31 143.558 116.315 144.724C116.363 155.86 116.363 166.995 116.315 178.13C116.315 179.434 116.752 179.594 117.885 179.589C140.003 179.559 162.107 179.559 184.199 179.589C185.376 179.589 185.747 179.351 185.741 178.103C185.686 167.015 185.686 155.926 185.741 144.835C185.741 143.685 185.476 143.398 184.32 143.404C173.234 143.437 162.131 143.42 151.034 143.42H151.012Z" fill="white"/>
<path d="M248.77 71.9947C253.931 71.9947 259.081 71.9947 264.219 71.9947C264.677 71.9918 265.133 72.0418 265.58 72.1439C265.783 72.2021 265.96 72.3293 266.08 72.5037C266.2 72.6781 266.256 72.8889 266.237 73.0997C266.261 73.3327 266.197 73.5659 266.06 73.7554C265.922 73.9448 265.72 74.0772 265.491 74.1274C265.127 74.2006 264.756 74.2339 264.385 74.2269H233.2C232.829 74.2312 232.459 74.2016 232.094 74.1385C231.873 74.0787 231.677 73.9487 231.536 73.768C231.396 73.5874 231.318 73.3659 231.314 73.1371C231.31 72.9082 231.381 72.6843 231.516 72.4992C231.65 72.3141 231.842 72.1777 232.061 72.1107C232.511 72.0308 232.969 71.9919 233.426 71.9947H248.77Z" fill="white"/>
<path d="M248.621 90.615C243.46 90.615 238.311 90.615 233.172 90.615C232.761 90.6174 232.351 90.552 231.961 90.4216C231.743 90.3435 231.561 90.1872 231.452 89.983C231.343 89.7788 231.313 89.5412 231.369 89.3165C231.378 89.1064 231.458 88.9056 231.597 88.7477C231.736 88.5898 231.925 88.4844 232.133 88.4491C232.542 88.3993 232.954 88.3771 233.366 88.3827H265.076C265.214 88.3738 265.352 88.3922 265.482 88.4369C265.612 88.4817 265.732 88.5518 265.835 88.6433C265.938 88.7349 266.022 88.8459 266.081 88.97C266.141 89.0941 266.175 89.2288 266.182 89.3663C266.197 89.5158 266.182 89.6669 266.137 89.8103C266.091 89.9537 266.017 90.0864 265.919 90.2002C265.821 90.314 265.7 90.4065 265.565 90.4721C265.429 90.5378 265.282 90.5751 265.132 90.5818C264.859 90.6214 264.583 90.6361 264.308 90.626L248.621 90.615Z" fill="white"/>
<path d="M151.46 206.193H135.69C134.844 206.193 133.854 206.265 133.915 205.049C133.976 203.834 134.954 203.944 135.795 203.944H166.892C167.539 203.944 168.224 203.944 168.617 204.569C169.17 205.436 168.501 206.226 167.202 206.226C163.425 206.226 159.648 206.226 155.866 206.226L151.46 206.193Z" fill="white"/>
<path d="M151.426 195.828H166.77C167.139 195.816 167.509 195.829 167.876 195.866C168.11 195.881 168.329 195.982 168.493 196.15C168.656 196.317 168.752 196.539 168.761 196.773C168.808 197.024 168.759 197.285 168.624 197.502C168.489 197.72 168.277 197.879 168.031 197.949C167.404 198.106 166.753 198.141 166.112 198.054L135.845 198.082C135.568 198.091 135.29 198.078 135.015 198.043C134.363 197.933 133.876 197.601 133.909 196.866C133.943 196.132 134.418 195.833 135.12 195.833H151.426V195.828Z" fill="white"/>
<path d="M248.737 82.3767H233.122C232.304 82.3767 231.408 82.3767 231.381 81.3214C231.381 80.15 232.287 80.1445 233.161 80.1445H264.805C265.602 80.1445 266.226 80.4373 266.215 81.2827C266.204 82.1281 265.563 82.3878 264.767 82.3878C260.758 82.3878 256.749 82.3878 252.74 82.3878L248.737 82.3767Z" fill="white"/>
<path d="M151.272 214.404H135.933C135.52 214.426 135.106 214.399 134.7 214.321C134.447 214.269 134.223 214.12 134.077 213.907C133.931 213.694 133.873 213.432 133.915 213.177C133.919 212.943 134.007 212.719 134.162 212.544C134.317 212.368 134.529 212.254 134.761 212.221C135.128 212.175 135.498 212.162 135.867 212.183H166.831C167.2 212.162 167.57 212.175 167.937 212.221C168.169 212.253 168.381 212.367 168.535 212.543C168.69 212.718 168.776 212.944 168.777 213.177C168.823 213.432 168.767 213.694 168.621 213.908C168.475 214.122 168.252 214.27 167.998 214.321C167.545 214.399 167.085 214.426 166.627 214.404H151.272Z" fill="white"/>
<path d="M541.211 302.748C545.817 302.748 550.423 302.748 555.035 302.748C558.54 302.748 561.36 304.157 563.329 307.118C564.006 308.151 564.464 309.311 564.676 310.527C564.889 311.743 564.849 312.99 564.562 314.191C563.666 318.683 562.715 323.175 561.526 327.595C560.42 331.783 557.158 333.894 553.713 333.955C545.568 334.098 537.413 334.121 529.268 333.955C524.922 333.866 521.953 330.734 520.974 326.661C520.045 322.794 519.315 318.865 518.287 315.014C516.971 309.975 519.216 305.737 522.804 303.776C524.35 303.018 526.061 302.663 527.781 302.742L541.211 302.748ZM541.156 305.24C536.323 305.24 531.491 305.24 526.653 305.24C522.92 305.24 520.427 308.737 520.382 311.632C520.355 313.384 520.858 315.02 521.239 316.688C521.991 319.937 522.71 323.197 523.451 326.44C524.109 329.203 526.708 331.678 529.954 331.557C532.757 331.452 535.566 331.557 538.375 331.557C543.395 331.557 548.416 331.557 553.431 331.518C556.035 331.485 558.739 329.43 559.287 327.048C560.276 322.772 561.211 318.473 562.051 314.158C562.245 313.163 562.555 312.146 562.339 311.052C561.559 307.135 558.468 305.179 554.946 305.218C550.39 305.278 545.762 305.24 541.156 305.24Z" fill="white"/>
<path d="M541.543 287.879H559.237C559.563 287.879 559.884 287.879 560.205 287.879C560.367 287.867 560.53 287.89 560.683 287.946C560.836 288.002 560.975 288.09 561.091 288.204C561.207 288.318 561.298 288.455 561.357 288.607C561.416 288.759 561.441 288.921 561.432 289.084C561.432 289.857 560.946 290.233 560.216 290.305C559.893 290.321 559.57 290.321 559.248 290.305H523.623C523.209 290.323 522.795 290.304 522.384 290.25C522.107 290.212 521.853 290.071 521.676 289.855C521.498 289.639 521.41 289.363 521.428 289.084C521.413 288.932 521.43 288.78 521.477 288.635C521.525 288.491 521.601 288.357 521.702 288.244C521.804 288.13 521.927 288.039 522.065 287.975C522.204 287.911 522.354 287.877 522.506 287.874C522.876 287.874 523.241 287.874 523.612 287.874L541.543 287.879Z" fill="white"/>
<path d="M119.196 9.71899C120.369 9.71899 121.494 10.1847 122.324 11.0136C123.153 11.8426 123.619 12.9669 123.619 14.1392C123.557 15.2729 123.08 16.3444 122.281 17.1508C121.481 17.9572 120.413 18.4427 119.279 18.5153C118.114 18.5154 116.997 18.0565 116.168 17.2382C115.34 16.42 114.868 15.3084 114.855 14.1448C114.846 13.5684 114.951 12.9958 115.165 12.4604C115.378 11.9249 115.696 11.4371 116.1 11.0254C116.504 10.6137 116.985 10.2862 117.517 10.062C118.048 9.8377 118.619 9.72111 119.196 9.71899Z" fill="white"/>
<path d="M102.663 14.0177C102.675 13.4452 102.8 12.8807 103.03 12.3563C103.26 11.832 103.592 11.3581 104.005 10.9618C104.419 10.5655 104.907 10.2544 105.441 10.0464C105.974 9.83835 106.544 9.73742 107.117 9.7494C107.69 9.76137 108.255 9.886 108.78 10.1161C109.304 10.3463 109.778 10.6774 110.175 11.0907C110.572 11.504 110.883 11.9913 111.091 12.5248C111.299 13.0583 111.4 13.6276 111.388 14.2001C111.323 15.3378 110.832 16.4094 110.013 17.2018C109.193 17.9942 108.105 18.4493 106.965 18.4766C105.806 18.4448 104.706 17.9598 103.902 17.1259C103.097 16.2921 102.653 15.176 102.663 14.0177Z" fill="white"/>
<path d="M90.4875 14.1116C90.4647 13.5332 90.5587 12.9561 90.7639 12.4148C90.9692 11.8734 91.2814 11.379 91.6821 10.9609C92.0828 10.5428 92.5636 10.2097 93.0959 9.98134C93.6283 9.75301 94.2012 9.63419 94.7805 9.63196C95.3598 9.62973 95.9335 9.74413 96.4676 9.96835C97.0017 10.1926 97.4851 10.522 97.889 10.937C98.2928 11.352 98.6089 11.8441 98.8183 12.3838C99.0277 12.9236 99.1261 13.4999 99.1077 14.0785C99.1306 14.6569 99.0366 15.234 98.8313 15.7753C98.6261 16.3166 98.3138 16.8111 97.9132 17.2292C97.5125 17.6473 97.0317 17.9805 96.4994 18.2088C95.9671 18.4371 95.3941 18.5559 94.8148 18.5581C94.2355 18.5604 93.6617 18.446 93.1277 18.2217C92.5936 17.9975 92.1102 17.6681 91.7063 17.2531C91.3025 16.8381 90.9864 16.346 90.777 15.8063C90.5676 15.2666 90.4691 14.6902 90.4875 14.1116Z" fill="white"/>
<path d="M368.066 62.0049C369.05 62.5574 369.83 62.9277 370.576 63.3641C370.726 63.4268 370.86 63.5216 370.968 63.6419C371.077 63.7621 371.158 63.9048 371.206 64.0598C371.253 64.2148 371.266 64.3784 371.243 64.5389C371.22 64.6994 371.163 64.8529 371.074 64.9886C371.003 65.1211 370.905 65.2368 370.785 65.3276C370.666 65.4185 370.528 65.4824 370.381 65.515C370.235 65.5475 370.083 65.548 369.936 65.5162C369.789 65.4845 369.651 65.4214 369.531 65.3312C368.077 64.5576 366.589 63.8449 365.168 63.0216C364.134 62.4249 364.162 61.4358 365.218 60.8943C367.247 59.8445 369.31 58.8555 371.378 57.8831C371.992 57.5957 372.666 57.5737 373.037 58.3361C373.407 59.0986 373.003 59.5683 372.356 59.8942C370.996 60.5683 369.647 61.2258 368.066 62.0049Z" fill="white"/>
<path d="M70.0623 286.222L56.7476 284.768C52.772 284.326 48.7909 283.868 44.8153 283.437C42.2386 283.161 40.9835 281.525 41.8239 279.492C42.074 278.893 42.5189 278.395 43.0866 278.079C43.6544 277.763 44.3121 277.648 44.9535 277.751C50.7188 278.381 56.4822 279.024 62.2438 279.68C65.0085 279.989 67.7344 280.282 70.4659 280.652C72.2353 280.89 73.2306 282.061 73.0702 283.608C73.0457 283.978 72.9483 284.339 72.7835 284.67C72.6188 285.002 72.3901 285.298 72.1105 285.54C71.8309 285.783 71.506 285.969 71.1545 286.086C70.803 286.202 70.4318 286.249 70.0623 286.222ZM69.642 283.735C69.8743 283.558 70.5101 284.078 70.5875 283.47C70.6649 282.862 69.9738 282.989 69.5646 282.918C69.5186 282.915 69.4724 282.915 69.4264 282.918L50.6266 280.796C48.8462 280.591 47.0657 280.376 45.2798 280.243C44.854 280.205 44.1075 279.834 44.0301 280.575C43.9582 281.21 44.6992 281.028 45.136 281.089C46.1368 281.238 47.1432 281.337 48.1495 281.448L69.642 283.735Z" fill="white"/>
<path d="M528.721 45.418L537.015 38.9312L544.933 32.7043C545.072 32.5859 545.218 32.4752 545.369 32.3727C546.027 31.9694 546.68 31.8478 547.183 32.5771C547.686 33.3065 547.338 33.7927 546.768 34.2347C544.125 36.2975 541.479 38.3585 538.828 40.4176C535.511 43.0255 532.184 45.639 528.848 48.258C528.35 48.6503 527.858 49.1475 527.134 48.8105C526.409 48.4734 526.47 47.7883 526.47 47.1529C526.47 37.5389 526.47 27.9249 526.47 18.3108C526.47 17.471 526.553 16.6533 527.631 16.6533C528.71 16.6533 528.737 17.5263 528.737 18.3108V45.418H528.721Z" fill="white"/>
</g>
<defs>
<clipPath id="clip0_1_82">
<rect width="599.247" height="347" fill="white"/>
</clipPath>
</defs>
</svg>
