<svg width="360" height="220" viewBox="0 0 360 220" fill="none" xmlns="http://www.w3.org/2000/svg">
<g clip-path="url(#clip0_1_512)">
<path d="M229.633 50.461C229.72 53.1973 229.829 55.9335 229.874 58.6697C229.874 59.3686 230.105 59.5748 230.787 59.5084C231.453 59.4297 232.125 59.4297 232.791 59.5084C233.295 59.5624 233.775 59.7523 234.179 60.0577C234.583 60.3631 234.897 60.7725 235.087 61.2423C235.276 61.712 235.335 62.2244 235.255 62.7247C235.176 63.225 234.963 63.6944 234.637 64.0827C234.287 64.5265 234.322 64.6873 234.746 65.0402C236.625 66.5763 238.172 68.4787 239.292 70.6315C242.212 76.359 245.587 81.814 248.636 87.4926C249.262 88.6598 249.947 89.0022 251.241 88.9918C258.585 88.9184 265.929 88.9463 273.273 88.9568C276.032 88.9568 278.151 90.089 279.449 92.6016C279.664 93.1092 279.776 93.6544 279.778 94.2056C279.991 96.7461 279.396 99.1643 278.774 101.593C274.577 118.015 270.401 134.439 266.244 150.866C265.96 152.21 265.301 153.447 264.345 154.434C266.531 154.976 267.143 156.698 267.604 158.498C267.884 159.69 268.011 160.912 267.982 162.136C267.982 180.335 267.975 198.533 267.961 216.727C267.961 217.5 268.122 217.73 268.937 217.73C275.899 217.73 282.865 217.786 289.828 217.818C290.136 217.874 290.454 217.836 290.741 217.709C290.003 216.958 289.157 216.35 288.559 215.497C286.639 212.751 286.002 209.721 286.933 206.534C289.706 197.015 292.378 187.457 295.507 178.05C297.815 171.106 302.981 166.916 310.16 165.33C310.786 165.194 310.839 164.82 310.954 164.386C311.874 160.997 313.531 158.096 316.514 156.097C321.106 153.033 329.03 153.106 333.178 158.893C334.331 160.505 335.203 162.299 335.759 164.201C335.814 164.512 335.967 164.798 336.195 165.017C336.423 165.236 336.715 165.378 337.028 165.421C344.372 167.255 349.405 171.756 351.671 178.997C354.468 187.957 357.06 196.99 359.742 205.996C360.183 211.353 360.581 214.068 355.972 217.681C354.538 218.865 352.73 219.5 350.87 219.474C332.195 219.223 313.514 219.45 294.84 219.236C261.684 218.856 228.528 218.887 195.375 218.607C194.949 218.607 194.508 218.51 194.127 218.831C194.044 218.895 193.941 218.927 193.836 218.92C193.732 218.913 193.634 218.867 193.56 218.793C193.253 218.531 192.9 218.604 192.56 218.6L-16.366 217.524C-16.5688 217.524 -16.7717 217.524 -16.978 217.524C-17.0657 217.532 -17.154 217.522 -17.2378 217.495C-17.3215 217.468 -17.3991 217.425 -17.4659 217.367C-17.5327 217.31 -17.5873 217.24 -17.6267 217.161C-17.666 217.083 -17.6892 216.997 -17.6949 216.909C-17.7404 216.455 -17.4082 216.27 -17.0445 216.245C-16.2611 216.196 -15.4742 216.196 -14.6874 216.196C-13.2326 216.196 -11.7743 216.196 -10.316 216.228C-9.82294 216.228 -9.68656 216.119 -9.75301 215.585C-10.2706 211.196 -10.7532 206.803 -11.2428 202.41C-11.9095 196.451 -12.5787 190.495 -13.2501 184.543C-13.8621 179.105 -14.4601 173.671 -15.0931 168.237C-15.726 162.803 -16.2611 157.362 -16.9815 151.939C-17.4991 148.053 -17.8523 144.142 -18.2824 140.246C-18.5132 138.149 -18.7545 136.088 -18.9818 134.008C-19.0448 133.442 -19.0762 132.82 -18.2824 132.782C-17.4886 132.743 -17.4046 133.407 -17.3382 133.987C-16.8253 138.519 -16.3182 143.051 -15.817 147.585C-15.3344 152.009 -14.8867 156.433 -14.3971 160.864C-13.7397 166.85 -13.0543 172.833 -12.3793 178.819C-11.7708 184.226 -11.1635 189.632 -10.5574 195.037C-9.93954 200.53 -9.32053 206.024 -8.70038 211.517C-8.55001 212.845 -8.37867 214.173 -8.28075 215.504C-8.23878 216.098 -8.02895 216.27 -7.43794 216.273C-1.08723 216.273 5.26463 216.302 11.6177 216.36C12.1492 216.36 12.3521 216.256 12.4115 215.662C12.9501 210.598 13.5306 205.527 14.0936 200.481C14.2545 199.035 14.3979 197.588 14.5482 196.145L14.5272 195.928L14.4083 196.019C12.6913 196.637 11.0407 197.438 9.26764 197.902C6.64832 198.601 4.48359 197.553 3.59534 195.208C3.31029 194.394 3.26691 193.515 3.47043 192.676C3.67394 191.838 4.11567 191.077 4.74239 190.483C5.35622 189.899 6.13025 189.51 6.96597 189.366C7.8017 189.222 8.66135 189.33 9.43549 189.676C10.9315 190.392 12.3524 191.255 13.6775 192.252C14.0516 192.517 14.4223 192.793 14.8979 193.139C15.0973 191.41 15.2896 189.781 15.4715 188.153C15.6183 186.853 15.6778 185.539 15.9086 184.253C16.038 183.529 15.7652 183.431 15.2092 183.376C13.3557 183.194 11.5058 182.963 9.65231 182.778C6.85464 182.495 4.83682 180.388 4.75639 177.666C4.70959 176.388 5.13724 175.138 5.9571 174.156C6.77697 173.174 7.93114 172.53 9.19767 172.347C10.8623 172.109 12.5059 172.532 14.1496 172.696C17.6851 173.046 21.2067 173.49 24.7387 173.867C28.4247 174.262 30.6243 177.711 29.3304 181.073C28.9464 182.072 28.259 182.926 27.3647 183.515C26.4703 184.104 25.4139 184.399 24.3436 184.358C22.3992 184.239 20.4583 184.008 18.5279 183.739C17.7271 183.624 17.4473 183.715 17.3739 184.602C17.1395 187.398 16.7933 190.193 16.4891 193.014C16.3772 193.213 16.4262 193.286 16.65 193.213C18.6153 192.419 20.5352 191.507 22.644 191.116C23.5217 190.959 24.4264 191.079 25.2328 191.459C26.0392 191.839 26.7074 192.461 27.1447 193.237C27.6062 194.019 27.8158 194.923 27.7451 195.828C27.6744 196.732 27.3268 197.593 26.7496 198.294C26.1902 198.991 25.4257 199.495 24.5641 199.735C23.7025 199.974 22.7874 199.937 21.948 199.629C20.1995 198.951 18.6888 197.843 17.171 196.767C16.8633 196.55 16.5625 196.326 16.1219 196.019C15.989 197.148 15.8631 198.168 15.7477 199.192C15.1415 204.625 14.5366 210.06 13.9327 215.497C13.8698 216.053 13.8558 216.36 14.6322 216.364C44.7071 216.504 74.782 216.661 104.857 216.836C104.857 217.535 105.367 217.391 105.777 217.391C113.862 217.391 121.948 217.391 130.036 217.391C130.636 217.406 131.223 217.213 131.697 216.846C131.97 217.112 132.306 216.979 132.61 216.979C139.037 217.014 145.466 217.041 151.896 217.059C152.033 217.58 152.459 217.37 152.763 217.374C157.193 217.374 161.623 217.374 166.052 217.374C166.353 217.374 166.703 217.503 166.93 217.164H172.33C172.578 217.538 172.963 217.384 173.288 217.388C179.583 217.388 185.877 217.388 192.151 217.416C193.036 217.416 193.2 217.14 193.183 216.333C193.155 206.328 193.183 196.323 193.162 186.318C193.224 186.005 193.172 185.68 193.015 185.402L181.408 190.798C181.195 190.882 180.974 190.952 180.765 191.046C179.485 191.626 179.366 191.577 178.841 190.309C176.183 183.669 173.523 177.03 170.861 170.39C170.79 170.066 170.632 169.767 170.403 169.527C170.329 169.642 170.28 169.684 170.277 169.729C169.913 173.874 169.553 178.018 169.196 182.163C168.997 184.452 168.815 186.741 168.598 189.03C168.483 190.242 168.392 190.302 167.199 190.26C167.084 190.26 166.969 190.26 166.85 190.26C164.285 190.008 161.712 189.757 159.132 189.505L146.892 188.324C143.51 187.999 140.128 187.656 136.75 187.342C133.83 187.069 130.907 186.821 127.983 186.566C127.904 186.53 127.82 186.504 127.735 186.486C125.86 186.196 125.818 186.192 125.986 184.267C126.528 178.385 127.105 172.508 127.665 166.626C128.154 161.468 128.643 156.312 129.13 151.156C129.13 151.069 129.13 150.981 129.13 150.894C129.267 149.056 129.267 149.056 127.452 149.056H34.3907C32.9149 149.056 32.9009 149.056 32.9009 147.525V1.33841C32.9009 0.066402 32.9673 0 34.2333 0H171.921C173.221 0 173.249 0.0314397 173.249 1.32092C173.249 27.1455 173.242 52.9713 173.228 78.7982C173.228 79.7103 173.438 80.0877 174.34 80.4511C180.446 82.8973 186.507 85.4553 192.585 87.9749C193.928 88.534 195.292 89.0546 196.61 89.6662C197.218 89.9492 197.435 89.8165 197.691 89.2364C199.943 84.1903 202.237 79.1721 204.482 74.1121C205.954 70.7713 207.885 67.7729 210.605 65.2709C209.612 64.5021 209.046 63.5585 209.28 62.304C209.556 60.8118 210.616 59.9906 212.28 59.9172C213.469 59.8683 213.459 59.8683 213.368 58.6627C213.281 57.5305 213.204 56.3982 213.158 55.266C213.166 55.0824 213.114 54.9012 213.008 54.7507C212.902 54.6002 212.75 54.489 212.574 54.4343C206.528 51.7261 203.482 46.9945 203.156 40.4352C203.151 40.4063 203.151 40.3767 203.156 40.3479C203.681 38.681 202.772 37.6256 201.604 36.6681C201.412 36.4903 201.232 36.3 201.065 36.0985C200.408 35.3996 200.411 35.1655 201.125 34.5434C202.373 33.4532 203.601 32.3314 204.898 31.297C205.492 30.8363 205.907 30.1823 206.07 29.4484C206.419 28.0506 206.926 26.7332 207.965 25.6778L207.65 29.3086C207.379 29.7555 207.211 30.2567 207.157 30.7764C206.902 32.262 206.421 33.6998 205.73 35.0397C205.158 36.1896 204.812 37.4389 204.713 38.7194C204.013 45.2262 207.479 50.9258 213.62 53.3266C214.204 53.5572 214.508 53.8647 214.536 54.5217C214.595 56.0907 214.735 57.6668 214.802 59.2253C214.823 59.6726 214.938 59.8124 215.403 59.8019C219.534 59.7064 223.666 59.6284 227.797 59.5678C228.287 59.5678 228.521 59.4699 228.496 58.8898C228.381 56.2165 228.311 53.5432 228.224 50.8524L229.633 50.461ZM156.96 98.3886L157.079 98.4759C157.079 98.448 157.079 98.413 157.079 98.3921C157.079 98.3711 156.984 98.3326 156.946 98.3921C157.215 98.0985 156.946 97.8574 156.845 97.6163C155.931 94.8624 155.92 91.8894 156.811 89.1285C157.703 86.3676 159.452 83.9622 161.803 82.2613C163.343 81.1846 165.054 80.3754 166.864 79.8675C166.419 79.6429 165.949 79.4706 165.465 79.3539C161.81 78.5187 158.163 77.645 154.491 76.8902C150.085 75.9781 145.601 75.751 141.111 75.7789C137.964 75.7789 134.816 75.9641 131.743 76.684C130.519 76.9706 129.319 77.327 128.298 78.0818C127.843 78.4313 127.49 78.8436 127.577 79.4796C127.665 80.1157 128.13 80.4092 128.665 80.6049C129.404 80.875 130.18 81.0306 130.966 81.0662C133.697 81.192 136.436 81.2968 139.17 81.4331C140.622 81.5065 142.073 81.6253 143.528 81.7266C143.954 81.7581 144.259 81.9503 144.255 82.4255C144.258 82.5199 144.242 82.6139 144.208 82.7021C144.175 82.7903 144.124 82.871 144.059 82.9395C143.994 83.008 143.916 83.0631 143.83 83.1014C143.743 83.1397 143.65 83.1606 143.556 83.1629C143.44 83.1804 143.325 83.1839 143.206 83.1978C139.768 83.5962 136.317 83.8967 132.949 84.7599C131.55 85.1093 130.186 85.4972 128.997 86.3324C128.448 86.7168 128.036 87.2305 128.14 87.9399C128.235 88.5829 128.752 88.8799 129.326 89.0931C130.291 89.4228 131.3 89.6031 132.32 89.6278C136.436 89.827 140.52 89.4251 144.608 89.0092C145.119 88.9568 145.636 88.8485 145.846 89.4775C146.056 90.1065 145.531 90.2777 145.147 90.5259C143.629 91.4484 142.101 92.3465 140.601 93.29C139.226 94.1151 137.953 95.0979 136.806 96.2184C136.306 96.7252 135.775 97.2668 136.107 98.13C136.439 98.9931 137.177 99.2902 138.065 99.2692C138.589 99.2652 139.11 99.2066 139.621 99.0945C141.476 98.5932 143.293 97.9638 145.059 97.2109C147.941 96.0892 150.858 95.7956 153.837 96.844C154.946 97.2528 155.9 97.9238 156.96 98.3886ZM203.052 217.335C203.226 217.335 203.401 217.356 203.576 217.356C224.26 217.468 244.945 217.585 265.632 217.706C266.471 217.706 266.597 217.447 266.597 216.696C266.576 200.132 266.57 183.568 266.58 167.004C266.58 164.966 266.597 162.929 266.559 160.892C266.556 159.489 266.212 158.109 265.555 156.87C265.408 156.551 265.166 156.285 264.863 156.108C264.559 155.931 264.209 155.852 263.859 155.881C262.754 155.93 261.649 155.919 260.54 155.919L211.682 155.891C210.728 155.891 210.724 155.891 211.095 156.768C213.336 162.038 215.564 167.318 217.841 172.574C218.19 173.409 218.148 173.951 217.292 174.321C217.103 174.395 216.907 174.458 216.725 174.541C209.607 177.803 202.49 181.065 195.372 184.326C194.732 184.62 194.561 184.969 194.561 185.64C194.582 195.891 194.582 206.141 194.561 216.392C194.561 216.567 194.561 216.741 194.561 216.916C194.561 217.231 194.662 217.416 195.005 217.412C197.701 217.37 200.376 217.51 203.052 217.335ZM134.68 82.9252V82.7156L133.708 82.6702C131.879 82.5828 130.032 82.5828 128.27 81.9957C127.112 81.6078 126.294 80.8774 126.172 79.5775C126.049 78.2775 126.689 77.4109 127.728 76.7819C128.67 76.1967 129.701 75.7693 130.781 75.5168C137.373 73.9723 144.024 74.3322 150.683 74.9018C154.327 75.2128 157.81 76.2996 161.373 77.0265C163.734 77.5017 166.168 77.7848 168.308 78.9904C169.193 79.4806 170.188 79.7379 171.2 79.7382C171.795 79.7382 171.851 79.5845 171.851 79.0848C171.851 58.9073 171.851 38.7299 171.851 18.5525C171.851 17.9479 171.644 17.8536 171.109 17.8536C169.186 17.878 167.262 17.8536 165.339 17.8536C121.975 17.8536 78.6113 17.8536 35.2474 17.8536C34.4186 17.8536 34.2752 18.1052 34.2752 18.8635C34.2939 61.4572 34.2939 104.054 34.2752 146.655C34.2752 147.564 34.527 147.724 35.3768 147.721C63.7871 147.7 92.1975 147.694 120.608 147.703C123.29 147.703 125.972 147.703 128.651 147.703C129.228 147.703 129.497 147.647 129.553 146.949C129.854 143.265 130.214 139.586 130.602 135.909C130.665 135.329 130.508 135.238 129.98 135.245C127.738 135.27 125.493 135.245 123.252 135.245H120.891C120.363 135.245 119.842 135.196 119.842 134.501C119.842 133.806 120.349 133.802 120.846 133.827C121.048 133.827 121.251 133.827 121.458 133.827C124.343 133.827 127.228 133.827 130.113 133.827C130.613 133.827 130.858 133.729 130.875 133.177C130.903 132.334 130.984 131.489 131.089 130.654C131.155 130.143 130.98 130.007 130.484 130.014C128.676 130.042 126.871 130.014 125.063 130.014H120.604C120.167 130.014 119.863 129.836 119.835 129.368C119.807 128.899 120.09 128.669 120.517 128.613C120.69 128.591 120.864 128.582 121.038 128.588C123.72 128.588 126.399 128.613 129.081 128.588C129.802 128.588 130.718 128.903 131.179 128.442C131.55 128.092 131.393 127.177 131.47 126.513C131.508 126.195 131.515 125.873 131.582 125.559C131.708 124.957 131.442 124.86 130.882 124.86C128.231 124.884 125.581 124.86 122.93 124.86C122.143 124.86 121.356 124.888 120.569 124.86C120.115 124.839 119.786 124.605 119.828 124.084C119.87 123.563 120.178 123.458 120.615 123.455H121.227C124.434 123.455 127.64 123.42 130.844 123.476C131.624 123.476 131.816 123.235 131.872 122.532C132.071 120.086 132.288 117.661 132.571 115.232C132.655 114.512 132.466 114.38 131.784 114.383C125.287 114.408 118.789 114.383 112.292 114.383C111.159 114.383 111.089 114.313 111.089 113.205V90.2882C111.089 89.1805 111.141 89.128 112.299 89.128H126.885C126.451 86.8496 126.931 85.7908 128.906 84.7214C129.917 84.2024 130.985 83.8036 132.089 83.5333C132.966 83.3096 133.827 83.1244 134.68 82.9252ZM217.638 123.692C222.621 123.692 227.601 123.692 232.584 123.71C233.238 123.71 233.466 123.514 233.634 122.889C234.494 119.394 235.473 115.9 236.281 112.405C237.68 106.356 239.883 100.489 239.967 94.1567C240.03 89.2434 240.806 84.344 240.4 79.4167C239.949 73.9129 237.732 69.2826 233.406 65.7881C233.026 65.4378 232.525 65.2475 232.007 65.2569C225.773 65.4246 219.539 65.5679 213.305 65.6867C212.637 65.6885 211.997 65.952 211.521 66.4206C209.229 68.5446 207.405 71.1224 206.164 73.9897C203.644 79.5111 201.142 85.0523 198.659 90.6132C198.17 91.7035 198.009 91.7699 196.869 91.3121C189.207 88.1426 181.565 84.9206 173.872 81.8245C168.745 79.7592 162.293 82.0656 159.443 86.8147C155.425 93.4997 158.044 101.659 165.287 104.71C176.579 109.463 187.902 114.145 199.208 118.818C202.019 120.042 205.193 120.138 208.073 119.087C211.427 117.885 213.777 115.592 215.326 112.416C219.756 103.344 224.186 94.2755 228.615 85.2107C228.756 84.8933 228.93 84.5921 229.136 84.3126C229.227 84.1937 229.36 84.115 229.508 84.0935C229.656 84.0719 229.806 84.1092 229.927 84.1973C230.077 84.2595 230.198 84.3776 230.263 84.5269C230.328 84.6761 230.333 84.8448 230.276 84.9975C230.189 85.2143 230.091 85.4266 229.983 85.6335L216.536 113.149C215.893 114.587 214.996 115.897 213.889 117.018C209.416 121.26 204.251 122.403 198.523 120.055C187.157 115.4 175.841 110.637 164.5 105.923C162.972 105.335 161.589 104.425 160.447 103.253C159.236 101.92 157.861 100.746 156.355 99.7584C153.757 98.0775 151.008 97.2074 147.906 97.8853C146.081 98.2837 144.377 99.056 142.629 99.692C141.038 100.272 139.433 100.789 137.709 100.712C137.58 100.708 137.452 100.738 137.339 100.8C137.226 100.861 137.132 100.952 137.065 101.062C136.07 102.248 135.379 103.659 135.051 105.171C134.624 107.317 134.547 109.505 134.334 111.675C133.704 118.133 133.084 124.592 132.473 131.052C131.863 137.512 131.26 143.942 130.665 150.342C130.113 156.164 129.539 161.982 128.98 167.814C128.459 173.231 127.962 178.647 127.417 184.057C127.34 184.833 127.441 185.154 128.333 185.235C141.034 186.4 153.733 187.588 166.43 188.799C167.081 188.862 167.199 188.677 167.248 188.1C167.715 182.474 168.196 176.848 168.693 171.222C169.691 159.771 170.695 148.32 171.707 136.867C171.749 136.686 171.719 136.497 171.626 136.337C171.532 136.178 171.381 136.059 171.204 136.007C170.504 135.71 169.805 135.406 169.144 135.067C169.053 135.035 168.971 134.983 168.903 134.914C168.835 134.846 168.784 134.763 168.752 134.672C168.721 134.581 168.71 134.485 168.721 134.389C168.732 134.294 168.764 134.202 168.815 134.12C168.851 134.031 168.905 133.951 168.975 133.886C169.045 133.82 169.129 133.771 169.22 133.742C169.311 133.712 169.408 133.703 169.503 133.716C169.598 133.728 169.689 133.761 169.77 133.813C169.952 133.9 170.14 133.98 170.326 134.064L192.274 143.982C193.207 144.405 193.211 144.398 193.211 143.335V134.295C193.167 133.042 193.342 131.791 193.728 130.598C195.253 126.38 198.88 123.741 203.366 123.696C208.136 123.658 212.889 123.692 217.638 123.692ZM230.448 154.479C240.355 154.479 250.262 154.444 260.173 154.504C262.575 154.504 264.306 152.928 264.852 150.768C269.352 132.96 273.88 115.16 278.438 97.3682C278.683 96.6217 278.781 95.835 278.728 95.0513C278.344 92.1089 276.385 90.3581 273.409 90.3546C265.716 90.3407 258.022 90.3407 250.329 90.3546C245.873 90.3546 242.715 92.8392 241.607 97.176C239.334 106.08 237.067 114.984 234.805 123.888C234.585 124.762 234.19 125.059 233.301 125.052C226.657 125.024 220.012 125.052 213.368 125.052C209.986 125.052 206.605 124.968 203.226 125.09C198.257 125.272 194.662 128.969 194.589 133.938C194.519 138.771 194.533 143.604 194.589 148.437C194.627 152.079 196.977 154.458 200.635 154.472C210.577 154.511 220.512 154.479 230.448 154.479ZM323.418 218.059H323.942C332.538 218.059 341.134 218.059 349.73 218.059C355.864 218.059 360.046 212.649 358.354 206.876C355.626 197.556 352.965 188.209 350.01 178.959C347.971 172.581 343.365 168.657 336.902 166.941C336.28 166.777 336.039 166.899 336.039 167.64C336.039 171.337 336.004 175.034 335.972 178.731C335.972 179.846 335.797 180.014 334.717 180.014H311.986C310.937 180.014 310.783 179.871 310.783 178.794C310.783 175.125 310.783 171.457 310.783 167.79C310.783 166.784 310.783 166.766 309.765 167.039C303.009 168.873 298.543 173.14 296.508 179.808C293.776 188.736 291.178 197.7 288.517 206.649C288.028 208.212 287.967 209.877 288.338 211.472C289.272 215.392 292.804 218.087 297.099 218.09C305.876 218.079 314.649 218.068 323.418 218.059ZM103.101 16.4243C125.651 16.4243 148.201 16.4243 170.752 16.4243C171.588 16.4243 171.875 16.295 171.861 15.3759C171.802 11.0707 171.809 6.76192 171.861 2.44617C171.861 1.59001 171.693 1.35238 170.791 1.35238C131.225 1.38034 91.6589 1.3885 52.0929 1.37685C46.4731 1.37685 40.8498 1.37685 35.2265 1.35588C34.4257 1.35588 34.2858 1.5865 34.2928 2.32385C34.3277 6.66057 34.3347 10.9973 34.2928 15.334C34.2928 16.1937 34.4641 16.4348 35.3698 16.4348C57.954 16.4231 80.5347 16.4243 103.112 16.4383L103.101 16.4243ZM196.229 154.514C194.005 152.816 193.029 150.572 193.256 147.917C193.389 146.365 192.847 145.663 191.424 145.051C185.556 142.521 179.75 139.851 173.938 137.202C173.239 136.884 173.082 137.003 173.036 137.751C172.9 139.869 172.686 141.983 172.504 144.097C171.889 151.17 171.269 158.242 170.644 165.312C170.606 165.717 170.667 166.125 170.822 166.501C173.853 174.021 176.865 181.546 179.859 189.075C180.121 189.725 180.362 189.711 180.908 189.449C184.755 187.653 188.613 185.88 192.483 184.13C192.713 184.056 192.909 183.903 193.037 183.699C193.165 183.494 193.217 183.251 193.183 183.012C193.162 176.086 193.162 169.16 193.183 162.234C193.171 161.39 193.225 160.546 193.344 159.711C193.672 157.708 194.092 155.688 196.239 154.528L196.229 154.514ZM141.569 90.7635L139.079 90.9592C136.201 91.1828 133.323 91.3086 130.456 90.8718C129.714 90.7635 128.99 90.3861 128.259 90.3791C123.133 90.3372 118.009 90.3616 112.872 90.3476C112.428 90.3476 112.274 90.4525 112.274 90.9242C112.288 98.1463 112.288 105.368 112.274 112.59C112.274 113.076 112.404 113.237 112.907 113.237C119.314 113.218 125.725 113.218 132.141 113.237C132.596 113.237 132.809 113.153 132.841 112.632C132.984 110.689 133.19 108.75 133.365 106.81C133.561 104.56 134.204 102.477 135.614 100.681C135.89 100.332 135.824 100.146 135.537 99.8423C134.281 98.5144 134.229 97.3577 135.313 95.8655C135.73 95.3044 136.21 94.7931 136.743 94.3419C138.247 93.0314 139.964 92.053 141.569 90.7635ZM194.582 183.019C194.826 183.124 194.973 182.995 195.124 182.925C202.069 179.731 209.007 176.519 215.966 173.346C216.55 173.081 216.382 172.822 216.215 172.434C213.969 167.169 211.731 161.899 209.5 156.625C209.439 156.393 209.296 156.191 209.097 156.057C208.899 155.922 208.658 155.865 208.42 155.895C204.87 155.926 201.317 155.895 197.767 155.895C196.215 155.895 195.764 156.244 195.218 157.726C194.754 159.106 194.539 160.558 194.582 162.013V183.002V183.019ZM323.446 166.521C320.008 166.521 316.57 166.521 313.133 166.521C312.514 166.521 312.286 166.644 312.293 167.329C312.332 170.795 312.321 174.258 312.293 177.721C312.293 178.274 312.412 178.462 312.993 178.462C319.901 178.441 326.805 178.441 333.706 178.462C334.297 178.462 334.405 178.284 334.405 177.732C334.419 174.268 334.46 170.805 334.528 167.343C334.528 166.689 334.378 166.507 333.727 166.514C330.321 166.528 326.883 166.511 323.446 166.511V166.521ZM312.444 164.914H334.346C332.905 159.04 328.751 155.591 323.323 155.685C317.752 155.776 313.619 159.267 312.444 164.903V164.914ZM23.4763 182.799C25.7599 183.005 27.1377 182.25 27.8546 180.615C28.1747 179.875 28.2482 179.052 28.0643 178.268C27.8805 177.483 27.449 176.778 26.8335 176.257C26.0152 175.558 25.001 175.412 23.9904 175.296C19.4441 174.786 14.8979 174.297 10.3762 173.783C9.82548 173.736 9.27117 173.81 8.75174 173.998C8.23231 174.187 7.76021 174.487 7.36823 174.876C6.97625 175.265 6.67375 175.735 6.4818 176.253C6.28984 176.771 6.213 177.325 6.25661 177.875C6.48392 179.888 7.75687 181.045 10.2013 181.328C14.737 181.845 19.2798 182.327 23.4763 182.789V182.799ZM222.286 64.2959V64.0023C223.128 64.0023 223.971 64.0023 224.817 64.0023C227.29 63.9569 229.762 63.9115 232.235 63.8346C233.49 63.7962 234.214 62.6919 233.658 61.689C233.308 61.032 232.647 60.8643 231.937 60.8817C230.427 60.9237 228.912 60.9691 227.391 61.0041C222.418 61.1159 217.443 61.2242 212.466 61.329C211.892 61.329 211.354 61.4024 210.997 61.9161C210.824 62.115 210.711 62.3587 210.671 62.619C210.631 62.8793 210.665 63.1456 210.77 63.3873C211.119 64.1212 211.749 64.3029 212.501 64.3029C215.767 64.2784 219.026 64.2854 222.286 64.2854V64.2959ZM241.383 93.9295C242.883 91.5742 244.782 90.0855 247.251 89.3866C248.017 89.1805 247.905 88.9393 247.601 88.4117C245.95 85.5392 244.324 82.6527 242.705 79.7697C242.439 79.3049 242.17 78.8401 241.904 78.3719C242.292 83.5193 241.551 88.5934 241.383 93.9191V93.9295ZM14.1146 194.439C12.4535 193.199 10.8937 192.039 9.1417 191.179C7.82331 190.536 6.52239 190.746 5.64462 191.717C5.2301 192.167 4.96469 192.735 4.88459 193.341C4.80448 193.948 4.9136 194.564 5.19703 195.107C5.48559 195.685 5.96548 196.145 6.55518 196.409C7.14487 196.674 7.80799 196.726 8.43183 196.557C10.3762 196.11 12.2052 195.309 14.1146 194.429V194.439ZM16.9857 194.75C18.7062 196.05 20.3499 197.294 22.2313 198.143C22.7786 198.393 23.3919 198.461 23.9803 198.335C24.5687 198.209 25.1008 197.897 25.4976 197.445C25.9026 196.983 26.1538 196.407 26.2165 195.797C26.2792 195.186 26.1501 194.571 25.8473 194.037C25.5663 193.504 25.1203 193.076 24.5758 192.816C24.0313 192.557 23.4174 192.48 22.8258 192.598C20.8325 193.003 18.9475 193.831 16.9857 194.75ZM203.685 36.5912C203.975 35.466 204.464 34.4176 204.832 33.3169C204.343 33.6516 203.875 34.0169 203.433 34.4107C202.251 35.459 202.251 35.459 203.433 36.5074C203.514 36.54 203.598 36.5646 203.685 36.5808V36.5912Z" fill="white"/>
<path d="M166.933 217.171C166.706 217.521 166.356 217.377 166.055 217.381C161.626 217.381 157.196 217.381 152.766 217.381C152.462 217.381 152.035 217.587 151.899 217.066V205.608L131.7 216.853C131.225 217.22 130.639 217.413 130.039 217.398C121.953 217.384 113.867 217.384 105.779 217.398C105.37 217.398 104.853 217.545 104.86 216.843C104.86 212.978 105.972 209.504 108.616 206.604C110.152 204.829 112.14 203.501 114.368 202.76C118.355 201.505 121.327 198.972 123.772 195.704C125.791 192.987 127.237 189.887 128.021 186.594C130.944 186.849 133.868 187.097 136.788 187.37C140.17 187.684 143.551 188.027 146.93 188.352L159.169 189.533C161.734 189.782 164.307 190.034 166.888 190.288C166.888 197.591 166.898 204.894 166.919 212.195C166.894 213.855 166.919 215.511 166.933 217.171Z" fill="#FFA600"/>
<path d="M207.646 29.3087L207.961 25.6778C209.176 23.9138 210.752 22.4278 212.584 21.3181C214.417 20.2085 216.465 19.5004 218.592 19.2409C219.801 19.0487 221.033 19.0487 222.243 19.2409C222.844 19.3457 223.019 19.1675 223.023 18.542C222.998 15.6057 223.962 12.7464 225.758 10.4226C227.555 8.09893 230.08 6.4455 232.93 5.72755C240.155 3.80206 247.572 8.38338 249.209 15.7778C250.786 22.9206 245.96 30.1718 238.756 31.5032C237.811 31.6735 236.851 31.7449 235.892 31.7164C234.706 30.6016 234.696 30.5946 233.542 31.7863C231.999 33.332 230.553 34.9717 229.212 36.6961C227.618 38.7928 226.023 40.935 225.415 43.5978C224.929 45.726 225.764 47.3195 227.726 47.9415C228.343 48.1741 229.008 48.2455 229.66 48.1489C230.312 48.0522 230.928 47.7908 231.451 47.3894C231.594 47.281 231.706 47.0399 231.958 47.1972C231.477 48.4704 230.675 49.5974 229.629 50.468L228.212 50.8734C227.836 50.8468 227.463 50.7895 227.097 50.7022C223.239 49.4774 219.601 47.6467 216.319 45.2787L217.078 44.8628C219.253 43.6991 220.47 41.896 220.575 39.4288C220.704 36.8009 219.526 34.8125 217.315 33.4881C214.763 31.9645 210.604 32.3035 208.412 36.0077C207.838 33.8227 207.58 31.5668 207.646 29.3087Z" fill="#FFA600"/>
<path d="M314.727 1.05186C330.813 1.0903 343.969 14.2367 343.885 30.2487C343.88 34.0806 343.12 37.8739 341.647 41.4121C340.175 44.9503 338.02 48.164 335.304 50.8698C332.589 53.5756 329.367 55.7205 325.822 57.1821C322.277 58.6436 318.479 59.3931 314.645 59.3878C310.81 59.3826 307.014 58.6226 303.473 57.1513C299.932 55.68 296.716 53.5263 294.008 50.813C291.301 48.0997 289.154 44.88 287.692 41.3378C286.229 37.7956 285.479 34.0002 285.484 30.1683C285.467 14.083 298.675 1.01342 314.727 1.05186ZM314.671 2.48111C299.406 2.62089 286.939 14.712 286.942 30.2347C286.942 45.9007 299.738 57.9463 314.699 57.9394C329.736 57.9394 342.452 45.7959 342.431 30.2102C342.41 14.6246 329.824 2.58595 314.671 2.48111Z" fill="white"/>
<path d="M231.961 47.1937C231.709 47.0329 231.612 47.2776 231.454 47.3859C230.932 47.7873 230.315 48.0488 229.664 48.1454C229.012 48.242 228.346 48.1706 227.73 47.938C225.775 47.316 224.932 45.7225 225.418 43.5943C226.027 40.9315 227.621 38.8068 229.216 36.6926C230.556 34.9683 232.002 33.3285 233.545 31.7828C234.699 30.5912 234.71 30.5982 235.895 31.7129C237.735 33.8096 239.644 35.8364 241.169 38.1883C242.285 39.9006 243.267 41.6584 243.582 43.7271C243.672 44.3011 243.64 44.8877 243.488 45.4484C243.336 46.0092 243.067 46.5316 242.699 46.9814C242.331 47.4313 241.872 47.7985 241.352 48.0591C240.833 48.3196 240.264 48.4677 239.683 48.4936C238.148 48.5426 237.21 47.606 236.507 46.3969C235.521 44.7335 235.109 42.8605 234.678 40.893C234.063 43.0177 233.556 45.0865 232.192 46.7743C232.049 46.8757 231.842 46.9316 231.961 47.1902V47.1937ZM234.011 33.3833C231.882 35.5153 229.99 37.8702 228.366 40.4073C227.634 41.4586 227.103 42.6363 226.799 43.8809C226.548 45.1599 226.8 45.8832 227.705 46.348C228.898 46.9596 230.111 46.8058 230.923 45.9741C231.972 44.8908 232.454 43.5279 232.839 42.1301C233.605 39.3275 233.878 36.469 234.011 33.3833ZM235.637 33.4776C235.485 36.7031 235.832 39.9327 236.665 43.0527C236.976 44.2233 237.333 45.4045 238.183 46.348C238.882 47.1308 239.557 47.288 240.515 46.8582C242.05 46.1768 242.585 45.0446 242.04 43.182C240.931 39.3799 238.259 36.5913 235.637 33.4776Z" fill="white"/>
<path d="M316.07 105.724C315.671 105.724 315.639 105.374 315.521 105.137C314.384 102.851 313.241 100.566 312.128 98.2663C311.94 97.8914 311.851 97.4744 311.871 97.0554C311.89 96.6363 312.017 96.2293 312.24 95.8735C312.462 95.5177 312.772 95.2249 313.14 95.0234C313.509 94.8219 313.922 94.7184 314.342 94.7228H317.395C319.311 94.7228 320.469 96.4352 319.7 98.2174C319.105 99.6152 318.36 100.919 317.706 102.282C317.154 103.428 316.486 104.521 316.056 105.727L316.07 105.724Z" fill="white"/>
<path d="M316.056 105.734C318.21 104.85 320.228 103.686 322.326 102.687C322.823 102.453 323.316 102.198 323.83 101.988C324.145 101.873 324.482 101.827 324.817 101.852C325.151 101.878 325.477 101.976 325.771 102.138C325.974 102.224 326.145 102.371 326.26 102.559C326.375 102.747 326.428 102.967 326.411 103.187C326.39 104.962 326.383 106.737 326.411 108.509C326.411 109.096 326.201 109.208 325.652 109.25C323.662 109.389 321.805 109.12 320.056 108.02C318.979 107.338 317.776 106.859 316.636 106.272C316.395 106.15 316.049 106.115 316.052 105.724L316.056 105.734Z" fill="white"/>
<path d="M231.961 47.2042C231.825 46.9456 232.049 46.8897 232.192 46.7883C232.23 46.991 232.196 47.1517 231.961 47.2042Z" fill="white"/>
<path d="M217.291 174.335L228.275 196.627C228.975 198.06 229.674 199.503 230.398 200.925C230.618 201.358 230.664 201.596 230.132 201.851C226.041 203.815 221.961 205.802 217.893 207.813C217.326 208.092 217.151 207.893 216.931 207.425C215.487 204.378 214.018 201.345 212.559 198.304C212.423 198.021 212.276 197.742 212.126 197.438C211.776 197.735 211.675 198.137 211.514 198.51C208.786 204.514 206.067 210.519 203.355 216.525C203.236 216.787 203.149 217.066 203.047 217.335C200.369 217.51 197.693 217.37 195.004 217.412C194.654 217.412 194.546 217.231 194.56 216.916C194.56 216.741 194.56 216.567 194.56 216.392C194.56 206.141 194.56 195.891 194.56 185.64C194.56 184.969 194.731 184.62 195.371 184.326C202.498 181.083 209.616 177.822 216.725 174.541C216.906 174.482 217.102 174.409 217.291 174.335Z" fill="#FFA600"/>
<path d="M172.333 217.185C172.333 215.403 172.43 213.649 173.074 211.943C174.074 209.303 176.019 207.127 178.533 205.838C179.682 205.209 180.895 204.705 182.152 204.336C183.45 203.958 184.097 202.77 183.796 201.428C182.999 197.887 182.204 194.347 181.411 190.808L193.018 185.413C193.175 185.691 193.227 186.016 193.165 186.328C193.165 196.333 193.165 206.338 193.186 216.343C193.186 217.15 193.039 217.433 192.154 217.426C185.859 217.384 179.564 217.405 173.291 217.398C172.965 217.405 172.581 217.559 172.333 217.185Z" fill="#FFA600"/>
<path d="M156.945 98.4095C156.984 98.3326 157.029 98.3256 157.078 98.4095C157.127 98.4934 157.078 98.4654 157.078 98.4934L156.959 98.406L156.945 98.4095Z" fill="white"/>
<path d="M16.6458 193.206C16.422 193.279 16.373 193.206 16.4849 193.007L16.6458 193.206Z" fill="white"/>
<path d="M14.4252 196.012L14.5441 195.921L14.565 196.138L14.4252 196.012Z" fill="white"/>
<path d="M216.322 45.2752C216.22 45.2894 216.116 45.2822 216.017 45.254C215.917 45.2259 215.825 45.1774 215.745 45.1117C215.666 45.046 215.601 44.9644 215.554 44.8723C215.508 44.7801 215.481 44.6793 215.476 44.5763C215.396 44.0206 215.847 43.8774 216.245 43.6712C218.078 42.7766 219.096 41.2984 219.183 39.2716C219.245 38.365 219.048 37.4595 218.614 36.6607C218.181 35.8619 217.529 35.2027 216.735 34.7601C214.402 33.3309 211.531 34.0402 209.863 36.4375C209.622 36.7869 209.381 37.1364 208.895 36.9792C208.795 36.9508 208.703 36.9013 208.624 36.834C208.546 36.7667 208.483 36.6832 208.439 36.5892C208.396 36.4953 208.374 36.3931 208.374 36.2897C208.374 36.1863 208.397 36.0841 208.44 35.9902C210.633 32.286 214.791 31.947 217.344 33.4706C219.571 34.7951 220.732 36.7835 220.603 39.4113C220.48 41.8785 219.263 43.6817 217.106 44.8454L216.322 45.2752Z" fill="white"/>
<path d="M234.01 33.3833C233.878 36.4689 233.605 39.324 232.839 42.1196C232.454 43.5174 231.979 44.8978 230.923 45.9636C230.111 46.7953 228.898 46.9491 227.705 46.3375C226.799 45.8727 226.548 45.1494 226.799 43.8704C227.103 42.6258 227.634 41.4481 228.366 40.3968C229.99 37.8634 231.883 35.512 234.01 33.3833Z" fill="#FFA600"/>
<path d="M75.7954 78.648C66.5596 78.648 57.3273 78.648 48.0915 78.648C47.3151 78.648 47.1403 78.4523 47.1403 77.6905C47.1659 62.4077 47.1659 47.1273 47.1403 31.8492C47.1403 31.0385 47.3851 30.9126 48.1195 30.9126C66.5864 30.9289 85.0533 30.9289 103.52 30.9126C104.318 30.9126 104.524 31.1118 104.524 31.9121C104.498 47.1622 104.498 62.4135 104.524 77.666C104.524 78.5117 104.248 78.641 103.496 78.641C94.2635 78.6177 85.03 78.6177 75.7954 78.641V78.648Z" fill="#FFA600"/>
<path d="M76.5088 114.788H54.6625C53.477 114.788 53.4176 114.733 53.4176 113.569V90.6132C53.4176 89.5649 53.484 89.488 54.5716 89.488H98.5265C99.6211 89.488 99.705 89.5754 99.705 90.6971V113.572C99.705 114.708 99.6106 114.799 98.4426 114.799L76.5088 114.788ZM76.5088 90.7076C69.489 90.7076 62.4692 90.7076 55.4494 90.7076C54.8199 90.7076 54.5611 90.795 54.5646 91.5323C54.5949 98.575 54.5949 105.618 54.5646 112.66C54.5646 113.485 54.8409 113.586 55.5578 113.583C69.5462 113.564 83.5263 113.564 97.4983 113.583C98.2432 113.583 98.4775 113.433 98.474 112.643C98.4391 105.63 98.4391 98.6169 98.474 91.6022C98.474 90.8753 98.3061 90.6936 97.5753 90.6971C90.5636 90.7181 83.5415 90.7076 76.5228 90.7076H76.5088Z" fill="white"/>
<path d="M138.337 45.5338C141.601 45.5338 144.858 45.5338 148.108 45.5338C148.398 45.5319 148.686 45.5636 148.968 45.6281C149.097 45.6649 149.209 45.7454 149.285 45.8557C149.361 45.966 149.396 46.0993 149.385 46.2327C149.399 46.38 149.359 46.5275 149.272 46.6473C149.185 46.7671 149.057 46.8509 148.912 46.8827C148.682 46.9289 148.448 46.95 148.213 46.9456H128.489C128.255 46.9482 128.021 46.9295 127.79 46.8896C127.65 46.8518 127.526 46.7696 127.437 46.6553C127.348 46.5411 127.299 46.401 127.297 46.2563C127.294 46.1115 127.339 45.9699 127.424 45.8528C127.51 45.7358 127.631 45.6495 127.769 45.6072C128.054 45.5566 128.343 45.532 128.633 45.5338H138.337Z" fill="white"/>
<path d="M138.243 57.3104C134.979 57.3104 131.722 57.3104 128.472 57.3104C128.212 57.3119 127.953 57.2706 127.706 57.1881C127.568 57.1387 127.453 57.0398 127.384 56.9106C127.315 56.7815 127.297 56.6313 127.332 56.4891C127.337 56.3563 127.388 56.2293 127.476 56.1294C127.564 56.0295 127.683 55.9628 127.815 55.9405C128.073 55.909 128.334 55.895 128.594 55.8986H148.65C148.737 55.8929 148.824 55.9045 148.907 55.9328C148.989 55.9611 149.065 56.0055 149.13 56.0634C149.195 56.1213 149.248 56.1915 149.286 56.27C149.323 56.3485 149.345 56.4337 149.35 56.5206C149.359 56.6152 149.349 56.7108 149.321 56.8015C149.292 56.8922 149.245 56.9761 149.183 57.048C149.121 57.12 149.045 57.1785 148.959 57.22C148.873 57.2615 148.78 57.2851 148.685 57.2894C148.513 57.3144 148.338 57.3237 148.164 57.3174L138.243 57.3104Z" fill="white"/>
<path d="M76.7921 130.409H66.8185C66.2834 130.409 65.6574 130.454 65.6959 129.686C65.7344 128.917 66.3533 128.987 66.8849 128.987H86.5525C86.9617 128.987 87.3953 128.987 87.6436 129.382C87.9933 129.93 87.5702 130.43 86.7483 130.43C84.3598 130.43 81.9713 130.43 79.5793 130.43L76.7921 130.409Z" fill="white"/>
<path d="M76.7712 123.853H86.4756C86.709 123.846 86.9427 123.854 87.175 123.878C87.3227 123.887 87.4617 123.951 87.565 124.057C87.6684 124.163 87.7288 124.303 87.7346 124.451C87.7643 124.61 87.7334 124.775 87.648 124.912C87.5626 125.05 87.4288 125.151 87.2729 125.195C86.8763 125.294 86.4645 125.316 86.0594 125.262L66.9164 125.279C66.7412 125.285 66.5658 125.277 66.3918 125.255C65.9792 125.185 65.6714 124.975 65.6924 124.51C65.7134 124.045 66.0141 123.857 66.4583 123.857H76.7712V123.853Z" fill="white"/>
<path d="M138.316 52.1H128.441C127.923 52.1 127.356 52.1 127.339 51.4325C127.339 50.6917 127.913 50.6882 128.465 50.6882H148.479C148.982 50.6882 149.378 50.8734 149.371 51.4081C149.364 51.9427 148.958 52.107 148.454 52.107C145.919 52.107 143.384 52.107 140.848 52.107L138.316 52.1Z" fill="white"/>
<path d="M76.6733 135.602H66.9724C66.7113 135.616 66.4494 135.599 66.1925 135.549C66.0322 135.516 65.891 135.423 65.7984 135.288C65.7058 135.153 65.6691 134.987 65.696 134.826C65.6987 134.678 65.754 134.536 65.852 134.425C65.9501 134.314 66.0844 134.242 66.231 134.221C66.4629 134.192 66.697 134.184 66.9304 134.197H86.5141C86.7475 134.184 86.9816 134.192 87.2135 134.221C87.36 134.242 87.4944 134.314 87.592 134.425C87.6896 134.536 87.7439 134.678 87.7451 134.826C87.7739 134.987 87.7384 135.153 87.6463 135.288C87.5541 135.423 87.4126 135.517 87.252 135.549C86.9657 135.599 86.6748 135.616 86.3847 135.602H76.6733Z" fill="white"/>
<path d="M323.295 191.476C326.208 191.476 329.121 191.476 332.037 191.476C334.254 191.476 336.038 192.367 337.283 194.24C337.711 194.893 338.001 195.627 338.135 196.396C338.27 197.165 338.245 197.954 338.063 198.713C337.496 201.554 336.895 204.395 336.143 207.191C335.443 209.84 333.38 211.175 331.202 211.213C326.05 211.304 320.892 211.318 315.741 211.213C312.992 211.157 311.114 209.176 310.495 206.6C309.908 204.154 309.446 201.669 308.796 199.234C307.963 196.047 309.383 193.366 311.653 192.126C312.63 191.647 313.713 191.422 314.8 191.472L323.295 191.476ZM323.26 193.052C320.203 193.052 317.147 193.052 314.087 193.052C311.726 193.052 310.149 195.264 310.121 197.095C310.104 198.203 310.422 199.237 310.663 200.293C311.139 202.347 311.593 204.409 312.062 206.461C312.478 208.208 314.122 209.773 316.175 209.696C317.948 209.63 319.724 209.696 321.501 209.696C324.676 209.696 327.851 209.696 331.023 209.672C332.67 209.651 334.38 208.351 334.727 206.845C335.353 204.14 335.944 201.421 336.475 198.692C336.598 198.063 336.793 197.42 336.657 196.728C336.164 194.251 334.209 193.014 331.981 193.038C329.1 193.076 326.173 193.052 323.26 193.052Z" fill="white"/>
<path d="M323.504 182.072H334.695C334.901 182.072 335.104 182.072 335.307 182.072C335.41 182.065 335.513 182.079 335.61 182.114C335.706 182.15 335.794 182.205 335.868 182.277C335.941 182.35 335.999 182.436 336.036 182.532C336.073 182.628 336.089 182.731 336.083 182.834C336.083 183.323 335.776 183.561 335.314 183.606C335.11 183.617 334.906 183.617 334.702 183.606H312.17C311.909 183.617 311.647 183.606 311.387 183.571C311.212 183.548 311.051 183.459 310.939 183.322C310.827 183.185 310.771 183.011 310.782 182.834C310.773 182.738 310.784 182.642 310.814 182.55C310.843 182.459 310.892 182.375 310.956 182.303C311.02 182.231 311.098 182.173 311.186 182.133C311.273 182.092 311.368 182.071 311.464 182.069C311.698 182.069 311.929 182.069 312.163 182.069L323.504 182.072Z" fill="white"/>
<path d="M56.3866 6.14687C57.1286 6.14687 57.8402 6.44141 58.3649 6.96569C58.8895 7.48997 59.1843 8.20105 59.1843 8.9425C59.1447 9.65952 58.8434 10.3372 58.3375 10.8472C57.8317 11.3572 57.1562 11.6643 56.439 11.7102C55.7025 11.7102 54.9956 11.42 54.4718 10.9025C53.9481 10.385 53.6497 9.68198 53.6414 8.946C53.6353 8.58145 53.7018 8.21935 53.837 7.88068C53.9721 7.54202 54.1732 7.23353 54.4286 6.97314C54.684 6.71274 54.9886 6.50563 55.3247 6.36379C55.6608 6.22195 56.0218 6.14821 56.3866 6.14687Z" fill="white"/>
<path d="M45.9303 8.86564C45.9379 8.50356 46.0167 8.14651 46.1624 7.81489C46.3081 7.48327 46.5177 7.18357 46.7793 6.9329C47.0408 6.68222 47.3492 6.48549 47.6869 6.35392C48.0246 6.22236 48.3848 6.15853 48.7472 6.1661C49.1095 6.17367 49.4668 6.25249 49.7987 6.39805C50.1306 6.54361 50.4305 6.75305 50.6813 7.01444C50.9322 7.27582 51.1291 7.58401 51.2608 7.92143C51.3924 8.25884 51.4563 8.61889 51.4487 8.98097C51.4076 9.70055 51.097 10.3783 50.5786 10.8795C50.0603 11.3806 49.3721 11.6685 48.651 11.6857C47.9182 11.6656 47.2225 11.3589 46.7137 10.8315C46.2049 10.3041 45.9236 9.59818 45.9303 8.86564Z" fill="white"/>
<path d="M38.2298 8.92503C38.2153 8.5592 38.2748 8.19421 38.4046 7.85185C38.5344 7.50948 38.7319 7.19676 38.9853 6.93233C39.2387 6.66791 39.5428 6.4572 39.8795 6.31279C40.2162 6.16839 40.5785 6.09323 40.9449 6.09182C41.3113 6.09042 41.6742 6.16277 42.0119 6.30458C42.3497 6.44639 42.6555 6.65476 42.9109 6.91723C43.1663 7.1797 43.3662 7.49091 43.4987 7.83227C43.6311 8.17362 43.6934 8.53814 43.6817 8.90407C43.6962 9.2699 43.6367 9.63488 43.5069 9.97725C43.3771 10.3196 43.1796 10.6324 42.9262 10.8968C42.6728 11.1612 42.3687 11.3719 42.032 11.5163C41.6954 11.6607 41.333 11.7359 40.9666 11.7373C40.6002 11.7387 40.2373 11.6663 39.8996 11.5245C39.5618 11.3827 39.2561 11.1744 39.0006 10.9119C38.7452 10.6494 38.5453 10.3382 38.4128 9.99685C38.2804 9.65549 38.2182 9.29096 38.2298 8.92503Z" fill="white"/>
<path d="M213.787 39.2156C214.409 39.5651 214.902 39.7992 215.375 40.0753C215.469 40.115 215.554 40.1749 215.623 40.251C215.692 40.327 215.743 40.4172 215.773 40.5153C215.803 40.6133 215.811 40.7168 215.797 40.8183C215.782 40.9198 215.745 41.0169 215.689 41.1027C215.645 41.1865 215.582 41.2597 215.507 41.3171C215.431 41.3746 215.344 41.415 215.251 41.4356C215.159 41.4562 215.063 41.4565 214.97 41.4364C214.877 41.4163 214.79 41.3764 214.714 41.3194C213.794 40.8301 212.853 40.3793 211.954 39.8587C211.3 39.4812 211.318 38.8557 211.986 38.5132C213.269 37.8493 214.574 37.2238 215.882 36.6087C216.27 36.427 216.696 36.4131 216.931 36.8953C217.165 37.3775 216.91 37.6746 216.501 37.8807C215.64 38.3071 214.787 38.7229 213.787 39.2156Z" fill="white"/>
<path d="M25.3117 181.024L16.8907 180.105C14.3763 179.825 11.8584 179.535 9.34397 179.263C7.71433 179.088 6.92048 178.053 7.45204 176.767C7.61023 176.388 7.89157 176.074 8.25066 175.874C8.60975 175.674 9.02569 175.601 9.4314 175.667C13.0777 176.065 16.7228 176.472 20.3668 176.886C22.1153 177.082 23.8394 177.267 25.567 177.501C26.686 177.652 27.3155 178.392 27.2141 179.371C27.1985 179.605 27.1369 179.833 27.0328 180.043C26.9286 180.252 26.7839 180.439 26.6071 180.593C26.4303 180.747 26.2248 180.864 26.0025 180.938C25.7801 181.012 25.5454 181.041 25.3117 181.024ZM25.0459 179.451C25.1928 179.339 25.5949 179.668 25.6439 179.284C25.6928 178.899 25.2557 178.979 24.9969 178.934C24.9678 178.932 24.9386 178.932 24.9095 178.934L13.0194 177.592C11.8933 177.463 10.7673 177.327 9.63771 177.243C9.36844 177.218 8.89633 176.984 8.84737 177.452C8.80191 177.854 9.27052 177.739 9.54679 177.777C10.1798 177.872 10.8163 177.935 11.4527 178.005L25.0459 179.451Z" fill="white"/>
<path d="M315.395 28.7251L320.64 24.6225L325.648 20.6841C325.736 20.6093 325.829 20.5393 325.924 20.4745C326.341 20.2194 326.753 20.1425 327.071 20.6038C327.39 21.065 327.169 21.3726 326.809 21.6521C325.138 22.9567 323.464 24.2602 321.787 25.5625C319.689 27.2119 317.585 28.8648 315.475 30.5212C315.16 30.7694 314.849 31.0839 314.391 30.8707C313.933 30.6575 313.971 30.2242 313.971 29.8223C313.971 23.7418 313.971 17.6614 313.971 11.5809C313.971 11.0497 314.024 10.5325 314.706 10.5325C315.388 10.5325 315.405 11.0847 315.405 11.5809V28.7251H315.395Z" fill="white"/>
<path d="M167 187V276.5" stroke="#393E7F"/>
</g>
<defs>
<clipPath id="clip0_1_512">
<rect width="379" height="219.464" fill="white" transform="translate(-19)"/>
</clipPath>
</defs>
</svg>
