<svg width="248" height="46" viewBox="0 0 248 46" fill="none" xmlns="http://www.w3.org/2000/svg">
<g clip-path="url(#clip0_1_13)">
<path d="M86.2664 29.1162C84.5917 29.1958 82.9311 28.7756 81.4936 27.9086C80.3062 27.1244 79.387 25.9929 78.86 24.667C78.2922 23.2258 78.0109 21.6868 78.0319 20.1369C78.0286 18.4951 78.2908 16.8637 78.8082 15.3064C79.3043 13.7834 80.085 12.3694 81.1083 11.1403C82.1561 9.91141 83.4569 8.92569 84.9208 8.25124C86.566 7.50697 88.3555 7.13986 90.1594 7.17651C91.2351 7.15698 92.308 7.2932 93.345 7.58098C94.1475 7.80047 94.9076 8.15402 95.5934 8.62683L94.4031 12.7582C93.7835 12.2829 93.1026 11.8941 92.379 11.6026C91.6671 11.3189 90.908 11.1738 90.1421 11.175C88.7519 11.1366 87.3852 11.5411 86.2376 12.3306C85.1517 13.1012 84.2998 14.1593 83.7765 15.3873C83.1978 16.7186 82.9077 18.1584 82.9255 19.6111C82.849 21.0505 83.2538 22.4743 84.0755 23.6558C84.8422 24.6612 86.0594 25.1639 87.727 25.1639C89.4405 25.0922 91.1007 24.5441 92.5227 23.5807L92.2697 27.6254C91.4529 28.0931 90.5793 28.4524 89.6706 28.6944C88.56 28.9888 87.4149 29.1307 86.2664 29.1162Z" fill="white"/>
<path d="M108.451 29.1162C106.791 29.1804 105.148 28.7567 103.724 27.897C102.493 27.1054 101.519 25.9684 100.924 24.6265C100.298 23.1921 99.9838 21.6396 100.004 20.0733C99.9981 18.413 100.296 16.7658 100.884 15.2139C101.453 13.6913 102.299 12.2884 103.379 11.0767C104.445 9.86491 105.744 8.88219 107.198 8.18765C108.71 7.47551 110.363 7.11601 112.034 7.13602C113.691 7.07181 115.331 7.49341 116.755 8.34944C117.988 9.1401 118.964 10.2772 119.561 11.6199C120.189 13.0619 120.502 14.6223 120.481 16.1962C120.488 19.5003 119.287 22.6919 117.105 25.1639C116.04 26.3758 114.741 27.3586 113.287 28.053C111.775 28.7691 110.122 29.1326 108.451 29.1162ZM109.107 25.1061C110.341 25.1328 111.546 24.7239 112.511 23.9505C113.517 23.1209 114.298 22.0497 114.782 20.8361C115.339 19.479 115.615 18.0222 115.593 16.5544C115.593 14.8325 115.237 13.5036 114.523 12.5675C114.15 12.0951 113.668 11.7202 113.12 11.4748C112.571 11.2293 111.972 11.1205 111.372 11.1576C110.141 11.1391 108.941 11.5472 107.974 12.3133C106.954 13.1268 106.162 14.1919 105.674 15.4046C105.117 16.7559 104.84 18.2066 104.857 19.6689C104.771 21.0851 105.142 22.4915 105.915 23.6789C106.289 24.1623 106.776 24.5454 107.333 24.7944C107.89 25.0434 108.499 25.1504 109.107 25.1061Z" fill="white"/>
<path d="M126.317 28.6886L130.032 7.51164H133.891V12.712L131.05 28.706L126.317 28.6886ZM139.026 28.6886C139.44 26.2849 139.787 24.2799 140.066 22.6736C140.348 21.0672 140.578 19.7845 140.745 18.7617C140.912 17.739 141.044 16.9821 141.13 16.4505C141.216 15.9189 141.268 15.474 141.297 15.1908C141.326 14.9077 141.343 14.665 141.343 14.4686C141.343 13.155 141.017 12.2806 140.365 11.8453C139.683 11.3946 138.881 11.1628 138.065 11.1808C137.189 11.1631 136.323 11.3741 135.552 11.7933C134.77 12.2427 134.087 12.8483 133.546 13.5729L133.632 9.64957C134.415 8.87914 135.334 8.2602 136.34 7.82367C137.335 7.39154 138.408 7.17119 139.491 7.17652C140.39 7.17533 141.28 7.33984 142.119 7.66188C142.989 8.00528 143.745 8.58559 144.304 9.33755C144.983 10.3163 145.381 11.4636 145.454 12.6542L146.346 13.8503L143.77 28.6886H139.026ZM151.676 28.6886C152.133 26.1462 152.501 24.0488 152.78 22.3962C153.06 20.7437 153.283 19.4282 153.447 18.4497C153.614 17.4732 153.735 16.7163 153.81 16.2367C153.884 15.7571 153.936 15.3815 153.959 15.1677C153.98 14.9758 153.989 14.7829 153.988 14.5899C153.988 13.284 153.727 12.3826 153.206 11.8857C152.589 11.3504 151.788 11.0805 150.975 11.1346C150 11.0815 149.035 11.3449 148.22 11.8857C147.563 12.3545 147.036 12.9852 146.691 13.7174C146.364 14.4016 146.128 15.1263 145.989 15.8727L144.609 11.7759C144.801 10.977 145.218 10.2507 145.811 9.68424C146.578 8.90877 147.491 8.29404 148.496 7.87567C149.716 7.35825 151.031 7.1043 152.355 7.13029C154.536 7.13029 156.154 7.72736 157.208 8.92152C158.262 10.1157 158.789 11.749 158.789 13.8214C158.789 14.0236 158.789 14.2605 158.755 14.5379C158.72 14.8152 158.686 15.2313 158.605 15.786C158.525 16.3407 158.404 17.1381 158.237 18.1724C158.071 19.2067 157.835 20.5819 157.547 22.2806C157.26 23.9794 156.886 26.1058 156.432 28.6655L151.676 28.6886Z" fill="white"/>
<path d="M170.457 16.4273C171.433 16.7632 172.461 16.9217 173.493 16.8954C174.843 16.9497 176.191 16.7659 177.478 16.3522C178.257 16.1076 178.948 15.6373 179.462 15.0001C179.821 14.5256 180.022 13.9494 180.037 13.3533C180.055 13.1009 180.022 12.8473 179.94 12.6079C179.858 12.3686 179.729 12.1484 179.56 11.9608C179.245 11.6417 178.846 11.4193 178.41 11.3194C178.011 11.2197 177.602 11.1654 177.19 11.1577C176.164 11.1378 175.157 11.4452 174.315 12.0359C173.472 12.6359 172.761 13.4052 172.228 14.2952C171.673 15.1922 171.251 16.1654 170.974 17.1843L170.721 18.9524C170.62 20.222 170.836 21.497 171.348 22.662C171.74 23.491 172.401 24.1614 173.223 24.563C174.027 24.9435 174.904 25.1408 175.793 25.1408C176.914 25.1414 178.029 24.9937 179.111 24.7017C180.15 24.4338 181.157 24.0582 182.119 23.5807L181.67 27.5272C180.718 28.0387 179.706 28.4271 178.657 28.6828C177.388 29.0017 176.083 29.157 174.775 29.1451C172.994 29.217 171.228 28.7952 169.669 27.9259C168.37 27.1586 167.331 26.0146 166.69 24.6439C166.023 23.1964 165.689 21.6164 165.713 20.0214C165.713 16.7749 166.855 13.6331 168.939 11.1519C169.96 9.94039 171.221 8.95637 172.642 8.26278C174.141 7.53826 175.786 7.17426 177.449 7.1996C179.611 7.1996 181.262 7.7389 182.4 8.81749C182.971 9.36109 183.419 10.0204 183.717 10.7516C184.014 11.4828 184.154 12.2692 184.125 13.0587C184.144 14.0934 183.905 15.1164 183.43 16.0344C182.948 16.9253 182.259 17.6864 181.423 18.2532C180.46 18.8771 179.392 19.3196 178.272 19.5591C176.919 19.8811 175.533 20.0363 174.143 20.0214C173.374 20.0237 172.606 19.9793 171.843 19.8885C171.258 19.8297 170.681 19.7156 170.118 19.5475L170.457 16.4273Z" fill="white"/>
<path d="M189.49 28.6886L193.222 7.51161H197.616L196.937 13.7174L194.28 28.6886H189.49ZM196.673 14.4223L197.035 10.5394C197.535 9.89046 198.114 9.30798 198.76 8.80592C199.43 8.27875 200.169 7.84709 200.957 7.52317C201.714 7.2096 202.524 7.04672 203.343 7.04358H204.493L202.768 11.7586H200.985C200.391 11.766 199.804 11.8937 199.26 12.1341C198.693 12.3734 198.17 12.7075 197.713 13.1222C197.289 13.4865 196.936 13.9275 196.673 14.4223Z" fill="white"/>
<path d="M215.827 29.1162C214.15 29.1955 212.488 28.7754 211.048 27.9085C209.863 27.124 208.945 25.9925 208.421 24.667C207.855 23.2254 207.575 21.6864 207.598 20.1369C207.595 18.4951 207.857 16.8636 208.375 15.3063C208.866 13.7813 209.647 12.3665 210.675 11.1403C211.719 9.91027 213.018 8.92428 214.481 8.25119C216.129 7.50682 217.92 7.13972 219.726 7.17646C220.799 7.15685 221.87 7.29307 222.906 7.58093C223.71 7.80085 224.472 8.15434 225.16 8.62678L223.969 12.7582C223.348 12.2828 222.665 11.894 221.94 11.6025C221.228 11.3189 220.468 11.1738 219.703 11.175C218.312 11.1365 216.946 11.541 215.798 12.3306C214.712 13.1012 213.86 14.1593 213.337 15.3872C212.761 16.7194 212.471 18.1587 212.486 19.6111C212.41 21.0504 212.815 22.474 213.636 23.6558C214.403 24.6612 215.618 25.1639 217.282 25.1639C218.996 25.0939 220.656 24.5457 222.078 23.5807L221.825 27.6254C221.008 28.0941 220.134 28.4534 219.225 28.6944C218.117 28.9891 216.974 29.131 215.827 29.1162Z" fill="white"/>
<path d="M234.331 16.4273C235.308 16.762 236.336 16.9204 237.368 16.8954C238.717 16.9497 240.066 16.7659 241.353 16.3522C242.132 16.1076 242.822 15.6373 243.336 15.0001C243.696 14.5256 243.897 13.9494 243.912 13.3534C243.93 13.1009 243.897 12.8473 243.815 12.6079C243.733 12.3686 243.603 12.1484 243.434 11.9608C243.119 11.6417 242.72 11.4193 242.284 11.3194C241.885 11.2197 241.476 11.1654 241.065 11.1577C240.038 11.1378 239.032 11.4452 238.19 12.0359C237.346 12.6359 236.635 13.4052 236.103 14.2952C235.548 15.1922 235.125 16.1654 234.849 17.1843L234.596 18.9524C234.495 20.222 234.71 21.497 235.223 22.662C235.615 23.491 236.276 24.1614 237.097 24.563C237.901 24.9435 238.779 25.1408 239.668 25.1408C240.788 25.1414 241.904 24.9937 242.986 24.7017C244.024 24.4338 245.032 24.0582 245.993 23.5807L245.545 27.5272C244.593 28.0387 243.58 28.4271 242.531 28.6828C241.262 29.0017 239.958 29.157 238.65 29.1451C236.869 29.2164 235.102 28.7946 233.544 27.9259C232.244 27.1586 231.206 26.0146 230.565 24.6439C229.898 23.1964 229.563 21.6164 229.587 20.0214C229.587 16.7749 230.73 13.6331 232.813 11.1519C233.834 9.94039 235.096 8.95638 236.517 8.26279C238.015 7.53886 239.661 7.17489 241.324 7.1996C243.486 7.1996 245.136 7.7389 246.275 8.81749C246.845 9.36109 247.294 10.0204 247.591 10.7516C247.889 11.4828 248.028 12.2692 248 13.0587C248.024 14.085 247.788 15.1006 247.314 16.0102C246.84 16.9198 246.144 17.6936 245.292 18.259C244.336 18.902 243.272 19.3641 242.152 19.6227C240.799 19.9447 239.413 20.0999 238.023 20.0849C237.254 20.0871 236.486 20.0427 235.723 19.952C235.139 19.8927 234.561 19.7786 233.998 19.6111L234.331 16.4273Z" fill="white"/>
<path d="M167.133 36.5758H61.402V45.1044H167.133V36.5758Z" fill="white"/>
<path d="M9.90781 19.432C10.9091 19.7614 11.9336 20.0144 12.9727 20.1889C14.0617 20.349 15.1614 20.4244 16.2619 20.4143C19.8501 20.4143 22.6371 20.029 24.6229 19.2586C26.6087 18.4882 27.9887 17.5483 28.7631 16.4389C29.4935 15.4412 29.8955 14.2393 29.9132 13.0009C29.9503 12.4701 29.8809 11.9373 29.709 11.434C29.5371 10.9307 29.2663 10.4673 28.9126 10.0713C28.2546 9.40691 27.4235 8.9423 26.5147 8.7308C25.677 8.52361 24.8185 8.41312 23.9559 8.40145C21.8229 8.3644 19.7325 9.00325 17.9813 10.2274C16.2117 11.4868 14.7199 13.0998 13.5995 14.9655C12.4428 16.8378 11.5598 18.8674 10.9774 20.9921L10.4483 24.7017C10.3563 28.0068 10.7934 30.5973 11.7594 32.4733C12.582 34.2097 13.9695 35.612 15.6926 36.4487C17.3782 37.2273 19.2142 37.6219 21.0692 37.6043C23.4181 37.6051 25.7571 37.2982 28.0271 36.6914L28.7861 36.4833C29.3824 36.3072 30.0128 36.2813 30.6214 36.4081C31.23 36.5349 31.7982 36.8104 32.2757 37.2102C32.7531 37.61 33.1253 38.1219 33.3591 38.7006C33.5929 39.2793 33.6813 39.9069 33.6164 40.5281C33.538 41.1984 33.2837 41.8358 32.8796 42.375C32.4754 42.9141 31.9359 43.3356 31.3163 43.5963C29.9314 44.1781 28.5052 44.6551 27.0495 45.0235C24.414 45.6903 21.7053 46.0203 18.9876 46.0058C14.6633 46.0058 11.1 45.1564 8.29772 43.4576C5.57628 41.8476 3.40023 39.4516 2.05287 36.5816C0.658908 33.5439 -0.0386963 30.2305 0.0115013 26.8858C0.00795987 20.0867 2.39947 13.5059 6.76238 8.309C8.89835 5.76506 11.5357 3.69338 14.5081 2.22459C17.6459 0.703439 21.0933 -0.0621798 24.5769 -0.0115598C29.1081 -0.0115598 32.5679 1.12096 34.9562 3.386C37.3445 5.65104 38.5387 8.61717 38.5387 12.2844C38.5756 14.4512 38.0715 16.5927 37.0723 18.5132C36.0603 20.3705 34.6186 21.9559 32.8689 23.1358C30.8682 24.491 28.6392 25.4699 26.2905 26.0249C23.4647 26.695 20.5682 27.0171 17.665 26.984C16.0684 26.9874 14.4729 26.8987 12.8865 26.7182C11.6468 26.5887 10.421 26.349 9.22352 26.0017L9.90781 19.432Z" fill="white"/>
<path d="M35.5082 45.1101L63.8401 5.49502L65.7549 9.29127H47.6874C47.0672 9.29157 46.4543 9.15524 45.8922 8.89188C45.33 8.62851 44.8321 8.24451 44.4335 7.76691C44.035 7.28931 43.7455 6.72973 43.5854 6.12756C43.4253 5.52539 43.3985 4.89529 43.5069 4.2816C43.6813 3.29498 44.1958 2.40154 44.9602 1.75808C45.7247 1.11461 46.6902 0.762205 47.6874 0.762696H79.1532L50.8846 40.3605L48.9295 36.5642H66.951C67.5731 36.5641 68.1876 36.7015 68.7511 36.9666C69.3145 37.2317 69.813 37.618 70.2113 38.0982C70.6096 38.5784 70.898 39.1407 71.056 39.7453C71.2141 40.35 71.2379 40.9821 71.1257 41.597C70.9458 42.5779 70.4297 43.4645 69.6672 44.1031C68.9046 44.7416 67.9436 45.0918 66.951 45.0928L35.5082 45.1101Z" fill="white"/>
<path d="M184.154 45.1044C186.498 45.1044 188.398 43.1952 188.398 40.8401C188.398 38.485 186.498 36.5758 184.154 36.5758C181.81 36.5758 179.91 38.485 179.91 40.8401C179.91 43.1952 181.81 45.1044 184.154 45.1044Z" fill="white"/>
<path d="M166.759 45.1044C169.103 45.1044 171.003 43.1952 171.003 40.8401C171.003 38.485 169.103 36.5758 166.759 36.5758C164.416 36.5758 162.516 38.485 162.516 40.8401C162.516 43.1952 164.416 45.1044 166.759 45.1044Z" fill="white"/>
</g>
<defs>
<clipPath id="clip0_1_13">
<rect width="248" height="46" fill="white"/>
</clipPath>
</defs>
</svg>
