<svg width="577" height="318" viewBox="0 0 577 318" fill="none" xmlns="http://www.w3.org/2000/svg">
<path d="M471.765 288.31L470.549 292.111L470.169 293.068C467.644 298.909 463.819 304.096 458.988 308.235L458.385 308.686C455.43 310.908 452.217 312.763 448.815 314.21C448.444 314.245 448.092 314.388 447.802 314.62C447.082 314.868 445.735 314.995 445.846 315.532C446.018 316.343 447.199 315.887 447.923 315.887C479.04 315.907 510.156 315.907 541.273 315.887C541.78 315.887 542.286 315.857 542.793 315.841C543.153 315.775 542.97 315.639 542.844 315.507C542.58 314.59 542.212 313.706 541.749 312.872C541.701 312.497 541.544 312.145 541.298 311.858C540.869 310.552 540.339 309.282 539.713 308.058C539.586 307.632 539.454 307.206 539.323 306.781C539.34 306.768 539.355 306.752 539.366 306.734C539.377 306.716 539.385 306.695 539.388 306.674C539.391 306.653 539.39 306.631 539.385 306.61C539.38 306.59 539.371 306.57 539.358 306.553L539.768 305.783C540.685 305.387 541.248 305.717 541.607 306.614C541.967 307.51 542.418 308.423 542.828 309.325C542.876 309.701 543.034 310.053 543.284 310.338C543.284 310.621 543.393 310.894 543.588 311.098C543.63 311.475 543.788 311.829 544.039 312.112L544.45 313.166C544.507 313.509 544.662 313.829 544.895 314.088C544.825 314.326 544.976 314.483 545.103 314.645C545.306 315.096 545.23 315.912 545.909 315.811C546.446 315.73 546.167 315.071 546.121 314.645C546.152 311.909 546.179 309.171 546.202 306.431C546.202 306.051 546.202 305.671 546.202 305.291C546.253 304.597 546.511 304.019 547.317 304.024C548.122 304.029 548.401 304.571 548.411 305.291C548.422 306.011 548.411 306.639 548.411 307.318C548.411 309.852 548.411 312.385 548.411 314.919C548.411 315.248 548.173 315.77 548.741 315.852C549.308 315.933 549.247 315.395 549.394 315.076C550.559 312.375 551.715 309.664 552.88 306.968C553.174 306.289 553.386 305.448 554.4 305.686C555.413 305.924 555.154 306.831 555.129 307.566C554.881 307.851 554.723 308.204 554.678 308.58C553.82 310.32 553.07 312.113 552.434 313.946C552.204 314.21 552.051 314.533 551.993 314.879C551.937 315.036 551.882 315.193 551.831 315.35C551.679 315.527 551.39 315.715 551.831 315.857C559.599 315.877 567.367 315.892 575.136 315.902C575.774 315.902 576.402 315.867 576.858 316.409C576.94 316.844 576.867 317.294 576.65 317.681L575.875 317.975C575.328 317.975 574.776 317.939 574.229 317.939H4.84836C4.46866 317.919 4.08816 317.919 3.70846 317.939C3.41633 317.977 3.11947 317.947 2.84093 317.851C2.56238 317.755 2.30965 317.596 2.10246 317.387C1.9606 316.277 2.3963 315.841 3.56152 315.867C7.7766 315.902 11.9968 315.867 16.227 315.841C16.3841 315.882 16.4753 315.841 16.4449 315.654C16.4449 315.193 16.5057 314.732 16.5108 314.27C16.5108 302.159 16.5108 290.048 16.5108 277.937H18.5372C18.5372 290.139 18.5372 302.337 18.5068 314.534C18.5068 315.674 18.8007 315.917 19.9 315.907C28.2086 315.841 36.5223 315.852 44.8359 315.836C44.993 315.872 45.0841 315.836 45.0334 315.654C44.3343 312.7 43.625 309.745 42.9462 306.791C42.5662 305.134 42.2116 303.472 41.8721 301.805C41.7404 301.136 41.5429 300.634 40.7171 300.675C38.0928 300.801 35.8586 298.399 35.2456 295.972C34.3944 292.607 36.8617 289.329 39.6126 288.665C42.8651 287.879 46.4419 289.734 47.2119 292.962C47.8401 295.551 47.2119 298.222 44.2735 299.909C44.1647 299.945 44.0646 300.003 43.9793 300.08C43.8939 300.156 43.8253 300.249 43.7777 300.354C43.7301 300.458 43.7046 300.571 43.7028 300.685C43.7009 300.8 43.7227 300.913 43.7669 301.019C44.8815 305.708 45.9556 310.404 46.9891 315.107C47.1309 315.74 47.3994 315.953 48.0023 315.887C48.2554 315.872 48.5091 315.872 48.7622 315.887H202.876C203.383 315.887 203.889 315.862 204.396 315.846H206.23L206.27 315.715L205.151 315.446C204.994 315.37 204.842 315.324 204.725 315.512L204.548 315.451C202.891 314.757 201.214 314.118 199.588 313.363C196.88 312.135 194.339 310.569 192.024 308.701C190.454 307.424 189.091 305.965 187.657 304.566C185.002 301.977 183.098 298.86 181.365 295.597C179.582 292.192 178.609 288.503 177.819 284.793C177.439 282.989 177.494 282.979 175.691 282.979C168.932 282.979 162.179 282.898 155.426 283.02C154.671 283.035 153.924 282.867 153.249 282.528C152.574 282.189 151.992 281.691 151.553 281.076C151.115 280.462 150.832 279.749 150.731 279.001C150.63 278.253 150.713 277.491 150.973 276.782C151.53 275.155 152.741 274.37 154.357 274.111C155.973 273.853 157.726 274.015 159.423 273.974C159.93 273.974 160.249 273.974 160.436 273.25C160.786 271.77 160.842 270.255 161.115 268.77C161.579 266.353 162.185 263.966 162.929 261.62C164.986 255.098 168.293 249.039 172.666 243.783C174.495 241.538 176.588 239.486 178.376 237.195C181.438 233.33 183.451 228.74 184.217 223.868C184.374 222.854 184.131 221.795 184.567 220.827C184.785 220.321 184.369 220.387 184.096 220.382C183.295 220.382 182.49 220.356 181.689 220.382C176.218 220.412 172.362 217.518 169.819 213.079C168.876 211.437 168.31 209.606 168.163 207.718C168.016 205.83 168.291 203.933 168.968 202.164C170.043 199.059 172.117 196.398 174.865 194.599H130.019C127.993 194.599 127.957 194.568 127.957 192.572C127.957 163.268 127.957 133.967 127.957 104.667C127.957 104.161 127.957 103.654 127.917 103.147L130.075 101.348C130.075 101.561 130.075 101.774 130.075 101.982C130.075 131.744 130.075 161.507 130.075 191.269C130.075 192.181 130.186 192.556 131.265 192.556C164.064 192.519 196.859 192.519 229.651 192.556C230.563 192.556 230.74 192.303 230.74 191.437C230.72 155.809 230.72 120.18 230.74 84.5497C230.74 83.6983 230.583 83.4146 229.661 83.4196C196.822 83.4467 163.985 83.4467 131.149 83.4196C130.217 83.4196 130.065 83.7136 130.075 84.5547C130.12 88.2286 130.075 91.9025 130.075 95.5764L127.947 94.0004V83.1207C126.36 83.6412 124.881 84.4446 123.58 85.4922C120.854 87.7219 119.618 90.8738 118.276 93.97C117.969 94.3006 117.772 94.7186 117.713 95.1659C116.7 96.6456 116.057 98.3178 115.281 99.9191C114.066 102.453 112.824 104.936 111.593 107.444C110.893 107.251 110.244 106.905 109.693 106.431C111.355 102.833 113.341 99.3921 114.82 95.703C115.072 95.1933 115.36 94.7022 115.682 94.2335L116.295 92.8653C118.205 89.2624 119.674 85.3554 123.337 82.9433C120.419 83.1764 117.592 83.521 114.765 83.8707C113.083 84.0784 111.289 83.9213 109.952 85.2895C108.644 84.8273 107.223 84.8007 105.899 85.2135C104.298 84.9044 102.722 85.2946 101.162 85.472C99.6015 85.6493 98.7048 86.9466 97.57 87.8131C93.0206 91.3096 88.493 94.8315 83.9875 98.3786C83.3238 98.8854 82.726 99.1844 82.0978 98.4496C81.3227 97.5425 82.1687 97.0205 82.7159 96.6304C86.0596 94.2284 89.1753 91.5275 92.4886 89.08C93.7934 88.2281 94.9968 87.2302 96.0754 86.1054C93.6943 86.3993 91.4298 86.5462 89.226 87.0074C88.3647 87.1847 87.6352 88.0209 86.8803 88.6188C83.4049 91.3096 79.9447 94.0207 76.4743 96.7267C75.3446 97.6084 74.3871 97.4665 74.2655 96.3719C74.1794 95.5966 74.9241 95.2165 75.3952 94.8517C78.3235 92.5207 81.3125 90.2556 84.3067 87.9499C82.4676 87.5546 79.2152 87.7776 77.2444 89.5918C75.1825 91.4819 72.852 93.0832 70.6583 94.8162C70.248 95.1355 69.8629 95.4395 69.3006 95.1709C68.4596 94.7655 68.4697 93.6913 69.3664 93.0123C70.7292 91.9988 72.1275 90.9853 73.4853 89.9718C73.7662 89.6998 74.016 89.3972 74.23 89.0698C71.8083 88.7556 69.5843 89.4752 67.3147 89.5766C66.3774 89.6222 65.4503 89.8502 64.513 89.9617C63.824 90.0428 63.2009 89.8705 63.1148 89.0546C63.0286 88.2388 63.5505 87.879 64.3357 87.7928C67.6288 87.433 70.9218 87.0479 74.2452 86.6679C74.2452 85.9838 73.5815 86.0294 73.2319 85.847C71.6462 85.0919 70.0402 84.3673 68.4191 83.6933C67.5426 83.3285 67.2741 82.7609 67.6439 81.9349C68.0137 81.1089 68.6876 81.4281 69.2499 81.6866C71.6006 82.7406 74.0375 83.6527 76.2615 84.9348C78.4856 86.2169 80.6438 85.999 82.9236 85.6392C83.2934 85.5784 83.6633 85.5024 84.2054 85.401C82.8426 84.3369 81.2872 83.8808 79.8839 83.2169C77.7409 82.1629 75.5118 81.2964 73.3384 80.2981C72.7304 80.0194 71.9097 79.6343 72.3251 78.7779C72.7406 77.9215 73.5765 77.9823 74.4023 78.3573C77.4623 79.7661 80.5273 81.1596 83.5974 82.5379C85.2237 83.2778 86.855 83.9973 88.4863 84.7321C88.7349 84.8686 89.0208 84.9219 89.3019 84.8841C91.0852 84.6206 92.8838 84.4281 94.6721 84.2051C94.89 84.2051 95.2091 84.3115 95.275 83.9365C95.3206 83.6578 95.0723 83.6071 94.89 83.526C91.1055 81.8082 87.3312 80.065 83.5316 78.3877C82.3157 77.881 81.1809 77.1614 79.9143 76.7256C79.2861 76.5128 79.1847 75.773 79.4482 75.2054C79.7116 74.6379 80.2182 74.5466 80.8262 74.8253C82.9489 75.7932 85.0919 76.7054 87.2147 77.6732C91.2322 79.4975 95.2446 81.3217 99.2418 83.1967C99.9847 83.4923 100.795 83.5749 101.582 83.4349C103.194 83.2727 104.799 83.0396 106.507 82.8217C106.132 82.1426 105.433 82.0514 104.901 81.8082C99.4496 79.2745 93.9781 76.8168 88.5218 74.3135C88.1165 74.1311 87.6504 74.1311 87.2907 73.8068C86.7536 73.3355 86.4902 72.7933 86.8651 72.1345C87.24 71.4758 87.7719 71.7747 88.2887 72.0078C90.6799 73.0821 93.0763 74.1361 95.4624 75.2206C100.394 77.457 105.32 79.7002 110.241 81.9501C111.76 82.6443 113.28 81.9805 114.8 81.8386C119.228 81.4282 123.625 80.7491 128.063 80.3792C132.623 79.9992 137.01 80.6174 141.443 81.3572C142.619 81.4947 143.81 81.4209 144.959 81.1393L131.068 73.0315C131.308 72.3247 131.721 71.6889 132.268 71.1818L143.054 77.5364C143.404 77.1411 143.08 76.8675 142.958 76.604C140.374 71.0299 137.77 65.4557 135.197 59.8461C135.107 59.5696 134.937 59.3258 134.709 59.1455C134.481 58.9652 134.205 58.8563 133.915 58.8326C133.413 58.7662 132.916 58.6697 132.425 58.5437C131.919 58.4373 131.438 58.2549 131.311 57.6671C131.226 57.4255 131.231 57.1612 131.325 56.9229C131.419 56.6846 131.595 56.4882 131.823 56.3698C133.13 55.6604 132.871 54.8091 132.329 53.6993C130.667 50.294 129.087 46.8532 127.526 43.4023C127.222 42.7284 126.959 42.5814 126.229 42.8297C119.203 45.2266 112.809 43.7976 107.105 39.2826C104.794 37.4583 103.254 34.9195 101.998 32.2287C100.787 29.6342 99.6624 26.9941 98.3401 24.4452C97.3235 22.4318 96.417 20.3646 95.6246 18.2528C94.5404 15.4404 97.5396 11.7209 100.503 12.3391C101.881 12.628 102.439 12.1212 103.036 11.1888C103.974 9.73957 105.696 8.91357 107.252 9.30883C108.305 9.5774 108.868 9.34431 109.42 8.37137C110.499 6.46096 112.373 5.75659 114.486 6.34441C114.602 6.39389 114.728 6.41904 114.854 6.41833C114.98 6.41762 115.105 6.39105 115.221 6.34026C115.337 6.28948 115.441 6.21555 115.527 6.12302C115.613 6.03048 115.68 5.92131 115.722 5.80219C117.12 3.37997 118.438 2.80226 121.158 3.309C121.634 3.39515 122.116 3.53197 122.339 2.80226C122.871 1.04894 124.249 0.268568 125.956 0.0861409C126.793 -0.0527121 127.652 0.0538166 128.43 0.392833C129.207 0.731849 129.87 1.28886 130.338 1.99656C131.564 3.79549 132.319 5.84779 133.226 7.81901C134.827 11.2952 136.772 14.6397 137.958 18.2781C140.273 25.332 139.143 31.7929 134.189 37.4785C132.956 38.961 131.46 40.203 129.776 41.1423C129.224 41.4362 128.975 41.801 129.34 42.5611C131.017 46.0374 132.603 49.5643 134.214 53.076C134.503 53.7094 134.67 54.054 135.364 53.3041C136.316 52.4088 137.314 51.5631 138.353 50.7704C138.581 50.5727 139.027 50.4004 138.86 50.0153C138.692 49.6302 138.282 49.6504 137.968 49.7113C136.955 49.9038 136.033 49.3211 134.999 49.4275C134.285 49.5035 133.879 48.9207 133.986 48.0643C134.092 47.208 134.614 47.0509 135.197 47.2586C136.169 47.6032 137.223 47.2586 138.171 47.6792C138.388 47.7806 138.834 47.8616 138.956 47.5525C138.984 47.4137 138.979 47.27 138.939 47.1339C138.899 46.9979 138.827 46.8737 138.728 46.7722C137.998 46.1945 137.578 45.3584 136.924 44.7452C136.509 44.3398 136.2 43.899 136.742 43.3618C137.284 42.8247 137.912 42.6473 138.49 43.2807C139.331 44.208 140.116 45.181 140.972 46.1844C141.479 45.1709 141.312 44.1574 141.322 43.1439C141.284 42.6827 141.298 42.2187 141.362 41.7605C141.382 41.6248 141.43 41.4949 141.504 41.3792C141.577 41.2634 141.674 41.1646 141.788 41.089C141.903 41.0134 142.032 40.9628 142.167 40.9405C142.302 40.9183 142.441 40.9249 142.573 40.9599C143.196 41.0967 143.662 41.421 143.586 42.1659C143.361 43.5439 143.293 44.943 143.384 46.3364C144.529 46.0881 145.152 45.0695 146.013 44.4361C147.791 43.1236 149.357 41.5325 151.079 40.1541C151.773 39.6018 152.553 39.7133 152.989 40.6609C152.827 45.0087 154.185 48.7687 157.376 51.8092C160.614 55.9492 160.958 60.216 157.883 64.6094C157.589 65.025 157.741 65.2682 157.984 65.6229C161.389 70.2365 164.025 75.3701 165.791 80.8251C165.878 81.0836 165.847 81.4738 166.258 81.4738C167.681 81.4738 169.11 81.4738 170.817 81.4738C167.002 78.9401 165.422 76.0111 165.873 72.2612C166.144 70.6021 166.501 68.9581 166.941 67.3357C167.671 65.3087 167.671 65.3087 166.025 64.0622C165.457 63.6213 164.91 63.1551 164.317 62.7548C161.475 60.8139 165.396 60.7278 165.249 59.4609C165.204 59.0403 165.923 58.7718 166.491 59.015C166.568 59.0468 166.64 59.0913 166.703 59.1468C167.048 59.5065 167.164 59.2887 167.266 58.9492C167.299 58.8141 167.36 58.6873 167.445 58.5769C167.53 58.4664 167.636 58.3745 167.758 58.307C167.879 58.2395 168.014 58.1978 168.152 58.1845C168.291 58.1711 168.43 58.1865 168.563 58.2296C169.166 58.341 169.292 58.8681 169.363 59.3849C169.54 60.6366 169.718 61.8882 169.87 63.145C169.92 63.5503 170.012 63.8544 170.478 63.9659C172.236 64.3915 173.989 64.8425 175.741 65.2834C175.878 65.3742 176.02 65.4555 176.167 65.5266C181.395 67.6499 183.483 72.0484 181.826 77.4908C181.497 78.5752 181.152 79.6596 180.813 80.7491C180.706 81.114 180.57 81.5042 181.228 81.5042C184.268 81.5042 187.338 81.5042 190.626 81.5042C189.106 78.9198 187.764 76.5533 186.386 74.202C183.592 69.442 180.798 64.6838 178.001 59.9272C177.921 58.8498 177.724 57.7844 177.413 56.7499C178.391 57.6924 179.359 58.2701 180.033 59.1518C184.194 66.3374 188.346 73.5247 192.49 80.7137C192.605 80.9772 192.802 81.1971 193.05 81.3412C193.299 81.4852 193.588 81.5459 193.873 81.5143C195.307 81.4687 196.746 81.4434 198.18 81.5143C199.087 81.565 199.279 81.2711 199.274 80.3944C199.244 70.9437 199.274 61.4879 199.274 52.0169C199.274 43.3212 199.274 34.6256 199.274 25.935C199.274 24.6884 199.629 24.4148 200.834 24.4148C219.275 24.4485 237.716 24.4485 256.157 24.4148C257.875 24.4148 257.915 24.4502 257.92 26.1985C257.964 42.9108 258.007 59.6332 258.047 76.3658C258.047 78.0684 258.047 78.0684 259.699 77.6935L275.607 74.0855C274.534 72.0036 273.944 69.7071 273.879 67.3661C273.828 66.079 273.843 64.5993 274.578 63.3527C275.044 63.9304 275.536 64.4574 276.351 64.4878C275.729 67.2824 276.087 70.2059 277.364 72.768L285.724 64.7158H288.895C285.399 68.0198 281.929 71.344 278.403 74.6074C276.508 76.3168 275.229 78.6038 274.766 81.114C274.076 84.5279 274.387 88.0685 275.662 91.3096C276.533 93.7138 278.211 95.7413 280.409 97.0459C284.695 99.4884 289.741 98.8246 293.743 95.3179L302.817 87.3418C298.703 83.3538 296.89 78.5346 297.751 72.8085C298.303 69.0991 298.952 65.405 299.559 61.7058C300.573 60.9761 301.181 59.8866 302.093 59.0758C301.302 63.8595 300.476 68.633 299.737 73.4217C299.397 75.6085 299.593 77.8451 300.307 79.9396C301.022 82.0341 302.233 83.9241 303.839 85.4473C305.444 86.9705 307.394 88.0815 309.523 88.6851C311.651 89.2887 313.895 89.3668 316.06 88.9127C321.572 87.7624 325.721 84.651 328.726 79.9789C329.739 78.3959 330.449 76.6379 330.818 74.7949C326.795 77.7796 320.301 76.153 318.877 71.8356C318.776 71.5265 318.659 71.3288 318.299 71.2731C317.342 71.1059 317.286 70.4066 317.387 69.6313C317.813 66.0435 320.529 63.1044 324.141 62.8612C327.211 62.6585 329.891 61.341 332.753 60.4998C333.143 60.3832 333.478 60.3021 333.118 59.7549C331.061 56.6232 329.018 53.4797 326.988 50.3244C326.897 50.1309 326.736 49.9792 326.538 49.9001C326.339 49.8211 326.118 49.8206 325.919 49.8987C325.412 50.0913 325.676 50.5524 325.686 50.9122C325.751 52.3511 325.439 53.7821 324.779 55.0624C323.973 56.6335 322.661 57.8876 321.056 58.6229C319.45 59.3582 317.644 59.532 315.928 59.1164C314.123 58.689 312.524 57.6456 311.405 56.1658C310.286 54.6859 309.718 52.8622 309.798 51.0085C309.829 50.0305 309.591 49.7873 308.658 49.843C307.356 49.9241 306.044 49.8683 304.737 49.8683C304.788 49.1235 305.01 48.4004 305.386 47.7552C306.728 47.7552 308.081 47.7198 309.439 47.7907C309.784 47.8331 310.133 47.7713 310.443 47.6133C310.753 47.4553 311.008 47.2082 311.176 46.9039C311.907 45.7923 312.907 44.8836 314.083 44.2626C315.26 43.6416 316.574 43.3284 317.904 43.3522C319.234 43.3759 320.536 43.7359 321.689 44.3985C322.843 45.0612 323.81 46.005 324.5 47.1421C324.936 47.8312 326.957 48.0846 327.484 47.4917C328.705 46.0982 329.602 44.6337 328.634 42.6878C328.312 41.9583 328.028 41.2124 327.783 40.4531C328.538 40.4531 329.303 40.22 330.043 40.6558C330.339 41.2912 330.559 41.9598 330.696 42.6473C330.803 44.0307 331.421 43.9091 332.505 43.6354C337.151 42.4801 341.153 45.3685 342.202 49.5288C343.215 53.5828 340.337 58.3664 336.365 58.9694C335.58 59.091 335.2 59.4052 335.823 60.2413C336.446 61.0775 335.879 61.5589 335.195 61.9389C334.848 62.1492 334.47 62.3031 334.076 62.395C333.569 62.4811 332.986 62.395 332.839 62.9828C332.657 63.6973 333.346 63.9608 333.787 64.2902C334.837 64.9793 335.694 65.924 336.279 67.0355C336.864 68.147 337.157 69.389 337.13 70.6447C337.13 71.5163 336.852 71.8812 335.955 71.8254C335.205 71.7747 334.283 71.5923 333.736 71.942C333.189 72.2916 333.412 73.3254 333.229 74.0399C331.679 80.6275 328.128 85.6949 322.084 88.9279C318.483 90.8778 314.388 91.7222 310.31 91.3552C308.559 91.2919 306.827 90.9656 305.173 90.3873C304.383 90.0681 304.666 90.8941 304.702 91.1424C305.097 93.443 305.543 95.7385 305.968 98.034C306.556 101.186 307.133 104.343 307.721 107.5C307.79 107.782 307.877 108.06 307.979 108.331C307.385 108.765 306.715 109.083 306.004 109.269C304.854 103.061 303.704 96.8584 302.523 90.4735C302.062 90.8384 301.738 91.0765 301.439 91.34C299.256 93.2656 297.112 95.2419 294.888 97.1169C291.438 100.031 287.492 101.318 283.013 100.259C277.567 98.9715 274.401 95.2521 273.083 90.0276C271.923 85.5277 271.939 81.0076 274.097 76.7256C273.953 76.665 273.799 76.6338 273.643 76.6338C273.488 76.6338 273.333 76.665 273.19 76.7256C269.203 77.6276 265.221 78.5347 261.234 79.4164C255.2 80.7491 249.288 82.4011 243.943 85.624C238.877 88.6644 235.33 92.9261 234.317 98.9158C233.896 101.414 233.957 103.983 233.851 106.517C233.385 117.731 232.488 128.93 232.686 140.17C232.686 140.524 232.686 140.879 232.686 141.426C235.852 139.906 238.765 138.457 241.774 137.119C242.818 136.648 243.071 136.217 242.696 135.092C241.602 131.773 240.67 128.403 239.657 125.053C239.429 124.309 239.272 123.574 240.224 123.295C241.101 123.042 241.415 123.675 241.592 124.395C241.638 124.597 241.719 124.795 241.779 124.998C243.806 131.829 245.832 138.68 247.859 145.495C248.143 146.468 248.426 146.585 249.379 146.164C260.737 141.046 272.114 135.959 283.51 130.901C284.199 130.592 284.417 130.395 284.163 129.543C282.274 123.356 280.455 117.138 278.621 110.931C278.467 110.496 278.362 110.046 278.307 109.588C278.29 109.461 278.298 109.332 278.332 109.208C278.365 109.084 278.423 108.969 278.502 108.868C278.581 108.767 278.679 108.682 278.791 108.62C278.902 108.557 279.026 108.518 279.153 108.503C279.382 108.45 279.622 108.483 279.827 108.597C280.033 108.71 280.19 108.895 280.267 109.116C280.393 109.43 280.496 109.751 280.576 110.079C281.549 113.306 282.524 116.53 283.5 119.753C284.341 122.712 285.212 125.656 286.002 128.626C286.256 129.589 286.641 129.665 287.522 129.356C300.451 124.839 313.388 120.346 326.334 115.876C334.567 113.034 342.729 109.937 351.539 109.182C357.846 108.645 364.133 108.067 370.42 109.299C372.548 109.806 374.706 110.216 376.804 110.819C380.216 111.76 383.463 113.221 386.43 115.152C386.63 115.343 386.887 115.462 387.163 115.491C387.438 115.519 387.715 115.455 387.95 115.309C389.235 114.696 390.649 114.4 392.073 114.446C393.497 114.492 394.889 114.879 396.133 115.573C397.376 116.268 398.436 117.251 399.222 118.439C400.008 119.627 400.498 120.987 400.65 122.403C400.876 124.783 400.208 127.162 398.776 129.077C401.056 129.077 403.123 128.915 405.154 129.133C406.517 129.28 406.983 128.737 407.252 127.638C407.409 126.728 407.863 125.896 408.544 125.271C409.647 124.303 410.506 123.087 411.05 121.723C411.595 120.359 411.81 118.886 411.678 117.424C411.545 115.961 411.069 114.551 410.289 113.307C409.508 112.063 408.445 111.022 407.186 110.267C405.775 109.424 404.299 108.694 402.773 108.083C394.376 104.567 385.272 103.068 376.191 103.704C373.207 103.922 370.218 104.014 367.36 105.022C366.73 104.515 366.169 103.929 365.689 103.279C368.261 102.373 370.961 101.883 373.688 101.83C378.096 101.647 382.524 101.15 386.931 101.759C391.996 102.498 396.971 103.753 401.78 105.503C403.87 106.294 405.901 107.231 407.86 108.306C414.279 111.66 415.758 120.888 410.626 125.971C409.638 126.944 409.248 128.104 408.766 129.295C408.513 129.933 409.04 129.933 409.304 130.045C412.001 131.165 414.208 133.215 415.525 135.822C416.699 138.137 417.169 140.746 416.877 143.327C416.695 145.958 415.708 148.47 414.051 150.522C412.465 152.488 410.418 153.669 408.143 154.576C406.58 154.908 404.993 155.116 403.396 155.199C400.891 155.36 398.529 156.425 396.748 158.195C394.968 159.966 393.89 162.322 393.715 164.828C393.335 169.332 393.634 173.848 393.548 178.363C393.551 178.615 393.591 178.866 393.664 179.107C394.951 183.668 396.273 188.173 397.758 192.648C398.528 196.104 399.784 199.418 400.696 202.823C401.709 206.502 403.072 210.064 403.71 213.85C404.463 218.233 403.858 222.742 401.978 226.772C400.164 230.755 397.965 234.55 395.833 238.371C395.623 238.736 395.481 239.136 395.412 239.552C396.374 238.904 397.27 238.164 398.087 237.342C400.588 235.096 403.32 233.122 406.238 231.454C412.772 227.609 420.054 225.207 427.593 224.41C432.324 223.914 437.095 223.949 441.818 224.517C448.038 225.219 454.09 226.99 459.707 229.751C466.696 233.158 472.858 238.049 477.763 244.082C479.742 246.438 481.484 248.984 482.961 251.683C482.855 252.017 482.753 252.352 482.647 252.696C482.09 252.884 481.501 252.96 480.914 252.919C475.25 252.919 469.585 252.936 463.917 252.97L463.203 253.006C463.256 253.18 463.344 253.343 463.46 253.484C463.577 253.625 463.72 253.741 463.882 253.826C465.807 256.254 467.519 258.843 468.999 261.564C469.114 262.088 469.348 262.579 469.682 262.998C472.039 268.62 473.121 274.695 472.849 280.785L472.819 281.834C472.593 283.775 472.27 285.703 471.851 287.611C471.907 287.773 471.846 288.042 471.765 288.31ZM444.757 315.857C445.02 315.857 445.476 316.049 445.421 315.618C445.365 315.188 444.975 315.471 444.716 315.542L443.703 315.857H444.757ZM138.054 60.5504C138.054 60.4491 138.008 60.3376 137.872 60.4136C137.891 60.4987 137.918 60.5818 137.953 60.6619C137.972 60.7878 138.002 60.9116 138.044 61.0319C140.815 66.9911 143.541 72.9808 146.413 78.8944C146.799 79.6272 147.376 80.2413 148.084 80.6707C148.792 81.1001 149.603 81.3286 150.431 81.3319C154.565 81.4636 158.704 81.3319 162.838 81.3978C163.77 81.3978 163.78 81.0734 163.532 80.3843C161.874 75.646 159.549 71.1686 156.627 67.0874C156.226 66.53 155.963 66.4337 155.355 66.8442C153.483 68.1048 151.212 68.6299 148.977 68.3188C145.785 67.9539 143.455 66.2462 141.499 63.829C140.501 62.5774 139.554 61.2649 138.054 60.5504ZM183.782 233.562C185.251 232.655 186.684 231.682 188.194 230.861C195.119 227.015 202.799 224.727 210.698 224.157C218.333 223.615 225.841 224.157 233.147 226.523C247.899 231.342 258.68 240.798 265.667 254.632C266.918 257.229 268.029 259.892 268.995 262.608C268.19 246.504 272.541 232.254 284.194 220.382H187.951C187.782 220.392 187.613 220.392 187.444 220.382C186.938 220.331 186.7 220.523 186.679 221.081C186.444 225.305 185.367 229.44 183.513 233.243C183.397 233.39 183.219 233.577 183.351 233.749C183.548 233.952 183.65 233.653 183.782 233.562ZM372.878 228.155C373.242 227.755 373.05 227.268 373.05 226.827C373.05 217.878 373.05 208.929 373.05 199.97C373.05 195.257 375.72 191.72 380.056 190.621C382.169 190.084 384.342 190.337 386.49 190.337C387.418 190.337 387.676 190.139 387.367 189.187C386.587 186.78 385.908 184.342 385.178 181.915C382.321 172.388 379.443 162.866 376.621 153.33C376.323 152.316 375.938 152.2 375.046 152.58C373.594 153.265 372.062 153.765 370.486 154.069C370.06 154.088 369.654 154.256 369.339 154.545C369.024 154.833 368.82 155.222 368.764 155.645C364.059 173.277 359.331 190.898 354.578 208.509C351.471 220.066 348.369 231.628 345.272 243.195C345.12 243.702 344.978 244.208 344.811 244.715C344.436 245.891 344.071 246.038 342.916 245.496C342.572 244.872 342.805 244.259 342.967 243.656C349.641 218.836 356.318 194.014 362.999 169.191C364.25 164.549 365.532 159.907 366.737 155.265C366.839 154.89 367.305 154.313 366.55 154.115C365.795 153.917 365.147 153.649 364.295 154.201C359.032 157.642 352.598 155.671 350.11 149.874C349.811 149.179 349.603 149.311 349.142 149.565C347.734 150.32 346.315 151.085 344.867 151.759C324.389 161.346 303.91 170.93 283.429 180.511C279.614 182.295 275.677 183.384 271.442 182.918C262.88 181.986 256.715 177.602 253.27 169.707C251.466 165.572 250.554 161.093 249.217 156.791C247.479 151.064 245.812 145.318 244.09 139.561C243.953 139.095 244.024 138.249 243.011 138.741C239.824 140.291 236.617 141.781 233.385 143.301C233.17 143.379 232.987 143.526 232.867 143.72C232.746 143.914 232.695 144.143 232.721 144.37C232.741 156.613 232.755 168.856 232.762 181.099C232.762 184.687 232.748 188.274 232.721 191.862C232.721 192.323 232.721 192.658 233.365 192.653C238.679 192.602 244.004 192.582 249.308 192.551C250.058 192.607 250.828 192.719 251.562 192.714C257.743 192.693 263.924 192.661 270.105 192.617C270.525 192.617 270.941 192.572 271.361 192.551C275.601 192.551 279.847 192.551 284.087 192.617C287.907 192.663 291.661 192.987 294.797 195.541C294.731 196.32 294.544 197.084 294.245 197.806C291.646 195.592 288.622 194.796 285.237 194.801C251.182 194.832 217.129 194.832 183.077 194.801C182.49 194.801 181.897 194.801 181.309 194.842C178.742 194.99 176.297 195.986 174.356 197.673C172.415 199.36 171.089 201.644 170.584 204.166C169.095 210.906 174.166 217.676 181.01 218.137C182.824 218.258 184.633 218.137 186.446 218.137C219.529 218.137 252.611 218.137 285.693 218.137C286.788 218.137 287.887 218.273 288.966 217.949C288.907 218.717 288.722 219.471 288.419 220.179C287.669 220.219 286.97 220.235 286.357 220.883C282.532 224.937 279.041 229.27 276.508 234.302C273.327 240.468 271.519 247.25 271.209 254.181C270.966 260.297 271.067 266.419 270.956 272.54C270.956 273.625 271.163 273.934 272.308 273.929C284.503 273.878 296.702 273.888 308.902 273.883H310.153L310.198 273.635L299.787 265.988C299.098 267.914 298.465 269.692 297.822 271.466C297.234 273.088 297.021 273.189 295.42 272.596L278.342 266.277C276.569 265.618 276.483 265.441 277.121 263.708C280.283 255.093 283.469 246.479 286.605 237.864C287.786 234.621 289.138 231.428 290.076 228.104C290.177 227.927 290.288 227.755 290.374 227.598C290.633 227.06 290.881 226.483 291.611 226.584C292.34 226.685 292.624 227.248 292.573 227.952C288.155 239.881 283.731 251.81 279.3 263.738C279.036 264.448 279.431 264.514 279.862 264.671C284.928 266.551 289.995 268.41 295.03 270.331C295.805 270.625 296.044 270.407 296.266 269.713C296.814 268.03 297.422 266.363 298.014 264.696C298.607 263.029 299.058 262.912 300.482 263.951C304.433 266.84 308.39 269.718 312.311 272.647C313.008 273.178 313.867 273.451 314.743 273.422C328.168 273.398 341.592 273.398 355.014 273.422C358.206 273.422 358.221 273.422 357.238 270.28C355.126 263.495 350.652 259.162 343.762 257.348C342.695 257.087 341.691 256.611 340.814 255.95C336.918 252.94 335.6 249.869 337.394 245.404C337.703 244.629 337.901 243.803 338.159 243.002C338.579 242.531 339.025 241.989 339.719 242.496C340.332 242.906 340.282 243.509 340.064 244.163C340.007 244.359 339.963 244.559 339.932 244.761C339.418 245.82 339.031 246.936 338.777 248.085C338.646 248.623 338.623 249.181 338.71 249.727C338.797 250.274 338.992 250.797 339.284 251.267C339.85 252.28 340.616 253.167 341.536 253.874C342.456 254.582 343.51 255.095 344.634 255.382C348.495 256.368 351.984 258.464 354.667 261.412C357.35 264.36 359.111 268.03 359.731 271.968C359.863 272.86 360.156 273.052 361.038 272.723C362.497 272.182 363.911 271.523 365.263 270.752C369.899 268.086 372.194 263.536 374.641 259.097C374.934 258.59 374.57 258.463 374.2 258.321C373.024 257.86 371.854 257.379 370.653 256.918C366.973 255.584 363.861 253.03 361.833 249.681C360.6 247.517 359.8 245.133 359.478 242.663C360.186 242.486 360.921 242.439 361.646 242.526C361.937 246.006 363.505 249.255 366.048 251.647C368.581 254.12 371.869 255.129 375.021 256.421C375.74 256.72 376.034 256.573 376.378 255.914C378.135 252.56 379.925 249.22 381.749 245.896C382.199 245.08 382.194 244.837 381.156 244.715C379.658 244.571 378.222 244.044 376.986 243.185C375.751 242.326 374.756 241.164 374.098 239.81C373.368 238.284 373.01 236.606 373.055 234.915C372.974 232.655 373.273 230.38 372.878 228.155ZM367.401 141.168C367.3 141.168 367.143 141.072 367.102 141.112C366.955 141.254 367.067 141.371 367.198 141.467C369.022 145.014 368.936 148.485 366.778 151.885C367.33 152.148 367.942 152.257 368.551 152.2C371.115 152.159 373.344 150.958 375.684 150.173C380.522 148.51 383 143.757 381.475 139.11C381.317 138.721 381.294 138.291 381.409 137.887C381.523 137.483 381.769 137.129 382.108 136.881C383.362 135.793 384.229 134.328 384.58 132.705C384.821 131.641 385.365 130.67 386.146 129.908C389.814 126.001 388.897 118.8 384.368 116.044C382.58 115.008 380.691 114.159 378.729 113.51C371.217 110.882 363.214 109.964 355.303 110.824C350.237 111.331 345.17 111.888 340.256 113.424C328.006 117.255 315.969 121.724 303.825 125.859C297.574 127.987 291.215 129.913 285.146 132.447C273.311 137.464 261.649 142.891 249.896 148.11C249.095 148.465 248.984 148.784 249.227 149.59C250.959 155.281 252.621 160.986 254.333 166.677C255.661 171.106 258.133 174.785 261.978 177.38C268.433 181.717 275.257 182.097 282.274 178.809C302.667 169.268 323.05 159.713 343.423 150.142C345.285 149.348 347.085 148.414 348.808 147.35C349.163 147.117 349.558 146.935 349.512 146.408C349.396 145.202 349.826 144.082 350.075 142.936C350.13 142.886 350.242 142.805 350.232 142.789C350.151 142.627 350.034 142.708 349.928 142.789C348.003 143.646 346.082 144.507 344.152 145.353C343.489 145.642 342.886 145.592 342.561 144.847C342.237 144.102 342.678 143.696 343.276 143.463C347.283 141.898 350.971 139.612 355.055 138.229C360.43 136.404 365.43 137.494 370.172 140.327C370.3 140.381 370.414 140.461 370.51 140.562C370.605 140.662 370.679 140.781 370.726 140.911C370.774 141.041 370.794 141.18 370.786 141.318C370.778 141.456 370.741 141.591 370.679 141.715C370.355 142.374 369.772 142.43 369.159 142.156C368.546 141.882 367.979 141.502 367.401 141.168ZM380.137 267.985C378.797 270.228 377.191 272.302 375.355 274.162C369.351 280.096 362.102 282.959 353.682 282.959C320.92 282.959 288.159 282.959 255.397 282.959C255.102 282.977 254.806 282.977 254.511 282.959C253.796 282.863 253.599 283.192 253.498 283.876C253.027 287.733 251.91 291.483 250.194 294.969C246.101 303.416 239.834 309.664 231.267 313.526C229.241 314.438 227.138 315.046 224.949 315.806H370.137C368.845 312.836 367.604 309.988 366.362 307.141C366.131 306.74 365.998 306.29 365.972 305.828C365.972 305.321 366.129 304.901 366.651 304.739C366.886 304.634 367.149 304.615 367.396 304.684C367.643 304.754 367.858 304.907 368.004 305.119C368.204 305.44 368.374 305.779 368.51 306.132C369.797 309.061 371.044 312 372.366 314.919C372.523 315.259 372.498 315.791 373.07 315.887C373.43 315.532 373.227 315.091 373.232 314.706C373.232 311.372 373.232 308.038 373.232 304.703C373.232 303.857 373.298 302.98 374.413 302.99C375.527 303.001 375.593 303.857 375.593 304.713C375.593 308.135 375.593 311.554 375.593 314.97C375.593 315.269 375.411 315.639 375.786 315.887C376.292 315.735 376.292 315.248 376.444 314.873C377.761 311.914 379.065 308.948 380.355 305.975C380.479 305.571 380.7 305.204 380.999 304.906C381.147 304.786 381.323 304.704 381.51 304.669C381.698 304.633 381.891 304.645 382.073 304.703C382.579 304.83 382.377 305.235 382.402 305.539C382.493 306.584 382.302 307.634 381.85 308.58C380.923 310.561 380.072 312.578 379.19 314.585C378.628 315.862 378.633 315.867 380.092 315.867C394.821 315.867 409.552 315.867 424.284 315.867C424.609 315.867 424.968 316.009 425.298 315.73C425.065 315.639 424.882 315.542 424.69 315.487C417.006 313.39 410.168 308.945 405.131 302.774C400.094 296.603 397.109 289.013 396.592 281.064C396.446 278.788 396.522 278.834 394.282 279.163C389.748 279.832 385.163 279.483 380.629 279.538C379.616 279.538 379.291 278.915 379.322 277.947C379.392 274.658 379.712 271.378 380.279 268.137C380.334 268.054 380.363 267.957 380.363 267.858C380.363 267.759 380.334 267.662 380.279 267.579L380.137 267.985ZM215.663 273.909H230.614C242.935 273.909 255.261 273.909 267.597 273.909C268.737 273.909 268.955 273.564 268.757 272.566C268.407 270.792 268.184 269.018 267.784 267.235C264.81 254.166 257.936 243.636 247.048 235.817C240.231 230.882 232.284 227.737 223.936 226.67C215.324 225.545 206.807 225.961 198.514 228.768C184.156 233.623 173.776 242.957 167.245 256.639C164.929 261.526 163.449 266.768 162.868 272.145C162.671 273.919 162.635 273.914 164.419 273.914L215.663 273.909ZM382.164 147.933C381.151 149.063 380.269 150.183 379.028 150.831C378.238 151.242 378.253 151.683 378.481 152.423C380.399 158.666 382.297 164.915 384.175 171.172C386.1 177.543 388.014 183.916 389.915 190.291C390.422 191.943 390.108 192.318 388.395 192.318C386.541 192.318 384.682 192.318 382.822 192.318C378.207 192.394 375.132 195.46 375.122 200.071C375.102 211.72 375.102 223.375 375.122 235.036C375.074 236.306 375.341 237.568 375.897 238.71C377.468 241.7 380.036 242.84 383.314 242.739C385.087 242.683 385.462 243.347 384.636 244.893C381.303 251.142 377.961 257.392 374.61 263.642C373.498 265.78 372.06 267.732 370.35 269.429C365.587 274.045 359.842 276.017 353.246 276.017C287.686 276.017 222.126 276.039 156.566 276.082C156.019 276.082 155.467 276.082 154.924 276.133C154.5 276.167 154.095 276.325 153.761 276.589C153.427 276.852 153.177 277.208 153.045 277.613C152.32 279.422 153.663 280.886 156.085 280.886L353.722 280.856C356.554 280.894 359.375 280.515 362.097 279.731C369.635 277.456 375.178 272.728 378.886 265.841C385.746 253.109 392.583 240.361 399.399 227.598C400.815 225.068 401.694 222.274 401.981 219.39C402.269 216.506 401.959 213.594 401.071 210.835C397.758 199.943 394.473 189.046 391.217 178.145C388.203 168.111 385.204 158.103 382.149 147.933H382.164ZM480.22 250.801C475.987 244.062 470.307 238.35 463.593 234.079C452.093 226.888 439.534 224.76 426.306 226.619C413.595 228.408 402.93 234.292 394.48 244.006C386.445 253.234 382.21 264.027 381.49 276.229C381.434 277.202 381.637 277.522 382.67 277.486C385.031 277.4 387.397 277.486 389.763 277.456C396.506 277.456 402.378 275.211 407.302 270.529C409.694 268.253 411.214 265.37 413.042 262.694C418.058 255.367 424.983 251.039 433.88 250.887C448.815 250.614 463.77 250.791 478.7 250.776L480.22 250.801ZM446.479 252.828H435.587C429.139 252.727 422.906 255.147 418.215 259.573C415.93 261.701 414.349 264.346 412.728 266.961C409.711 272.004 405.035 275.841 399.5 277.816C399.219 277.872 398.971 278.037 398.811 278.275C398.65 278.513 398.591 278.805 398.644 279.087C398.842 289.025 402.444 297.599 409.542 304.424C418.321 312.907 428.96 316.211 441.043 314.129C448.459 312.862 455.288 309.292 460.562 303.926C465.836 298.56 469.288 291.669 470.427 284.231C472.221 272.525 469.029 262.294 460.999 253.563C460.77 253.297 460.483 253.087 460.159 252.951C459.836 252.815 459.485 252.755 459.135 252.777C454.904 252.823 450.684 252.808 446.464 252.808L446.479 252.828ZM228.653 26.3252C219.964 26.3252 211.271 26.3252 202.577 26.3252C201.65 26.3252 201.3 26.4721 201.3 27.5312C201.341 44.9192 201.341 62.3072 201.3 79.6951C201.3 80.7086 201.615 80.9113 202.567 80.9113C215.901 80.9113 229.236 80.9113 242.565 81.0582C246.111 81.0886 249.541 80.9518 252.804 79.4215C253.464 79.1373 254.159 78.9413 254.871 78.8387C255.757 78.6867 256.056 78.2914 256.051 77.3185C255.99 60.7345 255.961 44.1489 255.965 27.5616C255.965 26.5938 255.747 26.2948 254.734 26.2998C246.04 26.3404 237.347 26.3252 228.653 26.3252ZM179.845 282.989C180.444 288.204 182.186 293.221 184.947 297.685C188.729 303.788 194.238 308.629 200.776 311.595C207.314 314.56 214.585 315.516 221.667 314.341C236.961 311.838 249.252 299.327 251.476 284.028C251.603 283.177 251.38 282.979 250.539 282.984C246.319 283.03 242.094 283.075 237.873 282.984C236.541 282.949 236.12 283.395 235.786 284.606C233.456 293.155 225.34 299.712 215.582 299.681C206.757 299.681 199.142 294.209 195.986 285.964C195.616 285.001 195.718 283.582 194.882 283.157C194.046 282.731 192.739 283.035 191.644 283.035L179.845 282.989ZM137.091 24.8202C137.16 23.2488 136.943 21.678 136.453 20.1835C134.427 14.3509 131.458 8.94903 128.854 3.36981C128.631 2.87916 128.239 2.48471 127.75 2.25788C127.261 2.03106 126.708 1.98687 126.189 2.13336C124.406 2.53369 123.605 4.07926 124.396 5.82245C126.235 9.87637 128.124 13.9303 130.009 17.9842C130.333 18.6785 130.632 19.393 129.745 19.8237C128.859 20.2544 128.464 19.5349 128.15 18.871C127.374 17.2343 126.63 15.5823 125.855 13.9556C124.644 11.4574 123.666 8.84263 122.232 6.46095C121.123 4.61641 118.752 4.72788 117.728 6.60789C117.171 7.62137 117.607 8.57405 118.027 9.49125C119.831 13.383 121.645 17.268 123.468 21.1463C123.777 21.8101 123.975 22.5044 123.17 22.8996C122.364 23.2949 121.908 22.7375 121.594 22.0787C121.138 21.1311 120.717 20.1683 120.267 19.2156C118.747 15.9877 117.227 12.7394 115.631 9.54698C115.317 8.9648 114.787 8.52861 114.156 8.33166C113.525 8.1347 112.841 8.19262 112.252 8.49298C111.707 8.78263 111.283 9.25672 111.055 9.83048C110.828 10.4042 110.812 11.0402 111.011 11.6246C111.232 12.2591 111.495 12.8786 111.796 13.4793C113.461 17.067 115.131 20.6514 116.806 24.2323C117.126 24.9164 117.262 25.5803 116.487 25.9755C115.712 26.3708 115.251 25.8235 114.967 25.1495L114.709 24.5769C113.02 20.9554 111.331 17.3305 109.643 13.7023C108.665 11.5993 107.277 10.824 105.732 11.5081C104.262 12.1618 103.943 13.8188 104.911 15.9015C106.608 19.5653 108.326 23.2239 110.028 26.8826C110.184 27.18 110.314 27.4903 110.418 27.8099C110.511 28.0481 110.51 28.3126 110.416 28.5504C110.322 28.7881 110.142 28.9816 109.911 29.092C109.796 29.1483 109.671 29.1811 109.543 29.1884C109.415 29.1957 109.287 29.1773 109.166 29.1343C109.045 29.0914 108.934 29.0247 108.839 28.9383C108.745 28.8518 108.668 28.7473 108.614 28.6309C108.446 28.3403 108.294 28.0409 108.158 27.7339C106.47 24.1496 104.796 20.5669 103.138 16.986C102.869 16.2246 102.435 15.5323 101.866 14.959C101.399 14.5912 100.822 14.3912 100.227 14.3912C99.6327 14.3912 99.0555 14.5912 98.5883 14.959C97.6257 15.7039 97.3775 16.9859 98.0057 18.3896C100.073 22.9148 102.094 27.4653 104.262 31.9399C106.057 35.7363 109.171 38.7504 113.024 40.4202C116.876 42.0901 121.204 42.3017 125.201 41.0156C126.042 40.7369 126.214 40.448 125.794 39.6221C124.943 37.9802 124.208 36.2776 123.423 34.6002C123.109 33.9212 122.79 33.2067 123.747 32.7912C124.705 32.3756 125.029 33.0952 125.343 33.7641C126.133 35.4415 126.949 37.1036 127.668 38.8315C128.008 39.6373 128.312 39.7285 129.031 39.2471C134.153 35.7708 136.787 30.9517 137.091 24.8202ZM391.339 171.126H391.597C391.597 169.277 391.557 167.427 391.597 165.583C391.759 158.965 396.288 153.928 402.849 153.031C403.417 152.955 403.533 152.747 403.533 152.24C403.533 145.402 403.533 138.565 403.533 131.727C403.533 131.22 403.427 130.977 402.844 130.982C399.05 131.033 395.245 130.982 391.455 131.119C388.866 131.226 386.612 131.986 385.918 135.031C385.609 136.389 384.074 137.266 383.684 138.467C383.294 139.668 384.317 141.279 383.932 142.658C383.334 144.796 384.003 146.712 384.591 148.657C385.229 150.791 385.877 152.919 386.521 155.053C388.132 160.414 389.738 165.772 391.339 171.126ZM197.42 282.989C197.389 283.141 197.364 283.187 197.374 283.222C199.299 291.376 206.838 297.34 215.45 297.538C223.794 297.725 231.662 291.857 233.912 283.856C234.099 283.182 234.043 282.969 233.299 282.974C230.306 283.005 227.31 283.005 224.311 282.974C224.087 282.956 223.862 283.002 223.663 283.107C223.463 283.212 223.298 283.372 223.186 283.567C222.362 284.797 221.247 285.805 219.941 286.502C218.635 287.2 217.177 287.564 215.696 287.564C214.215 287.564 212.758 287.2 211.451 286.502C210.145 285.805 209.03 284.797 208.206 283.567C207.998 283.258 207.846 282.959 207.355 282.959C204.036 282.999 200.723 282.989 197.42 282.989ZM134.599 56.7093C136.693 57.1717 138.649 58.1213 140.308 59.4812C141.631 60.6062 142.649 62.0149 143.799 63.3122C146.064 65.8459 148.865 66.9962 152.204 66.0131C155.315 65.0909 157.306 62.9169 157.777 59.618C158.152 56.9982 157.27 54.728 155.532 52.7669C153.602 50.6133 151.854 48.3532 151.333 45.3938C151.201 44.654 151.089 43.9142 150.942 43.0122L134.599 56.7093ZM359.538 139.541C354.472 139.744 351.397 142.414 351.544 146.534C351.566 147.514 351.782 148.481 352.178 149.377C352.575 150.274 353.145 151.083 353.856 151.759C354.566 152.435 355.403 152.963 356.318 153.315C357.233 153.666 358.209 153.833 359.189 153.806C361.144 153.71 362.985 152.86 364.326 151.434C365.667 150.008 366.402 148.117 366.378 146.159C366.286 142.663 363.551 139.045 359.543 139.541H359.538ZM405.727 141.867C405.727 145.161 405.757 148.455 405.727 151.749C405.727 152.651 405.889 152.889 406.852 152.676C411.538 151.662 414.664 147.811 415.008 142.541C415.378 136.967 411.882 132.234 406.674 131.17C405.762 130.982 405.727 131.251 405.732 131.981C405.752 135.285 405.732 138.573 405.732 141.867H405.727ZM180.413 74.05C180.235 70.9488 178.862 68.7191 176.01 67.6296C174.171 66.9303 172.231 66.5046 170.341 65.9371C169.733 65.7547 169.54 65.9928 169.409 66.5655C168.993 68.3238 168.456 70.0569 168.076 71.8204C167.771 73.1892 167.899 74.6194 168.444 75.9119C168.989 77.2043 169.923 78.2947 171.116 79.0313C173.239 80.3843 175.762 80.4096 178.092 81.0887C178.149 81.1162 178.212 81.1302 178.276 81.1294C178.339 81.1286 178.401 81.1132 178.458 81.0842C178.514 81.0552 178.563 81.0135 178.601 80.9624C178.639 80.9113 178.664 80.8522 178.675 80.7896C179.283 78.5245 180.321 76.3658 180.418 74.05H180.413ZM389.186 129.34C391.308 128.834 393.239 128.915 395.169 128.955C395.482 128.94 395.789 128.857 396.068 128.713C396.346 128.569 396.591 128.366 396.785 128.119C399.05 125.955 399.409 122.099 397.626 119.408C396.736 118.088 395.418 117.115 393.894 116.654C392.371 116.192 390.734 116.27 389.262 116.875C388.679 117.128 388.638 117.381 388.907 117.888C389.882 119.63 390.416 121.584 390.465 123.58C390.513 125.576 390.074 127.553 389.186 129.34ZM323.664 51.3531C323.694 50.5639 323.565 49.7769 323.285 49.0385C323.005 48.3001 322.58 47.6253 322.035 47.0541C321.49 46.4828 320.835 46.0266 320.111 45.7125C319.387 45.3984 318.607 45.2327 317.817 45.2253C317.028 45.2178 316.245 45.3687 315.514 45.6691C314.784 45.9695 314.122 46.4132 313.566 46.9741C313.01 47.535 312.572 48.2016 312.279 48.9346C311.985 49.6676 311.841 50.452 311.855 51.2416C311.855 54.3125 314.56 57.1198 317.6 57.1452C318.379 57.164 319.155 57.0284 319.881 56.7462C320.608 56.4641 321.271 56.0409 321.833 55.5011C322.396 54.9613 322.846 54.3155 323.157 53.601C323.469 52.8865 323.636 52.1173 323.649 51.3379L323.664 51.3531ZM334.02 45.3381C332.389 45.4141 330.676 46.3516 329.46 48.2316C329.235 48.504 329.112 48.8462 329.112 49.1994C329.112 49.5527 329.235 49.8949 329.46 50.1673C330.835 52.1943 332.154 54.2415 333.417 56.309C333.577 56.6234 333.837 56.8752 334.157 57.024C334.476 57.1728 334.837 57.2101 335.18 57.1299C336.653 56.9428 338.004 56.2128 338.968 55.0827C339.932 53.9526 340.44 52.5035 340.393 51.0187C340.271 47.8718 337.723 45.3837 334.005 45.3229L334.02 45.3381ZM335.068 69.7022C334.364 66.6972 332.328 64.9844 329.496 64.8881C328.143 64.8425 326.795 64.7868 325.443 64.7817C322.494 64.7817 320.28 66.4489 319.708 69.1803L335.068 69.7022ZM41.3858 298.749C42.4948 298.745 43.5568 298.301 44.3386 297.514C45.1204 296.727 45.558 295.662 45.5553 294.553C45.507 293.461 45.0362 292.431 44.2423 291.68C43.4485 290.929 42.3939 290.516 41.3013 290.528C40.2086 290.541 39.1637 290.978 38.3872 291.747C37.6108 292.516 37.1636 293.557 37.1403 294.649C37.1489 295.196 37.2652 295.736 37.4826 296.237C37.6999 296.739 38.0142 297.192 38.4071 297.572C38.8001 297.952 39.2641 298.251 39.7726 298.451C40.2812 298.651 40.8242 298.749 41.3706 298.739L41.3858 298.749ZM243.593 83.0193H235.072C232.792 83.0193 232.792 83.0193 232.792 85.3149V95.5865C234.869 90.0884 238.654 86.1864 243.578 83.0092L243.593 83.0193ZM321.147 71.5366C322.205 73.4876 323.999 74.1108 326.046 74.197C327.981 74.2781 329.536 73.5484 330.707 71.5366H321.147ZM210.44 283.03C213.829 286.957 219.321 285.64 220.81 283.03H210.44Z" fill="#282937"/>
<path d="M559.354 57.7228H430.784C436.519 55.1891 440.917 50.8514 446.028 47.507C451.803 43.6342 458.75 41.9042 465.665 42.6169C468.04 42.8895 470.379 43.4179 472.641 44.1928C477.768 45.8347 482.156 44.2283 486.209 41.2791C489.111 39.166 491.7 36.6576 494.355 34.2253C497.633 31.2254 501.134 28.5092 505.693 27.6376C509.695 26.8522 513.292 27.8403 516.611 29.9839C520.537 32.5176 523.856 35.7404 527.149 38.9937C531.825 43.6152 536.658 48.034 542.215 51.5913C546.64 54.4443 551.591 56.3827 556.776 57.2921L559.354 57.7228Z" fill="#393E7F"/>
<path d="M330.063 40.5595C329.344 40.1237 328.543 40.3771 327.804 40.3568C323.335 40.4075 318.872 39.8501 314.403 40.296C310.411 40.7065 306.424 43.9901 305.421 47.6589C305.045 48.3062 304.822 49.0306 304.768 49.7771C304.595 53.0456 304.008 56.2026 302.153 58.9947C301.236 59.8055 300.634 60.895 299.62 61.6247C298.512 62.4576 297.303 63.1487 296.023 63.6821C293.744 64.6449 291.352 64.6297 288.956 64.6348H285.785C282.659 64.2902 279.528 64.4118 276.392 64.4067C275.576 64.3763 275.085 63.8493 274.619 63.2716C272.506 59.6205 271.06 55.6225 270.348 51.4646C269.868 48.323 269.834 45.1294 270.246 41.9784C270.829 36.46 272.916 31.5345 275.921 26.9485C277.628 24.3387 279.877 22.251 282.188 20.1733C285.486 17.2089 289.336 15.3086 293.475 13.9658C298.406 12.3758 303.646 11.9952 308.755 12.856C313.694 13.6019 318.4 15.4574 322.52 18.2832C329.779 23.2797 334.314 30.1713 336.376 38.715C336.68 39.9717 336.254 40.5139 334.998 40.5291L330.063 40.5595ZM295.613 45.8549C295.635 43.1731 294.598 40.591 292.727 38.6696C290.856 36.7482 288.303 35.6428 285.622 35.5934C280.141 35.4769 275.363 40.22 275.358 45.7789C275.389 48.4647 276.464 51.033 278.356 52.9398C280.247 54.8466 282.806 55.9423 285.491 55.9948C290.952 56.0506 295.598 51.4139 295.628 45.8549H295.613Z" fill="#FFA600"/>
<path d="M370.486 109.172C364.199 107.941 357.912 108.518 351.605 109.056C342.795 109.811 334.633 112.907 326.4 115.75C313.451 120.219 300.514 124.712 287.588 129.229C286.717 129.538 286.332 129.462 286.068 128.499C285.278 125.53 284.407 122.586 283.566 119.626C283.935 119.439 284.305 119.236 284.685 119.059L299.635 112.116L301.662 111.194L306.024 109.167C306.736 108.981 307.406 108.663 308 108.23C312.879 105.99 317.732 103.704 322.631 101.531C326.932 99.6252 331.041 97.2486 335.59 95.9564C345.8 93.0342 355.114 94.823 363.531 101.323C364.296 101.911 365.015 102.549 365.755 103.167C366.234 103.818 366.796 104.404 367.426 104.911C368.445 106.334 369.661 107.616 370.486 109.172Z" fill="#FFA600"/>
<path d="M132.228 71.0653C131.68 71.5724 131.268 72.2081 131.027 72.9149C130.272 73.4217 129.553 74.0348 128.758 74.4909C126.224 75.9554 123.615 75.8743 121.067 74.5771C118.65 73.3457 117.359 71.2528 117.065 68.5722C116.952 67.6914 116.964 66.7993 117.1 65.9219C117.242 65.1364 117.136 65.0655 116.396 65.2631C113.28 66.1043 110.124 66.7834 107.034 67.7158C101.866 69.236 97.0178 68.7901 92.5646 65.6483C89.3122 63.4455 87.0052 60.1017 86.1001 56.2786C85.1983 52.549 84.2003 48.8447 83.2529 45.1303C83.1668 44.8111 83.1313 44.4716 83.0705 44.1422C83.7038 43.9294 83.8507 43.4176 83.876 42.8297C88.9828 41.5072 94.0085 39.6677 99.2722 39.1913C103.178 38.8366 106.826 40.144 109.992 42.5561C113.159 44.9682 115.059 48.2519 115.986 52.1031C116.741 55.1435 117.556 58.2194 118.306 61.2852C118.559 62.3393 118.813 62.4304 119.674 61.6754C122.101 59.5876 124.902 58.9998 127.922 60.2211C131.048 61.4879 132.593 63.9659 132.922 67.2445C133.059 68.5671 132.471 69.7934 132.228 71.0653Z" fill="#393E7F"/>
<path d="M18.5372 277.962H16.5107C9.59536 277.4 4.74191 272.186 3.56148 265.735C2.54824 260.201 1.25636 254.713 0.081005 249.21C-0.268563 247.578 0.618069 245.465 1.96568 244.801C3.46021 244.061 5.16752 244.553 6.39861 246.068C6.1666 246.251 5.99708 246.501 5.91357 246.784C5.83006 247.068 5.83668 247.37 5.93249 247.649C6.83766 251.889 7.72424 256.134 8.59225 260.384C8.74424 261.103 8.92152 261.782 9.82837 261.605C10.7352 261.427 10.7504 260.713 10.6035 260.004C9.71187 255.676 8.78985 251.348 7.90833 247.021C7.7766 246.392 7.50299 246.007 6.84944 246.007C7.78669 243.626 8.50612 243.144 10.9328 243.251C12.4527 243.317 13.547 244.36 13.927 246.164C15.0466 251.47 16.1307 256.806 17.2352 262.086C17.2656 262.233 17.3213 262.375 17.6151 262.547C17.9343 261.108 18.2788 259.679 18.5777 258.235C19.4238 254.146 20.2141 250.041 21.1108 245.962C21.4908 244.193 22.5446 243.332 24.0999 243.251C26.3695 243.134 27.2815 243.757 28.1225 246.002C27.865 246.023 27.6229 246.133 27.4379 246.314C27.2529 246.494 27.1367 246.734 27.1092 246.99C26.1973 251.382 25.282 255.786 24.3633 260.201C24.257 260.708 24.3076 261.215 24.87 261.498C25.8832 261.975 26.2277 261.336 26.3898 260.485C27.2815 256.208 28.1731 251.929 29.0648 247.649C29.1637 247.368 29.1677 247.062 29.0762 246.778C28.9847 246.495 28.8027 246.249 28.5582 246.078C30.5847 243.763 33.5332 244.051 34.6883 246.727C35.1949 247.887 34.9162 249.104 34.6883 250.299C33.4926 256.01 32.4693 261.767 31.0862 267.432C29.9108 272.262 26.7546 275.54 22.0177 277.192C20.9031 277.562 19.7784 278.023 18.5372 277.962Z" fill="#393E7F"/>
<path d="M397.869 192.541C396.385 188.067 395.063 183.536 393.776 179.001C393.702 178.759 393.663 178.509 393.659 178.256C393.745 173.741 393.446 169.226 393.826 164.721C394.001 162.216 395.079 159.859 396.86 158.089C398.64 156.318 401.002 155.254 403.508 155.093C405.104 155.01 406.691 154.802 408.255 154.47C409.944 157.704 410.885 161.277 411.006 164.924C411.188 170.817 409.354 176.128 406.031 180.942C403.371 184.823 400.59 188.675 397.869 192.541Z" fill="#FFA600"/>
<path d="M157.407 51.6977C154.215 48.6573 152.847 44.9226 153.02 40.5747C153.967 39.6474 154.539 38.3755 155.603 37.5647C157.716 35.9887 160.087 35.71 162.605 36.1357C163.218 36.237 163.785 36.5715 164.434 36.4853L167.342 39.019C167.011 37.9318 166.775 36.8178 166.638 35.6898C166.881 30.9669 169.92 28.0886 174.308 27.739C176.24 27.5775 178.166 28.1183 179.732 29.2623C181.298 30.4062 182.4 32.0765 182.834 33.9668C184.354 39.7589 178.812 45.328 172.97 43.8888C172.418 43.752 171.866 43.4581 171.253 43.605C170.513 42.627 169.459 42.0088 168.451 41.0004C168.735 42.0258 168.905 43.0795 168.958 44.1422C168.689 48.4039 166.146 51.3025 162.007 52.1386C160.426 52.4426 158.942 51.8396 157.407 51.6977Z" fill="#393E7F"/>
<path d="M89.4134 248.05C89.0436 243.996 90.5128 240.084 93.1472 236.739C96.1414 232.933 99.9816 230.263 104.992 229.503C109.045 228.89 112.961 229.118 116.644 230.932C123.149 234.16 126.913 239.399 127.699 246.702C127.81 247.715 128.018 248.729 127.765 249.707C127.511 250.685 127.937 250.654 128.687 250.528C131.975 249.96 135.121 250.34 137.988 252.169C141.97 254.703 143.956 258.346 143.895 263.1C143.835 268.274 141.362 272.069 136.858 274.248C131.595 276.782 126.422 275.88 122.278 271.78C120.664 270.181 119.568 268.133 119.132 265.902C118.985 265.177 118.676 264.782 117.82 265.304C114.298 267.441 110.142 268.285 106.066 267.691C103.674 267.425 101.358 266.688 99.2523 265.522C97.1464 264.357 95.2918 262.786 93.7957 260.9C92.0886 258.74 90.7828 256.291 89.9403 253.669C89.3425 251.972 89.3983 250.183 89.4134 248.05ZM125.611 248.668C125.67 247.592 125.597 246.513 125.394 245.455C123.656 235.32 113.017 228.92 103.285 232.178C96.3744 234.494 91.8959 240.322 91.5615 247.852C91.2829 254.161 93.892 259.289 99.1608 262.694C105.544 266.834 112.11 266.642 118.488 262.365C120.196 261.215 120.91 261.554 121.022 263.606C121.073 264.828 121.346 266.03 121.827 267.154C122.738 269.191 124.273 270.887 126.209 271.996C128.146 273.105 130.385 273.571 132.603 273.326C136.706 272.956 140.41 269.687 141.514 265.456C143.323 258.509 137.39 251.683 130.262 252.509C127.762 252.758 125.442 253.922 123.747 255.777C123.205 256.365 122.582 256.938 121.827 256.218C121.072 255.499 121.609 254.809 122.166 254.257C122.718 253.618 123.364 253.066 124.081 252.62C125.348 251.987 125.601 250.978 125.601 249.737C125.606 249.362 125.611 248.982 125.611 248.668Z" fill="#282937"/>
<path d="M175.802 65.1618C174.049 64.7209 172.297 64.2699 170.539 63.8443C170.072 63.7328 169.981 63.4287 169.931 63.0234C169.779 61.7666 169.601 60.4897 169.424 59.2633C169.353 58.7566 169.226 58.2194 168.624 58.108C168.491 58.0649 168.351 58.0495 168.213 58.0629C168.074 58.0762 167.94 58.1179 167.819 58.1854C167.697 58.2529 167.59 58.3448 167.506 58.4553C167.421 58.5657 167.36 58.6924 167.327 58.8275C167.225 59.167 167.109 59.3849 166.764 59.0252C166.701 58.9697 166.629 58.9252 166.551 58.8934C165.984 58.6502 165.265 58.8934 165.31 59.3393C165.457 60.6113 161.536 60.6923 164.378 62.6332C164.971 63.0335 165.518 63.4997 166.085 63.9406C167.732 65.2074 167.732 65.2074 167.002 67.2141C165.032 66.6212 163.714 65.2784 162.716 63.5402C160.366 59.4559 162.524 53.7297 166.967 52.1436C169.338 51.2974 171.587 51.6369 173.852 52.4477C174.632 53.1014 175.412 53.7601 176.279 54.4746C176.086 53.3446 175.919 52.3565 175.772 51.3632C175.775 49.2436 176.615 47.2109 178.109 45.7082C179.604 44.2056 181.632 43.3549 183.751 43.3415C185.713 43.2801 187.632 43.9269 189.157 45.1636C190.682 46.4002 191.711 48.1443 192.056 50.0772C192.401 52.01 192.04 54.0027 191.038 55.6912C190.036 57.3796 188.46 58.6511 186.598 59.2735C184.83 59.8714 183.108 60.0234 181.35 59.2735C180.954 59.146 180.547 59.0544 180.134 58.9998C179.46 58.1029 178.492 57.5404 177.515 56.5979C177.826 57.6324 178.023 58.6978 178.102 59.7751C177.803 61.792 177.418 63.7328 175.802 65.1618Z" fill="#393E7F"/>
<path d="M160.016 28.5954C159.104 28.4991 158.324 29.0059 157.483 29.1781C154.905 29.6699 152.237 29.1344 150.049 27.6858C147.861 26.2373 146.325 23.9904 145.77 21.425C144.503 15.8762 147.898 10.2767 153.415 9.26321C160.507 7.95075 166.05 12.9776 165.883 19.5805C165.851 21.9675 164.885 24.2471 163.193 25.9299C162.721 26.4367 162.276 26.913 161.815 27.4046C161.141 27.7035 160.396 27.8758 160.016 28.5954Z" fill="#393E7F"/>
<path d="M109.683 106.395C110.234 106.87 110.883 107.216 111.583 107.409L118.169 110.713C120.327 111.792 121.716 113.936 121.498 115.866C121.204 118.491 119.552 120.189 116.938 120.883C115.636 121.233 114.562 120.787 113.523 120.305C108.574 117.995 103.675 115.567 98.7352 113.241C95.9336 111.919 94.5455 109.37 95.5131 106.147C95.8107 105.304 96.3285 104.555 97.0126 103.98C97.6968 103.404 98.5224 103.022 99.404 102.873C100.779 102.692 102.178 102.923 103.421 103.537C105.478 104.601 107.454 105.782 109.683 106.395ZM100.726 106.978C100.464 106.98 100.21 107.07 100.005 107.234C99.8006 107.397 99.6566 107.625 99.5965 107.88C99.4496 108.529 99.8751 108.893 100.412 109.132L115.17 116.297C115.91 116.652 116.69 116.87 117.085 115.907C117.48 114.944 116.695 114.665 116.072 114.356L101.638 107.378C101.314 107.236 101.005 107.105 100.726 106.978Z" fill="#FFA600"/>
<path d="M50.6417 65.9422C50.1351 70.8018 47.0245 73.3406 42.7688 73.3203C38.3714 73.3203 35.4735 69.8948 35.5546 65.5925C35.6306 61.5386 38.2751 58.2448 43.1995 58.3309C47.5716 58.3968 50.4442 61.5031 50.6417 65.9422Z" fill="#393E7F"/>
<path d="M117.703 95.1355C117.762 94.6881 117.958 94.2702 118.265 93.9396C121.493 93.6406 124.715 93.3213 127.937 93.97L130.065 95.546C130.565 96.4272 130.828 97.4234 130.828 98.4369C130.828 99.4504 130.565 100.447 130.065 101.328L127.906 103.127C127.065 102.889 126.326 103.522 125.444 103.329C124.114 102.997 122.93 102.239 122.07 101.171C120.342 99.3711 118.872 97.3399 117.703 95.1355Z" fill="#FFA600"/>
<path d="M105.874 85.178C107.197 84.766 108.618 84.7909 109.926 85.2489C110.956 86.0409 111.888 86.9527 112.703 87.9651C114 89.5106 115.064 91.2234 116.249 92.8298L115.636 94.198C113.184 94.5324 110.717 94.4058 108.255 94.4666C105.625 94.5274 103.994 93.0629 103.128 90.8535C103.052 89.8012 103.183 88.7443 103.513 87.7421C103.888 86.4955 104.84 85.7962 105.874 85.178Z" fill="#FFA600"/>
<path d="M2.58883 73.9284C2.38618 71.4454 4.69633 69.165 7.2345 69.165C10.107 69.165 12.397 71.2629 12.4122 74.0196C12.4122 76.8725 10.0767 78.9958 6.90017 78.9958C4.59505 78.9958 2.63442 76.6901 2.58883 73.9284Z" fill="#FFA600"/>
<path d="M83.8761 42.8247C83.8761 43.4125 83.7038 43.9243 83.0706 44.1371C79.3722 43.7824 75.6739 43.4581 71.9857 43.0426C71.398 42.9767 70.5975 42.6777 70.6989 41.8365C70.8103 40.9143 71.4689 40.7268 72.3555 40.8636C73.9615 41.1234 75.5874 41.2404 77.214 41.2132C75.76 40.3264 74.3415 39.3687 72.8318 38.5833C72.006 38.1475 72.1427 37.5698 72.4163 37.063C72.6899 36.5563 73.2472 36.3586 73.8957 36.7539C75.3041 37.6204 76.7581 38.4211 78.364 39.3484C78.0043 37.8637 76.8948 37.0427 76.2768 35.933C76.0994 35.6087 75.8512 35.3249 75.6486 35.0107C75.3091 34.504 74.8988 33.9162 75.6739 33.4196C76.449 32.923 77.0215 33.2219 77.4927 33.8858C78.7491 35.6543 79.9954 37.4329 81.2518 39.1964C82.1181 40.3974 82.9996 41.6085 83.8761 42.8247Z" fill="#282937"/>
<path d="M31.0052 110.961L34.5971 111.974C36.1169 112.4 37.6368 112.8 39.1314 113.257C40.3726 113.626 40.5245 114.042 39.7899 115.111C38.2042 117.402 36.5577 119.672 35.0024 121.962C34.4958 122.682 33.9183 122.844 33.3154 122.469C32.596 122.023 33.0012 121.324 33.3457 120.822C34.5515 119.059 35.7471 117.275 37.0643 115.603C37.5709 114.924 37.5 114.767 36.7502 114.589C34.7237 114.083 32.7378 113.525 30.7316 112.988C29.9311 112.775 29.9413 112.091 29.9463 111.468C29.9514 110.844 30.4985 111.007 31.0052 110.961Z" fill="#2B2C3A"/>
<path d="M103.548 87.7422C103.219 88.7444 103.088 89.8013 103.163 90.8536C101.233 91.7252 99.8042 93.2859 98.1476 94.5325C95.9792 96.1744 93.8818 97.9074 91.7388 99.5999C91.1765 100.041 90.5736 100.487 89.915 99.686C89.2564 98.8854 89.8542 98.2925 90.3557 97.8972C93.127 95.7081 95.964 93.6102 98.7453 91.4464C100.159 90.3417 101.512 89.1661 102.895 88.0208C103.087 87.8435 103.259 87.6459 103.548 87.7422Z" fill="#2B2C3A"/>
<path d="M6.84446 245.977C7.498 246.012 7.77156 246.387 7.90328 246.99C8.7848 251.318 9.70682 255.646 10.5985 259.973C10.7454 260.683 10.6998 261.407 9.82333 261.574C8.94688 261.742 8.73919 261.068 8.58721 260.353C7.7192 256.103 6.83261 251.859 5.92745 247.619C5.83164 247.339 5.82502 247.037 5.90853 246.754C5.99203 246.471 6.16155 246.22 6.39356 246.038L6.84446 245.977Z" fill="#232533"/>
<path d="M28.5987 246.048C28.8433 246.218 29.0253 246.464 29.1168 246.748C29.2083 247.032 29.2043 247.338 29.1054 247.619C28.2205 251.899 27.3288 256.178 26.4304 260.455C26.2531 261.306 25.9238 261.944 24.9105 261.468C24.3482 261.21 24.2975 260.703 24.4039 260.171C25.3158 255.779 26.2311 251.375 27.1498 246.96C27.1773 246.703 27.2935 246.464 27.4785 246.283C27.6634 246.103 27.9056 245.993 28.1631 245.972L28.5987 246.048Z" fill="#232533"/>
<path d="M175.752 51.3683C175.919 52.3818 176.086 53.3497 176.258 54.4797C175.392 53.7601 174.612 53.1014 173.832 52.4528C172.256 49.6454 170.696 46.833 168.948 44.127C168.895 43.0643 168.725 42.0106 168.441 40.9852C169.454 41.9987 170.503 42.6118 171.243 43.5899C172.59 46.2698 174.096 48.8672 175.752 51.3683Z" fill="#2B2C3A"/>
<path d="M160.016 28.5954C160.396 27.8758 161.141 27.7035 161.794 27.3995C163.314 30.1967 164.875 32.9736 166.638 35.6695C166.775 36.7976 167.011 37.9115 167.342 38.9987L164.434 36.465L160.016 28.5954Z" fill="#2B2C3A"/>
<path d="M162.792 300.234C162.063 299.935 161.181 299.565 160.295 299.22C158.268 298.42 156.287 297.604 154.271 296.833C154.12 296.796 153.981 296.723 153.862 296.623C153.744 296.522 153.65 296.396 153.589 296.253C153.527 296.111 153.499 295.956 153.507 295.801C153.514 295.646 153.557 295.495 153.633 295.359C153.681 295.219 153.757 295.092 153.858 294.984C153.958 294.876 154.08 294.79 154.215 294.732C154.351 294.674 154.497 294.644 154.644 294.646C154.792 294.647 154.937 294.68 155.071 294.741C157.919 295.871 160.756 297.041 163.593 298.202C164.099 298.409 164.474 298.774 164.338 299.357C164.175 300.026 163.598 300.178 162.792 300.234Z" fill="#282937"/>
<path d="M160.958 304.582C162.124 304.495 163.035 304.429 163.086 305.468C163.137 306.507 162.306 306.725 161.379 306.771C158.587 306.902 155.806 307.1 153.009 307.252C152.341 307.293 151.621 307.343 151.53 306.37C151.474 305.777 151.53 305.413 152.305 305.245C153.825 304.911 155.406 305.114 156.951 304.87C158.395 304.642 159.889 304.815 160.958 304.582Z" fill="#2B2C3A"/>
<path d="M204.558 315.466L204.735 315.527C204.768 315.551 204.804 315.568 204.843 315.577C204.882 315.587 204.922 315.589 204.962 315.583C205.001 315.576 205.039 315.563 205.074 315.542C205.108 315.521 205.137 315.494 205.161 315.461L206.281 315.73L206.24 315.862H204.406L204.558 315.466Z" fill="#FBFBFB"/>
<path d="M16.4347 315.674C16.4651 315.862 16.374 315.902 16.2169 315.862L16.4347 315.674Z" fill="#FBFBFB"/>
<path d="M45.0334 315.679C45.0841 315.862 44.993 315.897 44.8359 315.862L45.0334 315.679Z" fill="#FBFBFB"/>
<path d="M294.296 197.821C294.595 197.099 294.781 196.335 294.848 195.556C295.182 194.386 295.527 193.225 295.861 192.055C296.962 187.96 298.058 183.864 299.149 179.766C299.562 179.869 299.998 179.811 300.37 179.604C303.065 178.413 305.771 177.233 308.476 176.026C309.089 175.753 309.778 175.444 309.383 174.506C308.988 173.569 308.309 173.771 307.594 174.091C304.98 175.256 302.371 176.442 299.732 177.557C298.688 177.998 298.369 178.601 298.881 179.619C294.382 181.734 289.881 183.851 285.379 185.969C280.732 188.151 276.086 190.347 271.442 192.556C271.022 192.556 270.606 192.622 270.186 192.622C264.005 192.663 257.824 192.695 251.643 192.718C250.894 192.718 250.124 192.612 249.389 192.556C242.945 190.083 236.916 186.982 232.843 181.104C232.843 168.861 232.829 156.618 232.802 144.375C232.776 144.149 232.827 143.919 232.948 143.725C233.068 143.531 233.251 143.384 233.466 143.306C236.678 141.786 239.885 140.301 243.092 138.746C244.105 138.239 244.034 139.1 244.171 139.566C245.893 145.303 247.56 151.049 249.298 156.796C250.61 161.113 251.522 165.577 253.351 169.712C256.796 177.608 262.976 181.991 271.523 182.923C275.759 183.389 279.695 182.3 283.51 180.516C303.984 170.919 324.463 161.334 344.948 151.764C346.397 151.085 347.815 150.325 349.224 149.57C349.73 149.316 349.892 149.184 350.191 149.879C352.694 155.676 359.128 157.647 364.377 154.206C365.228 153.654 365.896 153.928 366.631 154.12C367.366 154.313 366.92 154.895 366.818 155.27C365.587 159.912 364.331 164.554 363.08 169.196C356.402 194.016 349.725 218.838 343.048 243.661C342.886 244.264 342.653 244.877 342.997 245.501C341.898 245.607 340.996 244.948 339.957 244.735C339.989 244.534 340.033 244.334 340.089 244.137C340.307 243.509 340.358 242.881 339.745 242.47C339.051 242.004 338.605 242.521 338.184 242.977L324.642 238.503L292.599 227.942C292.629 227.238 292.406 226.675 291.636 226.574C290.866 226.473 290.658 227.055 290.4 227.587C290.314 227.77 290.202 227.942 290.101 228.094C289.544 227.922 288.981 227.765 288.429 227.587C286.985 227.081 286.864 226.863 287.228 225.398C287.657 223.665 288.085 221.929 288.51 220.189C288.814 219.481 288.998 218.727 289.057 217.959C290.927 211.306 292.599 204.561 294.296 197.821Z" fill="#FFA600"/>
<path d="M345.292 243.175C348.393 231.611 351.495 220.049 354.599 208.488C359.327 190.871 364.056 173.25 368.784 155.625C368.841 155.202 369.044 154.812 369.359 154.524C369.674 154.236 370.08 154.068 370.507 154.049C372.083 153.745 373.614 153.244 375.066 152.559C375.958 152.179 376.343 152.306 376.642 153.309C379.464 162.846 382.341 172.368 385.199 181.895C385.928 184.322 386.607 186.759 387.387 189.166C387.696 190.119 387.438 190.317 386.511 190.317C384.363 190.317 382.189 190.063 380.077 190.6C375.74 191.7 373.08 195.237 373.07 199.95C373.045 208.904 373.07 217.853 373.07 226.807C373.07 227.248 373.263 227.734 372.898 228.135C369.777 232.594 366.658 237.057 363.541 241.523C363.348 241.848 363.07 242.114 362.737 242.293C362.404 242.472 362.028 242.556 361.651 242.536C360.926 242.45 360.191 242.496 359.483 242.673L345.292 243.175Z" fill="#FFA600"/>
<path d="M380.122 267.985L380.345 267.61C380.4 267.692 380.429 267.789 380.429 267.888C380.429 267.988 380.4 268.084 380.345 268.167L380.122 267.985Z" fill="#FDFDFE"/>
<path d="M183.782 233.562C183.65 233.653 183.549 233.952 183.351 233.719C183.219 233.562 183.397 233.374 183.513 233.212L183.782 233.562Z" fill="#FDFDFD"/>
<path d="M137.953 60.6619C137.918 60.5818 137.891 60.4987 137.872 60.4136C138.008 60.3376 138.034 60.4491 138.054 60.5504L137.953 60.6619Z" fill="#FCFCFD"/>
<path d="M367.183 141.467C367.051 141.371 366.94 141.254 367.087 141.112C367.127 141.072 367.284 141.142 367.386 141.168L367.183 141.467Z" fill="#FDFDFE"/>
<path d="M205.161 315.461C205.137 315.494 205.108 315.521 205.074 315.542C205.039 315.563 205.001 315.577 204.962 315.583C204.922 315.589 204.882 315.587 204.843 315.577C204.804 315.568 204.768 315.551 204.735 315.527C204.852 315.34 205.004 315.385 205.161 315.461Z" fill="#FEFEFE"/>
<path d="M349.913 142.744C350.019 142.678 350.135 142.597 350.216 142.744C350.216 142.744 350.115 142.84 350.059 142.891C350.005 142.848 349.956 142.798 349.913 142.744Z" fill="#FDFDFE"/>
<path d="M295.628 45.855C295.598 51.4291 290.952 56.0506 285.496 55.9898C282.811 55.9373 280.252 54.8416 278.361 52.9348C276.469 51.028 275.394 48.4597 275.363 45.7739C275.363 40.1998 280.146 35.4719 285.627 35.5884C288.311 35.6351 290.867 36.7401 292.74 38.6628C294.613 40.5856 295.651 43.1705 295.628 45.855ZM277.501 45.855C277.501 50.4714 281.124 53.8159 285.572 53.8564C287.171 53.8563 288.734 53.3811 290.063 52.4909C291.391 51.6007 292.426 50.3357 293.034 48.8566C293.643 47.3774 293.799 45.7507 293.482 44.1829C293.164 42.6151 292.389 41.1769 291.253 40.0509C290.117 38.9248 288.672 38.1616 287.102 37.8582C285.532 37.5548 283.907 37.7248 282.434 38.3467C280.96 38.9686 279.705 40.0142 278.827 41.351C277.949 42.6878 277.487 44.2555 277.501 45.855Z" fill="#232533"/>
<path d="M299.646 112.111C299.646 108.99 299.646 105.868 299.595 102.747C299.595 102.017 299.757 101.46 300.608 101.46C301.459 101.46 301.682 102.058 301.677 102.833C301.677 105.62 301.677 108.407 301.677 111.189L299.646 112.111Z" fill="#232533"/>
<path d="M299.134 179.766L298.85 179.645C298.344 178.631 298.658 178.023 299.701 177.582C302.341 176.467 304.95 175.282 307.564 174.116C308.278 173.797 308.952 173.609 309.353 174.532C309.753 175.454 309.059 175.753 308.446 176.052C305.756 177.258 303.05 178.439 300.34 179.629C299.969 179.823 299.539 179.872 299.134 179.766Z" fill="#232533"/>
<path d="M139.007 137.909C139.007 123.721 139.007 109.532 139.007 95.3432C139.007 93.372 139.103 93.2757 141.079 93.2757H219.721C221.611 93.2757 221.748 93.4277 221.748 95.3027V180.678C221.748 182.528 221.611 182.655 219.721 182.655H140.942C139.072 182.655 138.996 182.579 138.996 180.744C139.003 166.457 139.007 152.179 139.007 137.909ZM199.548 137.955C199.548 124.192 199.548 110.431 199.548 96.6709C199.548 95.7132 199.355 95.3736 198.311 95.3838C193.038 95.4395 187.759 95.4294 182.485 95.3838C181.598 95.3838 181.36 95.6371 181.36 96.5188C181.38 124.167 181.38 151.816 181.36 179.467C181.36 180.481 181.715 180.618 182.596 180.613C187.784 180.572 192.977 180.557 198.17 180.613C199.284 180.613 199.563 180.349 199.558 179.224C199.532 165.481 199.548 151.718 199.548 137.955ZM201.574 137.955C201.574 151.759 201.574 165.564 201.574 179.371C201.574 180.384 201.843 180.623 202.831 180.618C208.025 180.567 213.216 180.567 218.404 180.618C219.362 180.618 219.681 180.435 219.681 179.396C219.65 151.786 219.65 124.175 219.681 96.5644C219.681 95.6067 219.432 95.3787 218.495 95.3888C213.388 95.4344 208.277 95.4496 203.17 95.3888C201.959 95.3888 201.559 95.5915 201.569 96.909C201.61 110.591 201.584 124.273 201.584 137.955H201.574ZM179.318 138.056C179.318 124.253 179.318 110.451 179.318 96.6506C179.318 95.7131 179.156 95.3635 178.107 95.3787C172.879 95.4395 167.646 95.4192 162.402 95.3787C161.536 95.3787 161.146 95.4902 161.151 96.5188C161.181 124.167 161.181 151.813 161.151 179.457C161.151 180.471 161.536 180.607 162.402 180.597C167.509 180.567 172.616 180.542 177.722 180.597C178.933 180.597 179.333 180.4 179.328 179.077C179.308 165.415 179.328 151.738 179.328 138.061L179.318 138.056ZM159.094 137.955C159.094 124.185 159.094 110.42 159.094 96.6608C159.094 95.7233 158.932 95.3685 157.883 95.3787C152.651 95.4395 147.416 95.4395 142.178 95.3787C141.231 95.3787 140.992 95.6118 140.997 96.5594C141.021 124.173 141.021 151.787 140.997 179.401C140.997 180.45 141.352 180.613 142.279 180.602C147.427 180.562 152.579 180.547 157.726 180.602C158.836 180.602 159.114 180.344 159.109 179.229C159.086 165.479 159.084 151.722 159.104 137.955H159.094Z" fill="#2B2C3A"/>
<path d="M215.537 268.557C208.915 268.557 202.293 268.557 195.672 268.557C194.717 268.546 193.79 268.23 193.027 267.655C192.264 267.08 191.705 266.276 191.432 265.36C191.152 264.469 191.164 263.512 191.467 262.628C191.769 261.745 192.346 260.982 193.114 260.449C193.989 259.844 195.034 259.533 196.098 259.563C209.175 259.563 222.251 259.563 235.325 259.563C237.387 259.563 239.049 260.373 239.849 262.38C240.189 263.16 240.292 264.024 240.144 264.862C239.997 265.7 239.605 266.476 239.018 267.093C238.565 267.595 238.005 267.989 237.378 268.245C236.752 268.501 236.076 268.613 235.401 268.573C228.78 268.547 222.158 268.557 215.537 268.557ZM215.754 261.676C209.168 261.676 202.582 261.676 195.996 261.676C194.4 261.676 193.412 262.583 193.342 263.971C193.276 265.269 194.314 266.307 195.839 266.459C196.092 266.485 196.346 266.459 196.599 266.459H234.834C235.508 266.503 236.184 266.387 236.804 266.12C237.136 265.956 237.424 265.716 237.645 265.42C237.867 265.125 238.016 264.781 238.08 264.417C238.144 264.053 238.121 263.679 238.014 263.325C237.907 262.971 237.718 262.647 237.463 262.38C237.141 262.108 236.767 261.902 236.365 261.775C235.962 261.648 235.538 261.602 235.117 261.64C228.666 261.674 222.212 261.686 215.754 261.676Z" fill="#2B2C3A"/>
<path d="M215.673 254.151C209.006 254.151 202.339 254.151 195.667 254.151C194.713 254.147 193.785 253.835 193.022 253.262C192.259 252.69 191.7 251.886 191.43 250.971C191.159 250.056 191.191 249.078 191.519 248.182C191.848 247.286 192.457 246.52 193.255 245.997C193.992 245.492 194.865 245.222 195.758 245.222C209.052 245.222 222.347 245.222 235.644 245.222C236.671 245.181 237.68 245.503 238.493 246.133C239.305 246.762 239.87 247.658 240.087 248.663C240.3 249.659 240.175 250.697 239.733 251.614C239.291 252.532 238.557 253.276 237.645 253.73C236.866 254.056 236.021 254.195 235.178 254.136H215.673V254.151ZM215.739 252.088H231.049C232.61 252.088 234.17 252.088 235.73 252.088C236.35 252.098 236.948 251.863 237.394 251.434C237.841 251.005 238.101 250.417 238.117 249.798C238.138 249.181 237.921 248.579 237.511 248.117C237.1 247.656 236.528 247.37 235.913 247.32C235.534 247.284 235.153 247.274 234.773 247.289H196.31C195.449 247.289 194.603 247.355 194.005 248.08C193.681 248.417 193.467 248.844 193.389 249.305C193.311 249.766 193.374 250.24 193.57 250.664C193.768 251.132 194.11 251.524 194.547 251.785C194.983 252.045 195.49 252.161 195.996 252.114C202.577 252.073 209.158 252.083 215.739 252.088Z" fill="#232533"/>
<path d="M413.752 278.601C413.65 267.073 423.008 257.617 434.68 257.45C446.17 257.287 455.776 266.88 455.801 278.54C455.827 290.043 446.307 299.747 434.797 299.636C432.033 299.642 429.295 299.102 426.74 298.047C424.184 296.992 421.863 295.443 419.908 293.489C417.952 291.535 416.402 289.214 415.346 286.659C414.289 284.104 413.748 281.366 413.752 278.601ZM434.604 297.528C444.392 297.781 453.268 289.384 453.684 279.792C454.19 268.643 445.745 259.75 435.06 259.593C432.553 259.535 430.059 259.975 427.723 260.888C425.387 261.801 423.255 263.168 421.451 264.91C419.647 266.652 418.206 268.735 417.212 271.038C416.218 273.342 415.691 275.819 415.661 278.327C415.631 280.836 416.098 283.325 417.036 285.651C417.975 287.978 419.365 290.095 421.127 291.88C422.889 293.665 424.987 295.083 427.3 296.052C429.614 297.02 432.096 297.52 434.604 297.523V297.528Z" fill="#2B2C3A"/>
<path d="M228.618 33.2219C234.905 33.1864 241.192 33.1713 247.484 33.1054C248.761 33.1054 248.892 33.8047 248.897 34.8131C248.945 46.4647 249.002 58.1198 249.07 69.7782C249.07 70.6599 249.07 71.5518 249.07 72.4335C249.126 73.5331 248.629 73.9132 247.55 73.9132C240.878 73.9132 234.211 73.969 227.543 74.0044L209.943 74.0956C208.424 74.0956 208.277 73.9335 208.272 72.4132C208.201 59.9576 208.135 47.5036 208.074 35.0512C208.074 33.531 208.261 33.3486 209.837 33.3435C216.085 33.3233 222.334 33.2912 228.582 33.2472L228.618 33.2219ZM246.912 70.2697L246.734 36.7387C241.237 42.3128 235.877 47.7147 230.487 53.1166C229.94 53.6689 230.37 53.8918 230.685 54.201L236.526 59.988L246.912 70.2697ZM211.904 71.9167L245.341 71.7443C239.854 66.2817 234.444 60.9052 229.053 55.5287C228.511 54.9864 228.278 55.3868 227.964 55.706L223.247 60.4744L211.904 71.9167ZM245.052 35.2894L211.747 35.4668C217.289 40.9497 222.7 46.2857 228.075 51.647C228.775 52.3412 229.013 51.6875 229.342 51.3582C234.408 46.2603 239.456 41.1575 244.485 36.0495C244.703 35.8316 245.062 35.6796 245.052 35.2894ZM210.288 36.9718L210.465 70.4471C215.952 64.9034 221.287 59.5015 226.637 54.1148C227.032 53.7196 227.017 53.4915 226.637 53.1013C221.216 47.7806 215.82 42.4395 210.288 36.9718Z" fill="#232533"/>
<path d="M322.241 51.5203C322.233 52.0911 322 52.6358 321.593 53.0361C321.186 53.4364 320.638 53.6602 320.068 53.6588C319.497 53.6432 318.954 53.408 318.552 53.0022C318.15 52.5963 317.92 52.051 317.909 51.4798C317.909 51.1865 317.968 50.8961 318.082 50.626C318.197 50.356 318.365 50.1118 318.576 49.9079C318.786 49.7041 319.036 49.5448 319.31 49.4396C319.584 49.3345 319.876 49.2855 320.169 49.2957C320.452 49.3022 320.731 49.3653 320.989 49.4812C321.248 49.5972 321.481 49.7638 321.674 49.9711C321.867 50.1784 322.017 50.4223 322.114 50.6884C322.211 50.9544 322.255 51.2373 322.241 51.5203Z" fill="#2B2C3A"/>
<path d="M339.425 51.4848C339.415 52.0556 339.185 52.6003 338.783 53.0053C338.381 53.4104 337.838 53.6445 337.267 53.6588C336.973 53.6597 336.682 53.601 336.411 53.4861C336.14 53.3711 335.896 53.2025 335.692 52.9902C335.488 52.778 335.33 52.5266 335.226 52.2513C335.123 51.9759 335.076 51.6825 335.089 51.3886C335.095 51.1055 335.158 50.8265 335.273 50.5677C335.387 50.3089 335.552 50.0752 335.757 49.8803C335.962 49.6853 336.204 49.5329 336.469 49.4317C336.733 49.3305 337.015 49.2826 337.298 49.2907C337.868 49.3065 338.41 49.5448 338.808 49.9547C339.205 50.3647 339.427 50.9138 339.425 51.4848Z" fill="#2B2C3A"/>
<path d="M277.501 45.8752C277.493 44.2842 277.957 42.7267 278.834 41.3995C279.712 40.0724 280.963 39.0353 282.429 38.4196C283.896 37.8038 285.512 37.6369 287.074 37.9402C288.635 38.2434 290.072 39.0031 291.201 40.1232C292.331 41.2432 293.103 42.6732 293.42 44.2323C293.737 45.7913 293.584 47.4094 292.982 48.8818C292.379 50.3541 291.353 51.6146 290.034 52.5037C288.715 53.3928 287.162 53.8706 285.572 53.8767C281.124 53.8361 277.511 50.4916 277.501 45.8752Z" fill="#FFA600"/>
<path d="M434.782 287.596C432.994 287.598 431.246 287.069 429.76 286.076C428.273 285.084 427.114 283.672 426.43 282.02C425.746 280.368 425.568 278.55 425.918 276.797C426.268 275.044 427.131 273.434 428.397 272.171C429.662 270.909 431.274 270.051 433.028 269.705C434.782 269.36 436.599 269.543 438.249 270.232C439.898 270.921 441.306 272.084 442.295 273.573C443.283 275.063 443.806 276.813 443.799 278.601C443.773 280.983 442.814 283.259 441.127 284.941C439.441 286.623 437.163 287.576 434.782 287.596ZM434.822 271.598C433.448 271.591 432.102 271.991 430.955 272.748C429.808 273.505 428.91 274.584 428.375 275.851C427.84 277.117 427.692 278.513 427.949 279.864C428.207 281.214 428.858 282.458 429.821 283.439C430.784 284.42 432.015 285.093 433.361 285.375C434.706 285.657 436.104 285.534 437.38 285.022C438.655 284.51 439.751 283.632 440.528 282.498C441.305 281.365 441.73 280.026 441.748 278.652C441.756 277.73 441.582 276.817 441.235 275.963C440.889 275.109 440.378 274.332 439.73 273.677C439.083 273.021 438.313 272.5 437.463 272.143C436.614 271.787 435.703 271.601 434.782 271.598H434.822Z" fill="#282937"/>
</svg>
