<svg width="238" height="201" viewBox="0 0 238 201" fill="none" xmlns="http://www.w3.org/2000/svg">
<path opacity="0.8" d="M20.4 200.01C31.6666 200.01 40.8 190.877 40.8 179.61C40.8 168.343 31.6666 159.21 20.4 159.21C9.13339 159.21 0 168.343 0 179.61C0 190.877 9.13339 200.01 20.4 200.01Z" fill="#FFA600"/>
<path opacity="0.8" d="M155.284 14.6392L51.5726 118.351C43.6059 126.317 43.6059 139.234 51.5726 147.2L51.5797 147.208C59.5464 155.174 72.463 155.174 80.4296 147.208L184.141 43.4962C192.108 35.5295 192.108 22.6129 184.141 14.6462L184.134 14.6392C176.167 6.67246 163.251 6.67249 155.284 14.6392Z" fill="white" fill-opacity="0.29"/>
<g clip-path="url(#clip0_100_2)">
<path opacity="0.8" d="M263.693 5.97438L159.982 109.686C152.015 117.652 152.015 130.569 159.982 138.536L159.989 138.543C167.956 146.509 180.872 146.509 188.839 138.543L292.55 34.8314C300.517 26.8647 300.517 13.9481 292.55 5.98142L292.543 5.97434C284.577 -1.99235 271.66 -1.99231 263.693 5.97438Z" fill="white"/>
</g>
<defs>
<clipPath id="clip0_100_2">
<rect width="144.51" height="144.51" fill="white" transform="translate(154)"/>
</clipPath>
</defs>
</svg>
