<svg width="167" height="148" viewBox="0 0 167 148" fill="none" xmlns="http://www.w3.org/2000/svg">
<g clip-path="url(#clip0_1_614)">
<path d="M118.121 133.912L117.557 135.677L117.38 136.122C116.207 138.835 114.431 141.244 112.187 143.166L111.907 143.376C110.534 144.408 109.042 145.269 107.462 145.941C107.29 145.958 107.126 146.024 106.991 146.132C106.657 146.247 106.031 146.306 106.083 146.556C106.163 146.932 106.711 146.72 107.048 146.72C121.5 146.73 135.953 146.73 150.406 146.72C150.641 146.72 150.876 146.706 151.112 146.699C151.279 146.669 151.194 146.605 151.135 146.544C151.013 146.118 150.842 145.707 150.627 145.32C150.604 145.146 150.532 144.982 150.418 144.849C150.218 144.243 149.972 143.652 149.681 143.084C149.622 142.886 149.561 142.689 149.5 142.491C149.508 142.485 149.515 142.478 149.52 142.469C149.525 142.461 149.529 142.451 149.53 142.441C149.532 142.432 149.531 142.421 149.529 142.412C149.527 142.402 149.522 142.393 149.516 142.385L149.707 142.027C150.133 141.844 150.394 141.997 150.561 142.413C150.728 142.83 150.938 143.253 151.128 143.672C151.15 143.847 151.224 144.011 151.34 144.143C151.34 144.275 151.39 144.401 151.481 144.496C151.501 144.671 151.574 144.835 151.691 144.967L151.881 145.456C151.908 145.616 151.98 145.765 152.088 145.885C152.055 145.995 152.126 146.068 152.185 146.144C152.279 146.353 152.244 146.732 152.559 146.685C152.808 146.647 152.679 146.341 152.658 146.144C152.672 144.873 152.684 143.601 152.695 142.328C152.695 142.152 152.695 141.975 152.695 141.799C152.719 141.476 152.839 141.208 153.213 141.21C153.587 141.213 153.717 141.465 153.721 141.799C153.726 142.133 153.721 142.425 153.721 142.74C153.721 143.917 153.721 145.094 153.721 146.271C153.721 146.424 153.611 146.666 153.874 146.704C154.138 146.742 154.11 146.492 154.178 146.344C154.719 145.089 155.256 143.83 155.797 142.578C155.933 142.263 156.032 141.872 156.503 141.982C156.973 142.093 156.853 142.514 156.842 142.856C156.726 142.988 156.653 143.152 156.632 143.326C156.233 144.135 155.885 144.967 155.59 145.819C155.483 145.942 155.412 146.092 155.385 146.252C155.359 146.325 155.333 146.398 155.31 146.471C155.239 146.553 155.105 146.64 155.31 146.706C158.918 146.716 162.526 146.723 166.134 146.727C166.431 146.727 166.722 146.711 166.934 146.963C166.972 147.165 166.938 147.374 166.838 147.554L166.478 147.69C166.223 147.69 165.967 147.674 165.713 147.674H-98.7481C-98.9244 147.664 -99.1011 147.664 -99.2775 147.674C-99.4132 147.691 -99.5511 147.677 -99.6805 147.633C-99.8098 147.588 -99.9272 147.514 -100.023 147.417C-100.089 146.902 -99.887 146.699 -99.3458 146.711C-97.388 146.727 -95.4278 146.711 -93.463 146.699C-93.39 146.718 -93.3477 146.699 -93.3618 146.612C-93.3618 146.398 -93.3336 146.184 -93.3312 145.97C-93.3312 140.344 -93.3312 134.719 -93.3312 129.094H-92.39C-92.39 134.761 -92.39 140.427 -92.4041 146.092C-92.4041 146.622 -92.2676 146.735 -91.757 146.73C-87.8979 146.699 -84.0364 146.704 -80.175 146.697C-80.102 146.713 -80.0597 146.697 -80.0832 146.612C-80.408 145.24 -80.7374 143.868 -81.0527 142.496C-81.2292 141.726 -81.3939 140.954 -81.5516 140.18C-81.6128 139.869 -81.7045 139.636 -82.0881 139.655C-83.307 139.714 -84.3447 138.598 -84.6294 137.47C-85.0247 135.908 -83.8788 134.385 -82.601 134.077C-81.0904 133.712 -79.4291 134.573 -79.0714 136.072C-78.7796 137.275 -79.0714 138.516 -80.4362 139.299C-80.4867 139.316 -80.5332 139.343 -80.5729 139.378C-80.6125 139.414 -80.6444 139.457 -80.6665 139.506C-80.6886 139.554 -80.7004 139.606 -80.7013 139.66C-80.7022 139.713 -80.692 139.766 -80.6715 139.815C-80.1538 141.993 -79.6549 144.174 -79.1749 146.358C-79.109 146.652 -78.9843 146.751 -78.7043 146.72C-78.5867 146.713 -78.4689 146.713 -78.3513 146.72H-6.76985C-6.53454 146.72 -6.29923 146.709 -6.06392 146.702H-5.2121L-5.19328 146.64L-5.71331 146.516C-5.78625 146.48 -5.85684 146.459 -5.91096 146.546L-5.99332 146.518C-6.76278 146.196 -7.54167 145.899 -8.29702 145.548C-9.5548 144.978 -10.7353 144.25 -11.8102 143.383C-12.5397 142.79 -13.1727 142.112 -13.8386 141.462C-15.0716 140.26 -15.9564 138.812 -16.7611 137.296C-17.5894 135.715 -18.0412 134.001 -18.4083 132.278C-18.5848 131.44 -18.5589 131.436 -19.3966 131.436C-22.5357 131.436 -25.6724 131.398 -28.8091 131.455C-29.1597 131.462 -29.5067 131.383 -29.8202 131.226C-30.1336 131.069 -30.404 130.837 -30.6077 130.552C-30.8115 130.266 -30.9426 129.936 -30.9896 129.588C-31.0366 129.24 -30.9981 128.887 -30.8774 128.557C-30.6186 127.802 -30.0562 127.437 -29.3055 127.317C-28.5549 127.197 -27.7407 127.272 -26.9524 127.253C-26.7171 127.253 -26.5689 127.253 -26.4818 126.917C-26.3195 126.229 -26.2936 125.526 -26.1665 124.836C-25.951 123.713 -25.6697 122.605 -25.3241 121.515C-24.3689 118.486 -22.8327 115.672 -20.8014 113.23C-19.952 112.187 -18.9801 111.234 -18.1495 110.17C-16.727 108.375 -15.7924 106.243 -15.4363 103.98C-15.3634 103.509 -15.4763 103.018 -15.274 102.568C-15.1728 102.333 -15.3657 102.363 -15.4928 102.361C-15.8646 102.361 -16.2387 102.349 -16.6105 102.361C-19.1519 102.375 -20.9426 101.031 -22.1239 98.9693C-22.5619 98.2066 -22.8246 97.3559 -22.893 96.4789C-22.9614 95.602 -22.8337 94.7209 -22.5192 93.8994C-22.0201 92.4572 -21.0568 91.2214 -19.7802 90.3854H-40.6099C-41.5511 90.3854 -41.5676 90.3713 -41.5676 89.444C-41.5676 75.8335 -41.5676 62.2238 -41.5676 48.6149C-41.5676 48.3796 -41.5676 48.1442 -41.5864 47.9088L-40.584 47.0733C-40.584 47.1721 -40.584 47.271 -40.584 47.3675C-40.584 61.1914 -40.584 75.0152 -40.584 88.8391C-40.584 89.2627 -40.5322 89.4369 -40.031 89.4369C-24.797 89.4196 -9.56457 89.4196 5.66631 89.4369C6.08987 89.4369 6.17223 89.3192 6.17223 88.9168C6.16282 72.3689 6.16282 55.8203 6.17223 39.2709C6.17223 38.8755 6.09928 38.7437 5.67102 38.746C-9.58182 38.7586 -24.8338 38.7586 -40.0851 38.746C-40.5181 38.746 -40.5887 38.8825 -40.584 39.2732C-40.5628 40.9796 -40.584 42.6861 -40.584 44.3925L-41.5723 43.6605V38.6072C-42.3093 38.8489 -42.9965 39.2221 -43.6007 39.7087C-44.8666 40.7443 -45.4408 42.2082 -46.0644 43.6463C-46.207 43.7999 -46.2982 43.994 -46.3256 44.2018C-46.7962 44.8891 -47.095 45.6658 -47.4551 46.4095C-48.0198 47.5864 -48.5963 48.7397 -49.1681 49.9048C-49.4935 49.8151 -49.7949 49.6543 -50.0505 49.434C-49.2787 47.7629 -48.3563 46.1648 -47.6692 44.4513C-47.5522 44.2146 -47.4185 43.9865 -47.2692 43.7687L-46.9844 43.1333C-46.0973 41.4598 -45.4149 39.6451 -43.7136 38.5248C-45.069 38.633 -46.382 38.7931 -47.6951 38.9555C-48.4763 39.052 -49.3093 38.979 -49.9305 39.6145C-50.5378 39.3998 -51.1982 39.3875 -51.813 39.5792C-52.5566 39.4356 -53.2884 39.6169 -54.0132 39.6993C-54.7379 39.7816 -55.1544 40.3842 -55.6815 40.7867C-57.7946 42.4107 -59.8975 44.0465 -61.9902 45.694C-62.2985 45.9294 -62.5761 46.0683 -62.8679 45.727C-63.2279 45.3057 -62.835 45.0632 -62.5808 44.882C-61.0278 43.7664 -59.5806 42.5119 -58.0417 41.3751C-57.4356 40.9794 -56.8767 40.5159 -56.3757 39.9935C-57.4817 40.13 -58.5335 40.1982 -59.5571 40.4124C-59.9571 40.4948 -60.2959 40.8831 -60.6466 41.1609C-62.2608 42.4107 -63.868 43.6699 -65.4798 44.9267C-66.0046 45.3363 -66.4493 45.2704 -66.5058 44.762C-66.5458 44.4019 -66.1999 44.2253 -65.9811 44.0559C-64.621 42.9732 -63.2326 41.9211 -61.8419 40.8502C-62.6961 40.6666 -64.2068 40.7702 -65.1222 41.6128C-66.0799 42.4907 -67.1623 43.2345 -68.1812 44.0394C-68.3718 44.1877 -68.5507 44.3289 -68.8118 44.2042C-69.2025 44.0159 -69.1978 43.5169 -68.7813 43.2015C-68.1483 42.7308 -67.4988 42.2601 -66.8682 41.7893C-66.7377 41.663 -66.6217 41.5224 -66.5223 41.3704C-67.6471 41.2244 -68.6801 41.5587 -69.7342 41.6057C-70.1696 41.6269 -70.6002 41.7328 -71.0355 41.7846C-71.3555 41.8223 -71.645 41.7422 -71.685 41.3633C-71.725 40.9844 -71.4826 40.8172 -71.1179 40.7772C-69.5884 40.6101 -68.0589 40.4312 -66.5152 40.2547C-66.5152 39.937 -66.8235 39.9582 -66.9858 39.8734C-67.7224 39.5227 -68.4683 39.1862 -69.2213 38.8731C-69.6284 38.7037 -69.7531 38.44 -69.5813 38.0564C-69.4095 37.6727 -69.0966 37.821 -68.8354 37.9411C-67.7435 38.4306 -66.6117 38.8543 -65.5787 39.4498C-64.5457 40.0452 -63.5432 39.944 -62.4843 39.7769C-62.3126 39.7487 -62.1408 39.7134 -61.889 39.6663C-62.522 39.172 -63.2444 38.9602 -63.8962 38.6519C-64.8916 38.1623 -65.9269 37.7598 -66.9364 37.2962C-67.2188 37.1667 -67.6 36.9878 -67.407 36.59C-67.2141 36.1923 -66.8258 36.2205 -66.4423 36.3947C-65.021 37.049 -63.5973 37.6963 -62.1714 38.3365C-61.416 38.6801 -60.6583 39.0143 -59.9006 39.3556C-59.7851 39.419 -59.6524 39.4438 -59.5218 39.4262C-58.6935 39.3038 -57.8581 39.2144 -57.0275 39.1108C-56.9263 39.1108 -56.7781 39.1603 -56.7475 38.9861C-56.7263 38.8566 -56.8416 38.8331 -56.9263 38.7954C-58.6841 37.9975 -60.4371 37.1879 -62.202 36.4088C-62.7667 36.1734 -63.2938 35.8392 -63.8821 35.6368C-64.1739 35.538 -64.2209 35.1943 -64.0986 34.9307C-63.9762 34.6671 -63.7409 34.6248 -63.4585 34.7542C-62.4726 35.2038 -61.4772 35.6274 -60.4913 36.077C-58.6253 36.9243 -56.7616 37.7716 -54.905 38.6424C-54.56 38.7798 -54.1834 38.8181 -53.8178 38.7531C-53.0695 38.6778 -52.3236 38.5695 -51.5306 38.4683C-51.7048 38.1529 -52.0295 38.1105 -52.2766 37.9975C-54.8085 36.8207 -57.3499 35.6792 -59.8842 34.5165C-60.0724 34.4318 -60.2889 34.4318 -60.456 34.2811C-60.7054 34.0622 -60.8278 33.8104 -60.6536 33.5044C-60.4795 33.1984 -60.2324 33.3373 -59.9924 33.4456C-58.8817 33.9445 -57.7687 34.4341 -56.6604 34.9378C-54.37 35.9765 -52.082 37.0184 -49.7964 38.0634C-49.0905 38.3859 -48.3845 38.0776 -47.6786 38.0117C-45.622 37.821 -43.5795 37.5056 -41.5182 37.3338C-39.4004 37.1573 -37.3626 37.4445 -35.3036 37.7881C-34.7576 37.8519 -34.2045 37.8176 -33.6705 37.6869L-40.1228 33.921C-40.0112 33.5927 -39.8195 33.2974 -39.5651 33.0619L-34.5553 36.0134C-34.393 35.8298 -34.5436 35.7027 -34.6 35.5803C-35.8001 32.9913 -37.0096 30.4023 -38.205 27.7968C-38.2468 27.6683 -38.3256 27.5551 -38.4315 27.4714C-38.5374 27.3876 -38.6658 27.337 -38.8003 27.326C-39.0334 27.2952 -39.2644 27.2504 -39.4922 27.1919C-39.7275 27.1424 -39.951 27.0577 -40.0098 26.7847C-40.0494 26.6725 -40.0471 26.5497 -40.0034 26.4391C-39.9598 26.3284 -39.8777 26.2372 -39.7722 26.1822C-39.1651 25.8526 -39.2851 25.4572 -39.5369 24.9418C-40.3087 23.3601 -41.0428 21.762 -41.7676 20.1591C-41.9088 19.8461 -42.0312 19.7778 -42.37 19.8932C-45.6338 21.0064 -48.6034 20.3427 -51.253 18.2456C-52.326 17.3983 -53.0413 16.2191 -53.6249 14.9693C-54.1873 13.7642 -54.7097 12.538 -55.3238 11.3541C-55.796 10.4189 -56.2171 9.45875 -56.5851 8.47789C-57.0887 7.1716 -55.6956 5.444 -54.319 5.73115C-53.679 5.86531 -53.4202 5.62995 -53.1425 5.19688C-52.7072 4.52373 -51.9071 4.14008 -51.1847 4.32366C-50.6953 4.44841 -50.4341 4.34014 -50.1776 3.88824C-49.6764 3.00091 -48.8057 2.67375 -47.8245 2.94677C-47.7704 2.96976 -47.7123 2.98144 -47.6536 2.98111C-47.5949 2.98078 -47.5368 2.96844 -47.483 2.94485C-47.4293 2.92126 -47.3809 2.88693 -47.3409 2.84395C-47.3008 2.80097 -47.27 2.75026 -47.2503 2.69493C-46.6009 1.56988 -45.9891 1.30155 -44.7255 1.53692C-44.5043 1.57693 -44.2807 1.64048 -44.1772 1.30155C-43.9301 0.487183 -43.29 0.124722 -42.497 0.0399897C-42.1083 -0.0245035 -41.7093 0.024976 -41.3481 0.182439C-40.9869 0.339903 -40.679 0.598617 -40.4616 0.927326C-39.8922 1.76288 -39.5416 2.71611 -39.1203 3.63169C-38.3768 5.2463 -37.4732 6.79972 -36.9226 8.48965C-35.8472 11.766 -36.3719 14.7669 -38.6733 17.4077C-39.2459 18.0962 -39.9408 18.6731 -40.7228 19.1094C-40.9793 19.2459 -41.0946 19.4154 -40.9252 19.7684C-40.1463 21.383 -39.4098 23.0212 -38.6615 24.6523C-38.5274 24.9465 -38.4497 25.1065 -38.1273 24.7582C-37.685 24.3424 -37.2216 23.9496 -36.739 23.5814C-36.6331 23.4896 -36.426 23.4095 -36.5037 23.2307C-36.5813 23.0518 -36.772 23.0612 -36.9178 23.0894C-37.3885 23.1789 -37.8167 22.9082 -38.2968 22.9576C-38.6286 22.9929 -38.8168 22.7223 -38.7674 22.3245C-38.718 21.9267 -38.4756 21.8538 -38.205 21.9503C-37.7532 22.1103 -37.2637 21.9503 -36.8237 22.1456C-36.7225 22.1927 -36.5155 22.2303 -36.459 22.0868C-36.4457 22.0223 -36.4483 21.9555 -36.4668 21.8923C-36.4852 21.8291 -36.5189 21.7715 -36.5649 21.7243C-36.9037 21.456 -37.099 21.0676 -37.4026 20.7828C-37.5956 20.5945 -37.7391 20.3898 -37.4873 20.1403C-37.2355 19.8908 -36.9437 19.8084 -36.6755 20.1026C-36.2849 20.5334 -35.9201 20.9853 -35.5224 21.4513C-35.2871 20.9806 -35.3648 20.5098 -35.3601 20.0391C-35.3776 19.8249 -35.3713 19.6094 -35.3413 19.3965C-35.3321 19.3335 -35.3097 19.2732 -35.2756 19.2194C-35.2415 19.1657 -35.1964 19.1197 -35.1433 19.0846C-35.0902 19.0495 -35.0303 19.026 -34.9675 19.0157C-34.9047 19.0054 -34.8404 19.0084 -34.7789 19.0247C-34.4894 19.0882 -34.273 19.2388 -34.3083 19.5848C-34.4129 20.2249 -34.4445 20.8747 -34.4024 21.5219C-33.8706 21.4066 -33.5811 20.9335 -33.1811 20.6393C-32.3552 20.0297 -31.6281 19.2906 -30.828 18.6504C-30.5056 18.3939 -30.1432 18.4457 -29.9409 18.8858C-30.0162 20.9052 -29.3856 22.6517 -27.9031 24.0639C-26.3995 25.9868 -26.2395 27.9686 -27.6678 30.0092C-27.8043 30.2022 -27.7337 30.3152 -27.6207 30.4799C-26.0395 32.6228 -24.815 35.0072 -23.9946 37.5409C-23.9546 37.661 -23.9687 37.8422 -23.7781 37.8422C-23.1169 37.8422 -22.4533 37.8422 -21.6603 37.8422C-23.4322 36.6654 -24.1664 35.305 -23.9569 33.5632C-23.8307 32.7926 -23.665 32.0291 -23.4604 31.2755C-23.1216 30.334 -23.1216 30.334 -23.8863 29.755C-24.1499 29.5502 -24.404 29.3337 -24.6793 29.1478C-25.9994 28.2463 -24.1781 28.2063 -24.2464 27.6179C-24.2676 27.4225 -23.9334 27.2978 -23.6698 27.4108C-23.6337 27.4255 -23.6003 27.4462 -23.571 27.472C-23.411 27.6391 -23.3569 27.5379 -23.3098 27.3802C-23.2943 27.3174 -23.2659 27.2586 -23.2266 27.2073C-23.1873 27.1559 -23.1379 27.1133 -23.0814 27.0819C-23.0249 27.0506 -22.9625 27.0312 -22.8981 27.025C-22.8338 27.0188 -22.7689 27.0259 -22.7074 27.0459C-22.4274 27.0977 -22.3686 27.3425 -22.3357 27.5826C-22.2533 28.1639 -22.1709 28.7453 -22.1003 29.329C-22.0768 29.5173 -22.0344 29.6585 -21.818 29.7103C-21.0014 29.908 -20.1873 30.1175 -19.3731 30.3223C-19.3099 30.3644 -19.2438 30.4022 -19.1754 30.4352C-16.747 31.4214 -15.7776 33.4644 -16.547 35.9922C-16.7 36.4959 -16.86 36.9996 -17.0176 37.5056C-17.0671 37.6751 -17.1306 37.8563 -16.8247 37.8563C-15.4128 37.8563 -13.9868 37.8563 -12.4597 37.8563C-13.1656 36.656 -13.7892 35.5568 -14.4292 34.4647C-15.7266 32.2538 -17.0247 30.0437 -18.3236 27.8344C-18.3606 27.334 -18.4521 26.8392 -18.5966 26.3587C-18.1424 26.7965 -17.693 27.0648 -17.38 27.4743C-15.4473 30.8118 -13.5186 34.1501 -11.5937 37.4892C-11.5403 37.6116 -11.4491 37.7137 -11.3336 37.7806C-11.218 37.8475 -11.0841 37.8757 -10.9513 37.861C-10.2854 37.8399 -9.61712 37.8281 -8.95119 37.861C-8.52998 37.8846 -8.44055 37.7481 -8.44291 37.3409C-8.45702 32.9513 -8.44291 28.5593 -8.44291 24.1603C-8.44291 20.1215 -8.44291 16.0826 -8.44291 12.046C-8.44291 11.467 -8.2782 11.3399 -7.71816 11.3399C0.847145 11.3556 9.41247 11.3556 17.9778 11.3399C18.7755 11.3399 18.7943 11.3564 18.7966 12.1684C18.817 19.9308 18.8367 27.6979 18.8555 35.4697C18.8555 36.2605 18.8555 36.2605 19.6226 36.0864L27.0114 34.4106C26.5133 33.4436 26.2391 32.3769 26.2089 31.2896C26.1854 30.6918 26.1925 30.0045 26.5337 29.4255C26.7502 29.6938 26.9784 29.9386 27.3573 29.9527C27.0683 31.2507 27.2345 32.6086 27.8279 33.7986L31.7105 30.0586H33.1835C31.5599 31.5932 29.948 33.1372 28.3102 34.653C27.43 35.447 26.8361 36.5092 26.6207 37.6751C26.3004 39.2608 26.445 40.9053 27.0372 42.4107C27.4416 43.5273 28.2209 44.4691 29.2421 45.075C31.2328 46.2095 33.5765 45.9012 35.4355 44.2724L39.6499 40.5677C37.7392 38.7154 36.8967 36.4771 37.2968 33.8174C37.5533 32.0945 37.8544 30.3787 38.1368 28.6606C38.6074 28.3216 38.8898 27.8156 39.3134 27.439C38.9463 29.6609 38.5627 31.878 38.2192 34.1022C38.0614 35.118 38.1524 36.1568 38.4842 37.1296C38.816 38.1025 39.3788 38.9803 40.1243 39.6878C40.8698 40.3953 41.7758 40.9113 42.7645 41.1917C43.7532 41.472 44.7951 41.5083 45.8009 41.2974C48.3611 40.7631 50.2882 39.3179 51.6836 37.1479C52.1543 36.4126 52.4839 35.5961 52.6555 34.7401C50.7871 36.1264 47.7704 35.3709 47.1092 33.3655C47.0621 33.222 47.0081 33.1302 46.841 33.1043C46.3962 33.0266 46.3703 32.7018 46.4174 32.3417C46.6151 30.6753 47.8764 29.3102 49.5541 29.1972C50.9801 29.1031 52.2249 28.4911 53.5544 28.1004C53.7356 28.0463 53.8909 28.0086 53.7238 27.7544C52.7684 26.2998 51.8194 24.8398 50.8765 23.3742C50.8344 23.2843 50.7596 23.2139 50.6674 23.1772C50.5751 23.1404 50.4724 23.1402 50.3801 23.1765C50.1447 23.266 50.2671 23.4801 50.2718 23.6472C50.3022 24.3156 50.157 24.9802 49.8506 25.5749C49.476 26.3046 48.8669 26.8871 48.1212 27.2286C47.3756 27.5701 46.5367 27.6509 45.7397 27.4578C44.9013 27.2594 44.1583 26.7747 43.6386 26.0874C43.1189 25.4 42.8551 24.5529 42.8925 23.692C42.9066 23.2377 42.796 23.1247 42.363 23.1506C41.7583 23.1883 41.1488 23.1624 40.5417 23.1624C40.5653 22.8164 40.6684 22.4806 40.8429 22.1809C41.4665 22.1809 42.0947 22.1644 42.7254 22.1974C42.8856 22.2171 43.0481 22.1884 43.1919 22.115C43.3358 22.0416 43.4544 21.9268 43.5325 21.7855C43.8719 21.2692 44.3364 20.8471 44.8828 20.5587C45.4291 20.2702 46.0396 20.1248 46.6573 20.1358C47.275 20.1469 47.8798 20.314 48.4155 20.6218C48.9512 20.9296 49.4004 21.368 49.7212 21.8961C49.9236 22.2162 50.8624 22.3339 51.1071 22.0585C51.6742 21.4113 52.0907 20.7311 51.6413 19.8273C51.4915 19.4884 51.3595 19.142 51.246 18.7893C51.5966 18.7893 51.9519 18.681 52.2955 18.8834C52.4331 19.1786 52.535 19.4891 52.599 19.8084C52.6484 20.451 52.9355 20.3945 53.4391 20.2674C55.5969 19.7308 57.4558 21.0723 57.9429 23.0047C58.4135 24.8876 57.077 27.1095 55.2321 27.3896C54.8674 27.4461 54.6909 27.592 54.9803 27.9804C55.2698 28.3687 55.0062 28.5923 54.6886 28.7688C54.5275 28.8665 54.352 28.938 54.1685 28.9807C53.9332 29.0207 53.6626 28.9807 53.5944 29.2537C53.5097 29.5855 53.8297 29.7079 54.0344 29.8609C54.522 30.181 54.9204 30.6198 55.192 31.136C55.4637 31.6523 55.5998 32.2292 55.5875 32.8124C55.5875 33.2173 55.458 33.3867 55.0415 33.3608C54.6933 33.3373 54.265 33.2526 54.0109 33.415C53.7567 33.5774 53.8603 34.0575 53.7756 34.3894C53.0555 37.4491 51.406 39.8028 48.5987 41.3044C46.9264 42.2101 45.0242 42.6023 43.1301 42.4319C42.3168 42.4024 41.5124 42.2509 40.7441 41.9823C40.377 41.834 40.5087 42.2177 40.5252 42.333C40.7088 43.4016 40.9158 44.4678 41.1135 45.534C41.3865 46.998 41.6547 48.4643 41.9277 49.9306C41.9598 50.0616 41.9999 50.1905 42.0477 50.3166C41.7718 50.518 41.4605 50.6657 41.13 50.7521C40.5958 47.8688 40.0616 44.9879 39.5134 42.0223C39.2992 42.1918 39.1487 42.3024 39.0098 42.4248C37.9957 43.3192 37.0003 44.2371 35.9673 45.108C34.3648 46.4613 32.5317 47.0592 30.4516 46.5672C27.922 45.9694 26.4513 44.2418 25.8395 41.8152C25.3006 39.7252 25.3077 37.6257 26.3101 35.6368C26.2435 35.6087 26.1719 35.5942 26.0995 35.5942C26.0272 35.5942 25.9556 35.6087 25.8889 35.6368C24.037 36.0558 22.1875 36.4771 20.3356 36.8866C17.533 37.5056 14.787 38.2729 12.3044 39.7699C9.95133 41.1821 8.30416 43.1615 7.83353 45.9435C7.63823 47.1039 7.66646 48.2972 7.61704 49.474C7.40056 54.6827 6.98405 59.8843 7.07581 65.1047C7.07581 65.2695 7.07581 65.4342 7.07581 65.6884C8.54651 64.9823 9.89956 64.3092 11.2973 63.6878C11.782 63.4689 11.8997 63.2689 11.7256 62.7463C11.2173 61.2047 10.7843 59.6395 10.3137 58.0837C10.2078 57.7377 10.1349 57.3964 10.5772 57.267C10.9843 57.1493 11.1302 57.4435 11.2126 57.7777C11.2338 57.8719 11.2714 57.9637 11.2997 58.0578C12.2409 61.2306 13.1821 64.4127 14.1234 67.5784C14.2552 68.0303 14.3869 68.0844 14.8293 67.8891C20.105 65.5119 25.3893 63.1488 30.6822 60.7999C31.0022 60.6563 31.1034 60.5645 30.9857 60.1691C30.108 57.2953 29.2633 54.4073 28.4114 51.5241C28.3401 51.3221 28.2912 51.113 28.2655 50.9003C28.2577 50.8414 28.2616 50.7814 28.2772 50.724C28.2928 50.6666 28.3196 50.6128 28.3562 50.5659C28.3928 50.519 28.4384 50.4799 28.4903 50.4508C28.5422 50.4218 28.5994 50.4033 28.6585 50.3967C28.7647 50.372 28.8763 50.3874 28.9718 50.44C29.0674 50.4925 29.1402 50.5785 29.1762 50.6814C29.2346 50.8269 29.2826 50.9764 29.3197 51.1286C29.7715 52.6271 30.2241 54.1249 30.6775 55.6218C31.0681 56.9963 31.4728 58.3638 31.8399 59.7431C31.9576 60.1903 32.1364 60.2256 32.5458 60.082C38.551 57.9841 44.56 55.8972 50.573 53.8213C54.3968 52.5008 58.1876 51.0627 62.2797 50.712C65.2093 50.4626 68.1295 50.1942 71.0497 50.7662C72.038 51.0015 73.0405 51.1922 74.0146 51.4723C75.5995 51.9091 77.1076 52.5879 78.4855 53.4847C78.5784 53.5735 78.6982 53.6288 78.826 53.6421C78.9538 53.6553 79.0824 53.6256 79.1915 53.5576C79.7888 53.2729 80.4455 53.1355 81.1068 53.1569C81.7681 53.1782 82.4147 53.3578 82.9924 53.6804C83.57 54.0031 84.062 54.4595 84.4271 55.0114C84.7922 55.5634 85.0197 56.1948 85.0907 56.8528C85.1953 57.9583 84.885 59.0632 84.22 59.9525C85.2789 59.9525 86.239 59.8772 87.1826 59.9784C87.8156 60.0467 88.0321 59.7948 88.1568 59.2841C88.2298 58.8614 88.4408 58.4749 88.7568 58.1849C89.2693 57.735 89.6683 57.1703 89.9212 56.5369C90.1741 55.9035 90.2739 55.2193 90.2125 54.54C90.151 53.8607 89.93 53.2056 89.5674 52.6279C89.2049 52.0502 88.7111 51.5664 88.1262 51.2157C87.4707 50.8243 86.7854 50.4852 86.0767 50.2013C82.1763 48.5685 77.9478 47.8721 73.7299 48.1677C72.3439 48.269 70.9556 48.3113 69.6284 48.7797C69.3358 48.5444 69.0749 48.2722 68.8519 47.97C70.0467 47.5491 71.301 47.3219 72.5674 47.2969C74.6147 47.2121 76.6713 46.9815 78.7185 47.2639C81.0707 47.6072 83.3817 48.19 85.6155 49.0033C86.586 49.3706 87.5295 49.8056 88.4392 50.3049C91.4206 51.863 92.1077 56.149 89.724 58.5097C89.2651 58.9616 89.0839 59.5006 88.8604 60.0538C88.7427 60.3503 88.9874 60.3503 89.1098 60.4021C90.3625 60.9225 91.3876 61.8744 91.9994 63.0853C92.5449 64.1608 92.7633 65.3727 92.6277 66.571C92.5431 67.7934 92.0847 68.9603 91.3147 69.9133C90.5782 70.8265 89.6275 71.3749 88.5709 71.7962C87.8447 71.9503 87.1075 72.0471 86.3661 72.0857C85.2023 72.1603 84.1052 72.6548 83.2782 73.4771C82.4513 74.2995 81.9506 75.3941 81.8693 76.5577C81.6928 78.6501 81.8317 80.7472 81.7917 82.8443C81.7934 82.9616 81.8116 83.0781 81.8458 83.1903C82.4435 85.3086 83.0576 87.401 83.7471 89.4793C84.1047 91.0845 84.6883 92.6238 85.1119 94.2054C85.5825 95.9142 86.2155 97.5688 86.512 99.327C86.8615 101.363 86.5807 103.457 85.7072 105.329C84.8648 107.179 83.8436 108.942 82.8529 110.716C82.7558 110.886 82.6896 111.072 82.6576 111.265C83.1043 110.964 83.5204 110.62 83.9 110.239C85.0615 109.195 86.3306 108.278 87.6862 107.504C90.721 105.718 94.1029 104.602 97.6045 104.232C99.802 104.001 102.018 104.018 104.212 104.281C107.101 104.608 109.912 105.43 112.521 106.713C115.767 108.295 118.629 110.567 120.907 113.369C121.827 114.463 122.635 115.646 123.322 116.899C123.272 117.055 123.225 117.21 123.176 117.37C122.917 117.458 122.643 117.493 122.371 117.474C119.74 117.474 117.109 117.482 114.476 117.497L114.145 117.514C114.169 117.595 114.21 117.671 114.264 117.736C114.318 117.801 114.385 117.856 114.46 117.895C115.354 119.022 116.149 120.225 116.836 121.489C116.89 121.732 116.999 121.96 117.154 122.155C118.249 124.766 118.751 127.588 118.625 130.417L118.611 130.904C118.506 131.805 118.356 132.701 118.161 133.587C118.187 133.662 118.159 133.787 118.121 133.912ZM105.577 146.706C105.699 146.706 105.911 146.796 105.885 146.596C105.859 146.396 105.678 146.527 105.558 146.56L105.087 146.706H105.577ZM-36.8778 28.1239C-36.8778 28.0769 -36.899 28.0251 -36.9626 28.0604C-36.9536 28.0999 -36.9409 28.1385 -36.9249 28.1757C-36.9161 28.2341 -36.9019 28.2917 -36.8825 28.3475C-35.5954 31.1154 -34.3294 33.8975 -32.9952 36.6442C-32.8162 36.9845 -32.548 37.2698 -32.2192 37.4692C-31.8905 37.6686 -31.5137 37.7748 -31.1292 37.7763C-29.2091 37.8375 -27.2866 37.7763 -25.3665 37.8069C-24.9335 37.8069 -24.9288 37.6563 -25.0441 37.3362C-25.814 35.1354 -26.894 33.0557 -28.2514 31.1602C-28.4373 30.9013 -28.5596 30.8565 -28.842 31.0472C-29.7114 31.6327 -30.7664 31.8766 -31.8046 31.7321C-33.287 31.5626 -34.3694 30.7694 -35.2777 29.6467C-35.7413 29.0654 -36.1813 28.4558 -36.8778 28.1239ZM-15.6387 108.483C-14.9563 108.061 -14.2904 107.61 -13.5891 107.228C-10.373 105.442 -6.80584 104.379 -3.13667 104.114C0.409462 103.863 3.89677 104.114 7.28996 105.214C14.1422 107.452 19.1496 111.844 22.3945 118.269C22.9758 119.476 23.4919 120.712 23.9405 121.974C23.5664 114.494 25.5877 107.876 30.9998 102.361H-13.7021C-13.7805 102.366 -13.859 102.366 -13.9374 102.361C-14.1727 102.337 -14.2833 102.427 -14.2927 102.686C-14.4022 104.648 -14.9022 106.568 -15.7634 108.334C-15.8175 108.403 -15.8999 108.49 -15.8387 108.57C-15.747 108.664 -15.6999 108.525 -15.6387 108.483ZM72.191 105.971C72.3604 105.785 72.271 105.56 72.271 105.355C72.271 101.198 72.271 97.0416 72.271 92.8803C72.271 90.6914 73.5111 89.0486 75.5253 88.5378C76.5066 88.2883 77.516 88.406 78.5137 88.406C78.9444 88.406 79.0644 88.3142 78.9208 87.8717C78.5585 86.7537 78.2432 85.6216 77.9043 84.4942C76.5772 80.0693 75.2406 75.6468 73.9299 71.2172C73.7911 70.7464 73.6123 70.6923 73.1981 70.8688C72.5238 71.187 71.8124 71.4195 71.0803 71.5608C70.8823 71.5696 70.6936 71.6477 70.5474 71.7815C70.4011 71.9153 70.3065 72.0963 70.2802 72.2928C68.095 80.482 65.8988 88.6665 63.6915 96.8462C62.2483 102.214 60.8074 107.584 59.3689 112.957C59.2983 113.192 59.2324 113.428 59.1547 113.663C58.9806 114.209 58.8112 114.277 58.2747 114.026C58.1147 113.736 58.2229 113.451 58.2982 113.171C61.3981 101.643 64.4995 90.114 67.6024 78.5842C68.1836 76.4282 68.779 74.2722 69.339 72.1163C69.3861 71.9421 69.6026 71.6738 69.252 71.582C68.9014 71.4902 68.6002 71.3655 68.2048 71.622C65.76 73.2202 62.7715 72.3046 61.6161 69.612C61.4773 69.2895 61.3808 69.3507 61.1667 69.4684C60.5125 69.8191 59.8536 70.1745 59.1806 70.4875C49.6694 74.9407 40.1573 79.3922 30.6445 83.8422C28.8727 84.6707 27.0443 85.1768 25.0771 84.9602C21.1003 84.5272 18.2366 82.4912 16.6365 78.8242C15.7988 76.9036 15.3752 74.823 14.754 72.8247C13.9469 70.1651 13.1727 67.496 12.3727 64.8223C12.3091 64.6058 12.3421 64.2127 11.8714 64.441C10.3913 65.1612 8.90182 65.8532 7.40054 66.5593C7.30073 66.5952 7.21596 66.6638 7.16 66.7539C7.10405 66.8441 7.08021 66.9505 7.0923 67.0559C7.10172 72.7424 7.10798 78.4288 7.11111 84.1153C7.11111 85.7817 7.10485 87.4481 7.0923 89.1145C7.0923 89.3286 7.09231 89.484 7.39115 89.4816C9.85956 89.4581 12.3327 89.4487 14.7964 89.4345C15.1446 89.4604 15.5023 89.5122 15.8435 89.5099C18.7143 89.5005 21.5851 89.4855 24.4558 89.4651C24.6512 89.4651 24.8441 89.444 25.0394 89.4345C27.009 89.4345 28.9809 89.4346 30.9505 89.4651C32.7247 89.4863 34.4683 89.637 35.9249 90.8232C35.894 91.185 35.8075 91.5399 35.6684 91.8753C34.4613 90.8467 33.0565 90.4772 31.4846 90.4796C15.667 90.4937 -0.149773 90.4937 -15.9658 90.4796C-16.2387 90.4796 -16.5141 90.4796 -16.787 90.4984C-17.9793 90.5674 -19.1152 91.0299 -20.0166 91.8135C-20.918 92.5972 -21.5342 93.6578 -21.7685 94.8292C-22.4604 97.9595 -20.1049 101.104 -16.9259 101.318C-16.0835 101.375 -15.2434 101.318 -14.401 101.318C0.964798 101.318 16.3306 101.318 31.6964 101.318C32.2046 101.318 32.7153 101.382 33.2165 101.231C33.1891 101.588 33.1033 101.938 32.9623 102.267C32.6141 102.286 32.2894 102.293 32.0046 102.594C30.228 104.477 28.6067 106.489 27.4302 108.826C25.9526 111.69 25.1129 114.84 24.9688 118.06C24.8559 120.901 24.903 123.744 24.8512 126.587C24.8512 127.091 24.9477 127.234 25.4795 127.232C31.1434 127.209 36.8097 127.213 42.476 127.211H43.0572L43.0783 127.096L38.2427 123.544C37.9227 124.438 37.6286 125.264 37.3297 126.088C37.0567 126.841 36.9579 126.888 36.2143 126.613L28.282 123.678C27.4584 123.372 27.4184 123.29 27.7149 122.485C29.1833 118.483 30.6634 114.482 32.1199 110.481C32.6682 108.975 33.2965 107.492 33.7318 105.948C33.7789 105.865 33.8306 105.785 33.8706 105.713C33.9906 105.463 34.106 105.195 34.4448 105.242C34.7836 105.289 34.9154 105.55 34.8919 105.877C32.84 111.418 30.7849 116.958 28.7267 122.499C28.6044 122.828 28.7879 122.859 28.9879 122.932C31.341 123.805 33.6942 124.669 36.0332 125.561C36.3932 125.697 36.5038 125.596 36.6073 125.274C36.8614 124.492 37.1438 123.718 37.4191 122.944C37.6944 122.169 37.9039 122.115 38.5651 122.598C40.4005 123.939 42.2383 125.276 44.0596 126.637C44.3834 126.883 44.7824 127.01 45.1891 126.997C51.4248 126.986 57.6598 126.986 63.8939 126.997C65.3764 126.997 65.3834 126.997 64.9269 125.537C63.9457 122.386 61.8679 120.373 58.6677 119.531C58.1719 119.409 57.7059 119.188 57.2982 118.881C55.4886 117.483 54.8768 116.057 55.7098 113.983C55.8534 113.623 55.9451 113.24 56.0651 112.868C56.2605 112.649 56.4675 112.397 56.7899 112.632C57.0746 112.823 57.0511 113.103 56.9499 113.407C56.9237 113.498 56.9032 113.591 56.8887 113.684C56.6501 114.176 56.47 114.694 56.3522 115.228C56.2912 115.478 56.2806 115.737 56.321 115.991C56.3614 116.245 56.452 116.488 56.5875 116.706C56.8507 117.177 57.2066 117.589 57.6338 117.917C58.0609 118.246 58.5504 118.484 59.0724 118.618C60.8661 119.075 62.4863 120.049 63.7326 121.418C64.9789 122.788 65.7967 124.492 66.0847 126.321C66.1459 126.735 66.2823 126.825 66.6917 126.672C67.3697 126.421 68.0261 126.114 68.6543 125.756C70.8074 124.518 71.8733 122.405 73.0099 120.343C73.1463 120.108 72.9769 120.049 72.8051 119.983C72.2592 119.769 71.7156 119.545 71.1579 119.331C69.4486 118.711 68.0029 117.525 67.0612 115.97C66.4883 114.965 66.1167 113.857 65.967 112.71C66.2961 112.628 66.6373 112.606 66.9741 112.646C67.1092 114.263 67.8377 115.772 69.019 116.883C70.1956 118.032 71.7227 118.5 73.1863 119.1C73.5205 119.239 73.657 119.171 73.817 118.865C74.6327 117.307 75.4642 115.756 76.3113 114.212C76.5207 113.833 76.5183 113.72 76.0359 113.663C75.3402 113.596 74.6734 113.351 74.0994 112.952C73.5255 112.553 73.0636 112.014 72.7581 111.385C72.4188 110.676 72.2527 109.897 72.2733 109.111C72.2357 108.061 72.3745 107.005 72.191 105.971ZM69.6473 65.5684C69.6002 65.5684 69.5272 65.5237 69.5084 65.5425C69.4402 65.6084 69.492 65.6625 69.5532 65.7073C70.4003 67.3548 70.3603 68.9671 69.3578 70.5464C69.6142 70.6685 69.8988 70.719 70.1814 70.6923C71.3721 70.6735 72.4075 70.1157 73.4946 69.7508C75.7418 68.9788 76.8925 66.7711 76.1842 64.6128C76.1109 64.4321 76.1001 64.232 76.1534 64.0444C76.2066 63.8568 76.321 63.6924 76.4783 63.5772C77.0606 63.0718 77.4634 62.3914 77.6266 61.6378C77.7385 61.1436 77.9911 60.6923 78.3538 60.3385C80.0574 58.5239 79.6315 55.1793 77.5278 53.8989C76.6975 53.4178 75.8199 53.0234 74.9088 52.7221C71.4199 51.5015 67.7026 51.0753 64.0281 51.4746C61.675 51.71 59.3218 51.9689 57.0393 52.6821C51.3495 54.4614 45.7585 56.5374 40.1181 58.458C37.2144 59.4465 34.2613 60.3409 31.4422 61.5177C25.9454 63.8479 20.5285 66.3686 15.0693 68.7929C14.6975 68.9577 14.6458 69.1059 14.7587 69.4802C15.5635 72.1233 16.3353 74.7736 17.1306 77.4167C17.7471 79.4739 18.8955 81.1826 20.6815 82.3877C23.6793 84.4024 26.849 84.5789 30.108 83.0514C39.58 78.6202 49.0474 74.182 58.51 69.7367C59.3751 69.3677 60.2112 68.9342 61.0114 68.4399C61.1761 68.3316 61.3596 68.2469 61.3384 68.0021C61.2843 67.4419 61.4843 66.9217 61.5997 66.3898C61.6255 66.3663 61.6773 66.3286 61.6726 66.3216C61.635 66.2463 61.5808 66.2839 61.5314 66.3216C60.6372 66.7193 59.7454 67.1194 58.8489 67.5125C58.5406 67.6467 58.2606 67.6231 58.11 67.2771C57.9594 66.9312 58.1641 66.7429 58.4417 66.6346C60.3031 65.9073 62.0161 64.8458 63.9127 64.2033C66.4094 63.3559 68.7319 63.862 70.9344 65.1777C70.9936 65.203 71.0469 65.2401 71.0911 65.2868C71.1354 65.3335 71.1696 65.3887 71.1917 65.4492C71.2137 65.5096 71.2231 65.5739 71.2194 65.6381C71.2156 65.7024 71.1987 65.7652 71.1697 65.8226C71.0191 66.1286 70.7485 66.1545 70.4638 66.0274C70.1791 65.9003 69.9155 65.7237 69.6473 65.5684ZM75.5629 124.471C74.9404 125.513 74.1946 126.477 73.3416 127.34C70.5532 130.096 67.1859 131.426 63.275 131.426C48.0583 131.426 32.8416 131.426 17.6248 131.426C17.4877 131.435 17.3502 131.435 17.213 131.426C16.8812 131.382 16.7895 131.535 16.7424 131.852C16.5236 133.644 16.005 135.385 15.2082 137.004C13.3069 140.928 10.3961 143.83 6.41696 145.624C5.47572 146.047 4.49916 146.33 3.48262 146.683H70.9179C70.3179 145.303 69.7414 143.981 69.1649 142.658C69.0576 142.472 68.9955 142.263 68.9837 142.048C68.9837 141.813 69.0566 141.618 69.299 141.542C69.4079 141.494 69.5303 141.485 69.645 141.517C69.7598 141.549 69.8596 141.621 69.9273 141.719C70.0202 141.868 70.099 142.026 70.1626 142.19C70.7603 143.55 71.3392 144.915 71.9533 146.271C72.0263 146.429 72.0145 146.676 72.2804 146.72C72.4474 146.556 72.3533 146.351 72.3557 146.172C72.3557 144.623 72.3557 143.075 72.3557 141.526C72.3557 141.133 72.3863 140.726 72.904 140.73C73.4217 140.735 73.4522 141.133 73.4522 141.531C73.4522 143.12 73.4522 144.708 73.4522 146.294C73.4522 146.433 73.3675 146.605 73.5417 146.72C73.777 146.65 73.777 146.424 73.8476 146.25C74.4594 144.875 75.0649 143.497 75.6642 142.117C75.7215 141.929 75.8241 141.758 75.963 141.62C76.0318 141.564 76.1134 141.526 76.2005 141.51C76.2876 141.493 76.3774 141.499 76.4619 141.526C76.6972 141.585 76.6031 141.773 76.6148 141.914C76.6569 142.399 76.5683 142.887 76.3583 143.326C75.9277 144.247 75.5324 145.183 75.1229 146.116C74.8618 146.709 74.8641 146.711 75.5418 146.711C82.3831 146.711 89.2251 146.711 96.0679 146.711C96.2186 146.711 96.3856 146.777 96.5386 146.647C96.4303 146.605 96.3456 146.56 96.2562 146.534C92.6873 145.56 89.5115 143.496 87.1719 140.63C84.8324 137.764 83.4459 134.238 83.2059 130.546C83.1376 129.489 83.1729 129.51 82.1329 129.663C80.0268 129.974 77.8973 129.812 75.7912 129.838C75.3206 129.838 75.17 129.548 75.1841 129.099C75.2168 127.571 75.3655 126.047 75.6288 124.542C75.6541 124.503 75.6676 124.458 75.6676 124.412C75.6676 124.366 75.6541 124.321 75.6288 124.283L75.5629 124.471ZM-0.830612 127.223H6.1134C11.8362 127.223 17.5613 127.223 23.2911 127.223C23.8205 127.223 23.9217 127.063 23.8299 126.599C23.6676 125.775 23.564 124.951 23.3781 124.123C21.9969 118.053 18.8037 113.162 13.7469 109.53C10.5803 107.238 6.88929 105.777 3.01199 105.282C-0.988281 104.759 -4.94384 104.952 -8.79588 106.256C-15.4646 108.511 -20.2861 112.846 -23.3192 119.201C-24.3953 121.471 -25.0826 123.906 -25.3523 126.404C-25.4441 127.227 -25.4606 127.225 -24.6323 127.225L-0.830612 127.223ZM76.5042 68.7105C76.0336 69.2354 75.6241 69.7556 75.0476 70.0568C74.6805 70.2475 74.6877 70.4523 74.7935 70.7959C75.6846 73.6956 76.5662 76.5985 77.4384 79.5044C78.3326 82.4638 79.2213 85.4239 80.1044 88.3848C80.3398 89.1521 80.1939 89.3263 79.3985 89.3263C78.5373 89.3263 77.6737 89.3263 76.8101 89.3263C74.6664 89.3616 73.2381 90.7855 73.2334 92.9274C73.224 98.3377 73.224 103.751 73.2334 109.168C73.2113 109.757 73.335 110.344 73.5934 110.874C74.3229 112.263 75.5159 112.792 77.0383 112.745C77.8619 112.719 78.0361 113.028 77.6525 113.746C76.1042 116.648 74.5519 119.551 72.9957 122.454C72.479 123.447 71.8114 124.354 71.0168 125.142C68.8049 127.286 66.1364 128.202 63.0727 128.202C32.6219 128.202 2.17116 128.212 -28.2796 128.232C-28.5337 128.232 -28.7902 128.232 -29.042 128.256C-29.2391 128.272 -29.4271 128.345 -29.5824 128.467C-29.7377 128.59 -29.8534 128.755 -29.915 128.943C-30.2515 129.783 -29.6279 130.464 -28.5031 130.464L63.2939 130.45C64.609 130.467 65.9196 130.291 67.1836 129.927C70.685 128.87 73.2593 126.674 74.9817 123.476C78.1678 117.562 81.3438 111.641 84.5095 105.713C85.167 104.538 85.5753 103.24 85.7089 101.9C85.8425 100.561 85.6985 99.208 85.286 97.9266C83.7471 92.8678 82.2215 87.8066 80.7092 82.7431C79.3091 78.0828 77.9161 73.4343 76.4972 68.7105H76.5042ZM122.049 116.49C120.082 113.36 117.444 110.707 114.326 108.723C108.984 105.383 103.151 104.394 97.0068 105.258C91.1029 106.089 86.1496 108.822 82.2246 113.334C78.4926 117.62 76.5254 122.633 76.1913 128.301C76.1654 128.753 76.2595 128.901 76.7395 128.884C77.836 128.844 78.935 128.884 80.0338 128.87C83.1658 128.87 85.8931 127.828 88.1803 125.653C89.291 124.596 89.9969 123.257 90.8464 122.014C93.176 118.611 96.3927 116.601 100.525 116.53C107.462 116.403 114.408 116.485 121.343 116.478L122.049 116.49ZM106.377 117.431H101.318C98.3228 117.384 95.4277 118.508 93.2489 120.564C92.1877 121.553 91.4535 122.781 90.7005 123.996C89.2991 126.338 87.1272 128.12 84.5566 129.037C84.4258 129.064 84.3107 129.14 84.2362 129.251C84.1618 129.362 84.1339 129.497 84.1588 129.628C84.2506 134.244 85.9237 138.226 89.2204 141.396C93.2983 145.336 98.2399 146.871 103.852 145.904C107.297 145.315 110.468 143.657 112.918 141.165C115.368 138.672 116.971 135.472 117.5 132.017C118.333 126.58 116.851 121.828 113.121 117.773C113.015 117.649 112.881 117.552 112.731 117.488C112.581 117.425 112.418 117.398 112.255 117.408C110.29 117.429 108.33 117.422 106.37 117.422L106.377 117.431ZM5.20275 12.2273C1.16718 12.2273 -2.87075 12.2273 -6.90868 12.2273C-7.33929 12.2273 -7.50166 12.2955 -7.50166 12.7874C-7.48284 20.8637 -7.48284 28.9399 -7.50166 37.0161C-7.50166 37.4868 -7.35577 37.581 -6.91339 37.581C-0.720016 37.581 5.47335 37.5809 11.6644 37.6492C13.3115 37.6633 14.9046 37.5998 16.42 36.889C16.7268 36.757 17.0496 36.666 17.3801 36.6183C17.7919 36.5477 17.9307 36.3641 17.9283 35.9122C17.9001 28.2094 17.8868 20.5059 17.8884 12.8016C17.8884 12.352 17.7872 12.2131 17.3165 12.2155C13.2786 12.2343 9.24068 12.2273 5.20275 12.2273ZM-17.4671 131.44C-17.189 133.862 -16.3799 136.193 -15.0975 138.266C-13.3408 141.101 -10.7818 143.349 -7.74525 144.727C-4.70869 146.104 -1.33148 146.548 1.95781 146.003C9.06184 144.84 14.7705 139.029 15.8035 131.923C15.8623 131.528 15.7588 131.436 15.3682 131.438C13.408 131.459 11.4455 131.48 9.48539 131.438C8.86652 131.422 8.67122 131.629 8.51591 132.191C7.43349 136.162 3.66381 139.208 -0.868271 139.193C-4.96738 139.193 -8.50409 136.651 -9.97007 132.822C-10.1418 132.375 -10.0948 131.716 -10.4831 131.518C-10.8713 131.32 -11.4784 131.462 -11.9867 131.462L-17.4671 131.44ZM-37.3249 11.5282C-37.2933 10.7984 -37.3937 10.0688 -37.6214 9.37463C-38.5627 6.66557 -39.9416 4.15655 -41.1511 1.56516C-41.2547 1.33727 -41.4365 1.15405 -41.6636 1.0487C-41.8907 0.943348 -42.1479 0.922826 -42.3888 0.990865C-43.2171 1.1768 -43.5889 1.89468 -43.2218 2.70434C-42.3676 4.58727 -41.4899 6.47021 -40.6146 8.35314C-40.464 8.67559 -40.3251 9.00746 -40.7369 9.20752C-41.1487 9.40758 -41.3323 9.07336 -41.4782 8.76503C-41.8382 8.0048 -42.1841 7.2375 -42.5441 6.48197C-43.1065 5.32161 -43.5607 4.10713 -44.2266 3.0009C-44.7419 2.14417 -45.8432 2.19595 -46.3185 3.06916C-46.5773 3.53989 -46.375 3.98238 -46.1797 4.40839C-45.342 6.21601 -44.4995 8.02048 -43.6524 9.82182C-43.5089 10.1302 -43.4171 10.4526 -43.7913 10.6362C-44.1654 10.8198 -44.3772 10.5609 -44.5231 10.2549C-44.7348 9.81477 -44.9302 9.36757 -45.1396 8.92508C-45.8455 7.42579 -46.5514 5.91709 -47.2927 4.43428C-47.4386 4.16387 -47.6845 3.96128 -47.9778 3.8698C-48.2711 3.77831 -48.5885 3.80521 -48.8622 3.94473C-49.1153 4.07926 -49.3123 4.29946 -49.4179 4.56595C-49.5235 4.83245 -49.5309 5.12785 -49.4387 5.39929C-49.3358 5.69397 -49.2139 5.98171 -49.074 6.26073C-48.3006 7.92712 -47.5249 9.59195 -46.7468 11.2552C-46.5985 11.573 -46.535 11.8813 -46.895 12.0649C-47.255 12.2485 -47.4692 11.9943 -47.6009 11.6812L-47.721 11.4153C-48.5053 9.73317 -49.2897 8.04951 -50.0741 6.36429C-50.5282 5.38752 -51.173 5.0274 -51.8907 5.34515C-52.5731 5.64877 -52.7213 6.41843 -52.2719 7.38578C-51.4836 9.08748 -50.6859 10.7868 -49.8952 12.4862C-49.8227 12.6243 -49.7621 12.7684 -49.714 12.9169C-49.6709 13.0275 -49.6712 13.1504 -49.7149 13.2608C-49.7585 13.3712 -49.8423 13.4611 -49.9493 13.5124C-50.0028 13.5385 -50.061 13.5538 -50.1205 13.5572C-50.1799 13.5605 -50.2395 13.552 -50.2956 13.532C-50.3517 13.5121 -50.4033 13.4811 -50.4473 13.441C-50.4912 13.4008 -50.5268 13.3523 -50.5518 13.2982C-50.6298 13.1632 -50.7005 13.0242 -50.7635 12.8816C-51.5479 11.2168 -52.3252 9.55273 -53.0954 7.88947C-53.2203 7.53584 -53.4221 7.21431 -53.6861 6.94801C-53.9031 6.77716 -54.1712 6.68427 -54.4473 6.68427C-54.7234 6.68427 -54.9916 6.77716 -55.2085 6.94801C-55.6556 7.29399 -55.7709 7.88946 -55.4791 8.54143C-54.5191 10.6433 -53.5802 12.7568 -52.5731 14.8351C-51.7394 16.5985 -50.293 17.9984 -48.5037 18.774C-46.7144 19.5496 -44.7041 19.6479 -42.8477 19.0505C-42.457 18.9211 -42.3771 18.7869 -42.5724 18.4033C-42.9677 17.6407 -43.3089 16.8499 -43.6736 16.0708C-43.8195 15.7554 -43.9677 15.4235 -43.523 15.2305C-43.0783 15.0375 -42.9277 15.3718 -42.7818 15.6825C-42.4147 16.4615 -42.0358 17.2335 -41.7017 18.0361C-41.544 18.4104 -41.4029 18.4527 -41.0687 18.2291C-38.6897 16.6145 -37.4661 14.3762 -37.3249 11.5282ZM80.7657 79.4832H80.8857C80.8857 78.6242 80.8669 77.7651 80.8857 76.9083C80.961 73.8345 83.0647 71.4949 86.1119 71.0783C86.3755 71.043 86.4296 70.9465 86.4296 70.7111C86.4296 67.5353 86.4296 64.3594 86.4296 61.1835C86.4296 60.9481 86.3802 60.8352 86.1096 60.8375C84.3471 60.8611 82.5799 60.8375 80.8198 60.9011C79.6174 60.9505 78.5703 61.3035 78.2479 62.7181C78.1043 63.3489 77.3913 63.7561 77.2101 64.3139C77.0289 64.8717 77.5043 65.6202 77.3254 66.2604C77.0478 67.2536 77.3584 68.1433 77.6313 69.0471C77.9278 70.038 78.229 71.0265 78.5279 72.0174C79.2762 74.5076 80.0221 76.9962 80.7657 79.4832ZM-9.30415 131.44C-9.31827 131.511 -9.33002 131.532 -9.32533 131.549C-8.43114 135.336 -4.92973 138.106 -0.929459 138.198C2.94611 138.285 6.60049 135.559 7.64528 131.843C7.73235 131.53 7.70647 131.431 7.36056 131.433C5.97066 131.447 4.57919 131.447 3.18615 131.433C3.08192 131.425 2.97743 131.446 2.88492 131.495C2.79241 131.544 2.71568 131.618 2.66374 131.709C2.28078 132.28 1.76308 132.748 1.15631 133.072C0.549545 133.396 -0.127586 133.565 -0.815308 133.565C-1.50303 133.565 -2.18018 133.396 -2.78695 133.072C-3.39371 132.748 -3.91143 132.28 -4.29438 131.709C-4.39086 131.565 -4.46146 131.426 -4.68971 131.426C-6.231 131.445 -7.76993 131.44 -9.30415 131.44ZM-38.4827 26.3398C-37.5098 26.5546 -36.6013 26.9957 -35.8307 27.6273C-35.2166 28.1498 -34.7436 28.8041 -34.2094 29.4067C-33.1576 30.5835 -31.8563 31.1178 -30.3056 30.6612C-28.8608 30.2328 -27.936 29.2231 -27.7172 27.6908C-27.5431 26.474 -27.9525 25.4196 -28.7596 24.5087C-29.6562 23.5084 -30.468 22.4587 -30.7104 21.0841C-30.7715 20.7405 -30.8233 20.3968 -30.8915 19.9779L-38.4827 26.3398ZM65.9952 64.8129C63.6421 64.907 62.2138 66.1474 62.282 68.0609C62.2924 68.5162 62.3926 68.965 62.5769 69.3814C62.7611 69.7979 63.0259 70.1739 63.3558 70.4877C63.6858 70.8016 64.0744 71.0471 64.4995 71.2103C64.9246 71.3734 65.3777 71.451 65.8329 71.4384C66.7409 71.394 67.5963 70.999 68.219 70.3366C68.8418 69.6742 69.1834 68.796 69.1719 67.8867C69.1296 66.2627 67.8589 64.5822 65.9976 64.8129H65.9952ZM87.4485 65.8932C87.4485 67.4231 87.4626 68.9529 87.4485 70.4828C87.4485 70.9018 87.5238 71.0124 87.9709 70.9136C90.1476 70.4428 91.5994 68.6541 91.7594 66.2062C91.9312 63.6172 90.3075 61.4189 87.8885 60.9246C87.465 60.8375 87.4485 60.9623 87.4508 61.3012C87.4603 62.8358 87.4508 64.3633 87.4508 65.8932H87.4485ZM-17.2035 34.3941C-17.2859 32.9536 -17.9236 31.918 -19.2484 31.412C-20.1026 31.0872 -21.0038 30.8895 -21.8815 30.6259C-22.1639 30.5411 -22.2533 30.6518 -22.3145 30.9177C-22.5074 31.7344 -22.7568 32.5394 -22.9333 33.3585C-23.0754 33.9943 -23.0158 34.6586 -22.7627 35.2589C-22.5096 35.8592 -22.0758 36.3656 -21.5215 36.7077C-20.5355 37.3362 -19.3637 37.3479 -18.2813 37.6633C-18.2547 37.6762 -18.2256 37.6826 -18.1961 37.6823C-18.1666 37.6819 -18.1376 37.6747 -18.1114 37.6613C-18.0852 37.6478 -18.0624 37.6284 -18.0449 37.6047C-18.0275 37.581 -18.0157 37.5535 -18.0106 37.5244C-17.7283 36.4724 -17.2459 35.4697 -17.2012 34.3941H-17.2035ZM79.7656 60.0749C80.7516 59.8396 81.6481 59.8772 82.5446 59.896C82.6903 59.8888 82.8326 59.8504 82.9621 59.7834C83.0916 59.7164 83.2052 59.6224 83.2953 59.5077C84.3471 58.5027 84.5142 56.7115 83.6859 55.4618C83.2724 54.8486 82.6603 54.3967 81.9526 54.1823C81.245 53.9679 80.485 54.0042 79.8009 54.2849C79.5303 54.4026 79.5115 54.5203 79.6362 54.7556C80.0888 55.5648 80.3372 56.4723 80.3598 57.3992C80.3823 58.3262 80.1784 59.2447 79.7656 60.0749ZM49.3329 23.852C49.3465 23.4855 49.2865 23.1199 49.1565 22.777C49.0265 22.434 48.8291 22.1206 48.5759 21.8552C48.3227 21.5899 48.0188 21.378 47.6824 21.2321C47.3459 21.0862 46.9837 21.0093 46.617 21.0058C46.2503 21.0023 45.8866 21.0724 45.5475 21.212C45.2083 21.3515 44.9006 21.5576 44.6424 21.8181C44.3843 22.0786 44.1809 22.3882 44.0444 22.7287C43.908 23.0691 43.8411 23.4335 43.8478 23.8002C43.8478 25.2266 45.1044 26.5305 46.5162 26.5423C46.8781 26.551 47.2382 26.488 47.5756 26.357C47.9131 26.2259 48.2212 26.0294 48.4824 25.7787C48.7436 25.5279 48.9526 25.228 49.0973 24.8961C49.2421 24.5642 49.3197 24.207 49.3258 23.845L49.3329 23.852ZM54.1427 21.0582C53.385 21.0935 52.5896 21.529 52.0249 22.4022C51.9204 22.5287 51.8633 22.6876 51.8633 22.8517C51.8633 23.0158 51.9204 23.1747 52.0249 23.3013C52.6634 24.2427 53.2759 25.1936 53.8626 26.1539C53.9368 26.2999 54.0578 26.4169 54.2062 26.486C54.3547 26.5551 54.522 26.5724 54.6815 26.5352C55.3658 26.4483 55.9932 26.1092 56.441 25.5843C56.8887 25.0594 57.1247 24.3863 57.1028 23.6967C57.0464 22.2351 55.8628 21.0794 54.1356 21.0512L54.1427 21.0582ZM54.6297 32.3747C54.3026 30.9789 53.3567 30.1834 52.0413 30.1387C51.413 30.1175 50.7871 30.0916 50.1588 30.0892C48.7893 30.0892 47.761 30.8636 47.4951 32.1322L54.6297 32.3747ZM-81.7775 138.76C-81.2624 138.758 -80.7691 138.552 -80.406 138.187C-80.0429 137.821 -79.8396 137.327 -79.8409 136.811C-79.8633 136.304 -80.082 135.826 -80.4507 135.477C-80.8194 135.128 -81.3092 134.936 -81.8167 134.942C-82.3242 134.948 -82.8096 135.151 -83.1702 135.508C-83.5309 135.865 -83.7385 136.349 -83.7494 136.856C-83.7454 137.11 -83.6914 137.361 -83.5904 137.594C-83.4894 137.827 -83.3435 138.037 -83.161 138.214C-82.9784 138.39 -82.7629 138.529 -82.5267 138.622C-82.2905 138.715 -82.0383 138.76 -81.7845 138.756L-81.7775 138.76ZM12.1421 38.5601H8.18415C7.12525 38.5601 7.12525 38.5601 7.12525 39.6263V44.3972C8.09003 41.8434 9.84777 40.0311 12.135 38.5554L12.1421 38.5601ZM48.1634 33.2267C48.6552 34.1328 49.4882 34.4223 50.4389 34.4624C51.3378 34.5 52.0602 34.1611 52.6037 33.2267H48.1634ZM-3.25665 131.459C-1.68243 133.283 0.868332 132.671 1.56015 131.459H-3.25665Z" fill="#282937"/>
<path d="M158.804 26.8106H99.087C101.751 25.6338 103.793 23.619 106.167 22.0656C108.849 20.2668 112.076 19.4633 115.288 19.7943C116.391 19.9209 117.478 20.1664 118.528 20.5263C120.91 21.2889 122.948 20.5428 124.83 19.1729C126.178 18.1915 127.381 17.0264 128.614 15.8967C130.136 14.5033 131.762 13.2417 133.88 12.8369C135.739 12.4721 137.41 12.931 138.951 13.9266C140.775 15.1035 142.316 16.6004 143.845 18.1115C146.017 20.258 148.262 22.3104 150.844 23.9627C152.899 25.2878 155.198 26.1881 157.606 26.6105L158.804 26.8106Z" fill="#393E7F"/>
<path d="M52.3049 18.8387C51.9708 18.6363 51.599 18.754 51.2554 18.7446C49.18 18.7681 47.1068 18.5092 45.0314 18.7163C43.1771 18.907 41.3253 20.4322 40.8594 22.1362C40.6848 22.4369 40.581 22.7733 40.5558 23.12C40.4758 24.6381 40.2028 26.1045 39.3416 27.4014C38.9157 27.7779 38.6357 28.284 38.165 28.6229C37.6501 29.0098 37.0888 29.3308 36.4943 29.5785C35.4354 30.0257 34.3248 30.0186 33.2118 30.021H31.7387C30.2868 29.8609 28.8326 29.9174 27.376 29.9151C26.9972 29.9009 26.7689 29.6562 26.5524 29.3878C25.5712 27.692 24.8995 25.8351 24.5688 23.9038C24.3459 22.4447 24.3301 20.9613 24.5217 19.4977C24.7923 16.9346 25.7618 14.6468 27.1572 12.5168C27.9502 11.3046 28.995 10.3349 30.068 9.36993C31.5999 7.99304 33.3882 7.11041 35.3107 6.48669C37.6008 5.74822 40.0349 5.57143 42.4077 5.97124C44.7018 6.31769 46.8877 7.17953 48.8011 8.49202C52.1731 10.8127 54.2791 14.0137 55.2369 17.982C55.378 18.5657 55.1804 18.8175 54.5968 18.8246L52.3049 18.8387ZM36.3037 21.2983C36.3139 20.0527 35.8322 18.8533 34.9633 17.9609C34.0944 17.0685 32.9086 16.555 31.6634 16.5321C29.1173 16.478 26.8983 18.681 26.896 21.263C26.9104 22.5105 27.4097 23.7034 28.2882 24.589C29.1666 25.4747 30.3552 25.9836 31.6022 26.008C34.1389 26.0339 36.2967 23.8803 36.3108 21.2983H36.3037Z" fill="#FFA600"/>
<path d="M71.0804 50.7073C68.1602 50.1354 65.24 50.4037 62.3104 50.6532C58.2183 51.0039 54.4274 52.442 50.6037 53.7624C44.5891 55.8384 38.58 57.9253 32.5765 60.0232C32.1717 60.1667 31.9929 60.1314 31.8706 59.6842C31.5035 58.305 31.0987 56.9375 30.7081 55.563C30.8799 55.4759 31.0517 55.3817 31.2282 55.2993L38.1722 52.0748L39.1134 51.6465L41.1394 50.705C41.4699 50.6187 41.7812 50.471 42.0572 50.2696C44.3232 49.2292 46.5774 48.1678 48.8529 47.158C50.8507 46.2731 52.7591 45.1692 54.8722 44.569C59.6145 43.2117 63.9403 44.0426 67.8496 47.0615C68.2049 47.3345 68.539 47.6311 68.8826 47.9183C69.1055 48.2204 69.3665 48.4926 69.6591 48.7279C70.1321 49.3893 70.6968 49.9848 71.0804 50.7073Z" fill="#FFA600"/>
<path d="M83.7987 89.4299C83.1093 87.3516 82.4952 85.2474 81.8975 83.1409C81.8633 83.0287 81.845 82.9122 81.8434 82.7949C81.8834 80.6978 81.7445 78.6006 81.921 76.5082C82.0023 75.3447 82.5029 74.2501 83.3299 73.4277C84.1569 72.6053 85.254 72.1109 86.4178 72.0363C87.1592 71.9977 87.8963 71.9009 88.6226 71.7468C89.4072 73.2489 89.844 74.9085 89.9004 76.6024C89.9851 79.3397 89.1332 81.8063 87.5896 84.0423C86.3542 85.8452 85.0623 87.634 83.7987 89.4299Z" fill="#FFA600"/>
<path d="M35.692 91.8824C35.8311 91.547 35.9176 91.1921 35.9485 90.8303C36.1038 90.2866 36.2638 89.7476 36.4191 89.2039C36.9306 87.3022 37.4396 85.3996 37.9463 83.4963C38.1381 83.5438 38.3407 83.5169 38.5134 83.421C39.7652 82.8678 41.0218 82.3195 42.2784 81.7593C42.5631 81.6322 42.8831 81.4886 42.6996 81.0532C42.516 80.6178 42.2007 80.7119 41.8689 80.8602C40.6547 81.4015 39.4429 81.9523 38.2169 82.4701C37.7322 82.6749 37.5839 82.9549 37.8216 83.428C35.732 84.4103 33.6417 85.3933 31.5506 86.3772C29.392 87.3908 27.2342 88.4107 25.0772 89.4369C24.8819 89.4369 24.6889 89.4675 24.4936 89.4675C21.6228 89.4864 18.752 89.5013 15.8812 89.5122C15.533 89.5122 15.1753 89.4628 14.8341 89.4369C11.841 88.2884 9.04076 86.8479 7.14887 84.1177C7.14887 78.4312 7.14257 72.7448 7.13002 67.0583C7.11793 66.9529 7.1418 66.8464 7.19775 66.7563C7.25371 66.6662 7.33847 66.5976 7.43829 66.5617C8.93016 65.8556 10.4197 65.166 11.9092 64.4434C12.3798 64.208 12.3469 64.6081 12.4104 64.8247C13.2105 67.489 13.9846 70.1581 14.7917 72.8271C15.4012 74.8325 15.8248 76.906 16.6742 78.8266C18.2743 82.4936 21.1451 84.5295 25.1148 84.9626C27.082 85.1792 28.9104 84.6731 30.6823 83.8446C40.192 79.3868 49.704 74.9352 59.2184 70.4899C59.8914 70.1745 60.5503 69.8215 61.2044 69.4708C61.4397 69.3531 61.515 69.2919 61.6539 69.6144C62.8163 72.307 65.8047 73.2225 68.2425 71.6244C68.6379 71.3678 68.9485 71.495 69.2897 71.5844C69.6309 71.6738 69.4238 71.9445 69.3768 72.1187C68.805 74.2746 68.2214 76.4306 67.6401 78.5865C64.5387 90.1148 61.4373 101.644 58.3359 113.174C58.2607 113.454 58.1524 113.739 58.3125 114.028C57.8018 114.077 57.383 113.771 56.9006 113.673C56.9151 113.579 56.9355 113.486 56.9618 113.395C57.063 113.103 57.0864 112.811 56.8017 112.621C56.4793 112.404 56.2723 112.644 56.077 112.856L49.7872 110.778L34.9037 105.873C34.9179 105.545 34.8143 105.284 34.4566 105.237C34.099 105.19 34.0025 105.461 33.8825 105.708C33.8425 105.793 33.7907 105.873 33.7437 105.943C33.4848 105.863 33.2236 105.79 32.9671 105.708C32.2965 105.472 32.24 105.371 32.4094 104.691C32.6087 103.886 32.8071 103.08 33.0048 102.271C33.1457 101.943 33.2316 101.593 33.2589 101.236C34.1272 98.1455 34.9037 95.0128 35.692 91.8824Z" fill="#FFA600"/>
<path d="M59.3784 112.948C60.8185 107.577 62.2594 102.206 63.701 96.8368C65.8973 88.6539 68.0935 80.4695 70.2897 72.2834C70.316 72.0869 70.4106 71.9059 70.5569 71.7721C70.7031 71.6383 70.8917 71.5602 71.0898 71.5514C71.8218 71.4101 72.5333 71.1776 73.2076 70.8594C73.6217 70.6829 73.8006 70.7418 73.9394 71.2078C75.2501 75.6374 76.5866 80.0599 77.9138 84.4848C78.2526 85.6122 78.5679 86.7444 78.9303 87.8623C79.0739 88.3048 78.9539 88.3966 78.5232 88.3966C77.5255 88.3966 76.5161 88.2789 75.5348 88.5284C73.5206 89.0392 72.2852 90.682 72.2804 92.8709C72.2687 97.0299 72.2804 101.186 72.2804 105.345C72.2804 105.55 72.3699 105.776 72.2005 105.962C70.751 108.033 69.3022 110.106 67.8542 112.18C67.7648 112.331 67.6357 112.455 67.481 112.538C67.3263 112.621 67.1518 112.66 66.9765 112.651C66.6398 112.611 66.2985 112.632 65.9695 112.715L59.3784 112.948Z" fill="#FFA600"/>
<path d="M75.5559 124.471L75.6594 124.297C75.6847 124.335 75.6982 124.381 75.6982 124.427C75.6982 124.473 75.6847 124.518 75.6594 124.556L75.5559 124.471Z" fill="#FDFDFE"/>
<path d="M69.5461 65.7073C69.4849 65.6626 69.4331 65.6084 69.5013 65.5425C69.5201 65.5237 69.5931 65.5566 69.6401 65.5684L69.5461 65.7073Z" fill="#FDFDFE"/>
<path d="M61.5244 66.3004C61.5738 66.2698 61.6279 66.2321 61.6656 66.3004C61.6656 66.3004 61.6185 66.3451 61.5926 66.3687C61.5674 66.3486 61.5445 66.3257 61.5244 66.3004Z" fill="#FDFDFE"/>
<path d="M36.3109 21.2983C36.2967 23.8874 34.1389 26.0339 31.6047 26.0057C30.3576 25.9813 29.1691 25.4724 28.2906 24.5867C27.4122 23.7011 26.9129 22.5082 26.8984 21.2607C26.8984 18.6717 29.1198 16.4757 31.6658 16.5298C32.9122 16.5515 34.0997 17.0647 34.9696 17.9578C35.8396 18.8509 36.3216 20.0515 36.3109 21.2983ZM27.8915 21.2983C27.8915 23.4425 29.5739 24.9959 31.64 25.0148C32.3827 25.0147 33.1088 24.794 33.7259 24.3805C34.343 23.9671 34.8234 23.3795 35.1062 22.6925C35.3889 22.0055 35.4612 21.2499 35.3138 20.5217C35.1665 19.7935 34.8062 19.1255 34.2787 18.6025C33.7511 18.0795 33.0802 17.725 32.3509 17.5841C31.6216 17.4432 30.8669 17.5221 30.1825 17.811C29.4982 18.0998 28.915 18.5855 28.5071 19.2064C28.0992 19.8273 27.8849 20.5554 27.8915 21.2983Z" fill="#232533"/>
<path d="M38.1768 52.0725C38.1768 50.6226 38.1769 49.1728 38.1533 47.7229C38.1533 47.384 38.2286 47.1251 38.6239 47.1251C39.0192 47.1251 39.1228 47.4028 39.1204 47.7629C39.1204 49.0574 39.1204 50.352 39.1204 51.6441L38.1768 52.0725Z" fill="#232533"/>
<path d="M37.9391 83.4963L37.8074 83.4398C37.572 82.969 37.718 82.6866 38.2027 82.4818C39.4286 81.964 40.6405 81.4133 41.8547 80.8719C42.1865 80.7236 42.4994 80.6366 42.6853 81.0649C42.8712 81.4933 42.5488 81.6322 42.2641 81.771C41.0146 82.3312 39.7581 82.8796 38.4992 83.4327C38.3269 83.5229 38.1272 83.5455 37.9391 83.4963Z" fill="#232533"/>
<path d="M-36.4355 64.055C-36.4355 57.4647 -36.4355 50.8745 -36.4355 44.2842C-36.4355 43.3686 -36.3908 43.3239 -35.4731 43.3239H1.0542C1.93191 43.3239 1.99545 43.3945 1.99545 44.2653V83.9199C1.99545 84.779 1.93191 84.8378 1.0542 84.8378H-35.5366C-36.4049 84.8378 -36.4402 84.8025 -36.4402 83.9505C-36.437 77.3147 -36.4355 70.6829 -36.4355 64.055ZM-8.31586 64.0762C-8.31586 57.6836 -8.31586 51.2918 -8.31586 44.9009C-8.31586 44.456 -8.40529 44.2983 -8.89003 44.303C-11.3396 44.3289 -13.7915 44.3242 -16.2411 44.303C-16.6529 44.303 -16.7635 44.4207 -16.7635 44.8302C-16.7541 57.6718 -16.7541 70.5142 -16.7635 83.3574C-16.7635 83.8281 -16.5988 83.8917 -16.1894 83.8893C-13.7798 83.8705 -11.3679 83.8634 -8.95592 83.8893C-8.43824 83.8893 -8.30882 83.7669 -8.31117 83.2444C-8.32294 76.8613 -8.31586 70.4687 -8.31586 64.0762ZM-7.37461 64.0762C-7.37461 70.4876 -7.37461 76.8997 -7.37461 83.3127C-7.37461 83.7834 -7.2499 83.894 -6.79105 83.8917C-4.37833 83.8681 -1.96718 83.8681 0.442402 83.8917C0.887138 83.8917 1.03539 83.807 1.03539 83.3245C1.02127 70.5001 1.02127 57.6758 1.03539 44.8514C1.03539 44.4066 0.920063 44.3007 0.484741 44.3054C-1.88719 44.3266 -4.26147 44.3336 -6.63341 44.3054C-7.1958 44.3054 -7.38167 44.3995 -7.37697 45.0115C-7.35814 51.3664 -7.36993 57.7213 -7.36993 64.0762H-7.37461ZM-17.7118 64.1232C-17.7118 57.7118 -17.7118 51.3012 -17.7118 44.8914C-17.7118 44.456 -17.7871 44.2936 -18.2742 44.3007C-20.7026 44.3289 -23.1334 44.3195 -25.5688 44.3007C-25.9712 44.3007 -26.1524 44.3524 -26.1501 44.8302C-26.1359 57.6718 -26.1359 70.5127 -26.1501 83.3527C-26.1501 83.8234 -25.9712 83.887 -25.5688 83.8823C-23.1969 83.8681 -20.825 83.8564 -18.4531 83.8823C-17.8907 83.8823 -17.7048 83.7905 -17.7071 83.1762C-17.7165 76.8307 -17.7071 70.4781 -17.7071 64.1256L-17.7118 64.1232ZM-27.1054 64.0762C-27.1054 57.6805 -27.1054 51.2871 -27.1054 44.8961C-27.1054 44.4607 -27.1807 44.296 -27.6678 44.3007C-30.0978 44.3289 -32.5293 44.3289 -34.9625 44.3007C-35.4025 44.3007 -35.5131 44.4089 -35.5107 44.8491C-35.4997 57.675 -35.4997 70.5009 -35.5107 83.3268C-35.5107 83.814 -35.346 83.8893 -34.9154 83.8846C-32.5246 83.8658 -30.1315 83.8587 -27.7408 83.8846C-27.2254 83.8846 -27.096 83.7646 -27.0984 83.2468C-27.1093 76.8605 -27.1101 70.4703 -27.1007 64.0762H-27.1054Z" fill="#2B2C3A"/>
<path d="M-0.889402 124.737C-3.96492 124.737 -7.04042 124.737 -10.1159 124.737C-10.5597 124.732 -10.9902 124.585 -11.3445 124.318C-11.6989 124.051 -11.9585 123.677 -12.0855 123.252C-12.2155 122.838 -12.2098 122.394 -12.0692 121.983C-11.9286 121.573 -11.6606 121.218 -11.3043 120.971C-10.8979 120.69 -10.4123 120.546 -9.91828 120.559C-3.84412 120.559 2.22927 120.559 8.30186 120.559C9.25957 120.559 10.0314 120.936 10.4032 121.868C10.5612 122.23 10.6089 122.631 10.5402 123.021C10.4716 123.41 10.2897 123.771 10.0173 124.057C9.80669 124.29 9.54635 124.473 9.25551 124.592C8.96467 124.711 8.65078 124.763 8.33713 124.744C5.26162 124.732 2.18611 124.737 -0.889402 124.737ZM-0.788206 121.541C-3.84725 121.541 -6.90629 121.541 -9.96533 121.541C-10.7066 121.541 -11.1654 121.962 -11.1984 122.607C-11.2289 123.21 -10.7466 123.692 -10.0383 123.763C-9.92064 123.775 -9.80298 123.763 -9.68533 123.763H8.07358C8.38687 123.783 8.70055 123.729 8.98895 123.605C9.1428 123.529 9.27658 123.418 9.37948 123.28C9.48239 123.143 9.55152 122.983 9.5813 122.814C9.61108 122.645 9.60067 122.471 9.55091 122.307C9.50115 122.143 9.41344 121.992 9.29486 121.868C9.14508 121.741 8.97163 121.646 8.7846 121.587C8.59757 121.528 8.40067 121.507 8.20537 121.524C5.20908 121.54 2.21122 121.546 -0.788206 121.541Z" fill="#2B2C3A"/>
<path d="M-0.826031 118.046C-3.92272 118.046 -7.0194 118.046 -10.1184 118.046C-10.5616 118.044 -10.9924 117.899 -11.3469 117.633C-11.7014 117.367 -11.9607 116.994 -12.0865 116.569C-12.2122 116.144 -12.1976 115.689 -12.0448 115.273C-11.8921 114.857 -11.6094 114.501 -11.2385 114.259C-10.8963 114.024 -10.491 113.898 -10.0761 113.899C-3.90155 113.899 2.2738 113.899 8.44992 113.899C8.92692 113.879 9.39538 114.029 9.77285 114.322C10.1503 114.614 10.4126 115.03 10.5136 115.497C10.6123 115.959 10.5544 116.442 10.3491 116.868C10.1438 117.294 9.80264 117.639 9.37938 117.85C9.01728 118.002 8.62486 118.066 8.23342 118.039H-0.826031V118.046ZM-0.795439 117.088H6.31564C7.04039 117.088 7.76515 117.088 8.4899 117.088C8.77749 117.092 9.05521 116.983 9.26273 116.784C9.47025 116.585 9.59083 116.312 9.59824 116.024C9.60827 115.737 9.50749 115.458 9.31688 115.243C9.12627 115.029 8.86044 114.896 8.57461 114.873C8.39864 114.856 8.22176 114.852 8.04516 114.859H-9.81959C-10.2196 114.859 -10.6126 114.889 -10.8903 115.226C-11.0407 115.383 -11.1405 115.581 -11.1766 115.795C-11.2127 116.009 -11.1834 116.229 -11.0926 116.426C-11.0003 116.644 -10.8414 116.826 -10.6388 116.947C-10.4362 117.068 -10.2004 117.121 -9.96548 117.1C-6.9088 117.081 -3.85212 117.085 -0.795439 117.088Z" fill="#232533"/>
<path d="M91.1758 129.402C91.1287 124.048 95.4749 119.656 100.896 119.578C106.233 119.503 110.695 123.958 110.707 129.374C110.718 134.717 106.297 139.224 100.951 139.172C99.6668 139.175 98.395 138.924 97.2083 138.434C96.0215 137.944 94.9432 137.225 94.035 136.317C93.1269 135.41 92.4069 134.332 91.9162 133.145C91.4255 131.958 91.1739 130.686 91.1758 129.402ZM100.861 138.193C105.407 138.311 109.53 134.411 109.723 129.955C109.958 124.777 106.036 120.647 101.073 120.574C99.9084 120.547 98.7501 120.751 97.6651 121.175C96.5801 121.599 95.5899 122.234 94.7519 123.043C93.9139 123.852 93.2447 124.82 92.783 125.89C92.3214 126.959 92.0765 128.11 92.0625 129.275C92.0485 130.44 92.2657 131.596 92.7015 132.677C93.1373 133.757 93.783 134.741 94.6013 135.57C95.4196 136.399 96.3942 137.058 97.4688 137.508C98.5433 137.957 99.6963 138.19 100.861 138.191V138.193Z" fill="#2B2C3A"/>
<path d="M5.18627 15.4306C8.10647 15.4141 11.0267 15.4071 13.9492 15.3765C14.5422 15.3765 14.6034 15.7013 14.6057 16.1697C14.6277 21.5815 14.6544 26.995 14.6858 32.41C14.6858 32.8195 14.6858 33.2337 14.6858 33.6433C14.7116 34.154 14.481 34.3306 13.9798 34.3306C10.8808 34.3306 7.78407 34.3565 4.68738 34.3729L-3.48731 34.4153C-4.19324 34.4153 -4.26146 34.34 -4.26382 33.6339C-4.29676 27.8486 -4.32735 22.064 -4.35559 16.2803C-4.35559 15.5742 -4.26853 15.4895 -3.53671 15.4871C-0.63455 15.4777 2.26761 15.4628 5.16978 15.4424L5.18627 15.4306ZM13.6833 32.6383L13.601 17.0641C11.0478 19.6531 8.55826 22.1621 6.05455 24.6711C5.80041 24.9277 6.00043 25.0312 6.14632 25.1748L8.85946 27.8627L13.6833 32.6383ZM-2.57666 33.4032L12.9538 33.3232C10.4054 30.7859 7.89234 28.2887 5.38863 25.7915C5.13685 25.5396 5.0286 25.7256 4.88271 25.8738L2.69195 28.0886L-2.57666 33.4032ZM12.8197 16.3909L-2.64959 16.4733C-0.0752902 19.02 2.43782 21.4984 4.93447 23.9885C5.2592 24.311 5.36979 24.0074 5.52275 23.8544C7.87585 21.4866 10.2203 19.1165 12.5562 16.744C12.6574 16.6428 12.8244 16.5722 12.8197 16.3909ZM-3.32728 17.1723L-3.24493 32.7207C-0.696517 30.1457 1.78131 27.6367 4.26619 25.1348C4.44974 24.9512 4.44268 24.8453 4.26619 24.664C1.74837 22.1927 -0.757692 19.7119 -3.32728 17.1723Z" fill="#232533"/>
<path d="M48.6716 23.9297C48.6679 24.1948 48.5598 24.4478 48.3708 24.6338C48.1818 24.8197 47.9272 24.9236 47.6621 24.923C47.3969 24.9158 47.1447 24.8065 46.9579 24.618C46.7712 24.4295 46.6644 24.1762 46.6597 23.9109C46.6596 23.7746 46.6869 23.6398 46.7401 23.5144C46.7933 23.3889 46.8711 23.2755 46.9691 23.1808C47.067 23.0861 47.183 23.0122 47.3102 22.9633C47.4373 22.9144 47.573 22.8917 47.7092 22.8965C47.8407 22.8994 47.9703 22.9288 48.0903 22.9826C48.2104 23.0365 48.3185 23.1139 48.4082 23.2101C48.4979 23.3064 48.5674 23.4197 48.6126 23.5433C48.6579 23.6669 48.6779 23.7983 48.6716 23.9297Z" fill="#2B2C3A"/>
<path d="M56.6534 23.9132C56.6486 24.1783 56.5417 24.4313 56.3549 24.6195C56.1681 24.8076 55.916 24.9163 55.651 24.923C55.5144 24.9234 55.3791 24.8961 55.2533 24.8428C55.1276 24.7894 55.0139 24.711 54.9193 24.6124C54.8247 24.5139 54.7512 24.3971 54.703 24.2692C54.6548 24.1414 54.6331 24.005 54.6392 23.8685C54.6422 23.7371 54.6712 23.6075 54.7245 23.4873C54.7778 23.367 54.8543 23.2585 54.9496 23.168C55.045 23.0774 55.1573 23.0066 55.2801 22.9596C55.4028 22.9126 55.5337 22.8904 55.6651 22.8941C55.9302 22.9015 56.1819 23.0122 56.3665 23.2026C56.5511 23.393 56.6541 23.648 56.6534 23.9132Z" fill="#2B2C3A"/>
<path d="M27.8914 21.3077C27.8877 20.5688 28.1032 19.8453 28.5106 19.2289C28.9181 18.6125 29.4992 18.1308 30.1804 17.8448C30.8616 17.5588 31.6123 17.4813 32.3375 17.6221C33.0628 17.763 33.7299 18.1158 34.2546 18.6361C34.7793 19.1563 35.138 19.8205 35.2852 20.5446C35.4324 21.2688 35.3616 22.0203 35.0817 22.7042C34.8018 23.388 34.3253 23.9735 33.7127 24.3865C33.1 24.7994 32.3787 25.0214 31.6399 25.0242C29.5739 25.0053 27.8961 23.4519 27.8914 21.3077Z" fill="#FFA600"/>
<path d="M100.944 133.58C100.113 133.581 99.3015 133.335 98.6109 132.874C97.9204 132.413 97.3822 131.757 97.0646 130.99C96.747 130.223 96.6642 129.379 96.8268 128.564C96.9894 127.75 97.3901 127.002 97.978 126.416C98.5659 125.829 99.3146 125.431 100.129 125.27C100.944 125.11 101.788 125.195 102.554 125.515C103.32 125.835 103.974 126.375 104.433 127.067C104.892 127.759 105.135 128.572 105.132 129.402C105.12 130.508 104.674 131.566 103.891 132.347C103.108 133.128 102.05 133.571 100.944 133.58ZM100.962 126.149C100.324 126.146 99.699 126.332 99.1661 126.684C98.6332 127.035 98.2163 127.537 97.9679 128.125C97.7195 128.713 97.6507 129.361 97.7702 129.989C97.8897 130.616 98.1921 131.194 98.6394 131.649C99.0866 132.105 99.6587 132.418 100.284 132.549C100.908 132.679 101.558 132.622 102.15 132.385C102.743 132.147 103.251 131.739 103.612 131.212C103.974 130.686 104.171 130.064 104.179 129.426C104.183 128.998 104.102 128.573 103.941 128.177C103.78 127.78 103.543 127.419 103.242 127.115C102.941 126.81 102.584 126.568 102.189 126.403C101.795 126.237 101.371 126.151 100.944 126.149H100.962Z" fill="#282937"/>
</g>
<defs>
<clipPath id="clip0_1_614">
<rect width="268" height="147.702" fill="white" transform="translate(-101)"/>
</clipPath>
</defs>
</svg>
